<svg width="50" height="44" viewBox="0 0 50 44" fill="none" xmlns="http://www.w3.org/2000/svg">
<path d="M28.8584 18.2353V25.6471C28.8584 28.8627 28.5166 31.6373 27.833 33.9706C27.1493 36.2843 26.163 38.1863 24.8739 39.6765C23.6043 41.1471 22.0906 42.2353 20.3327 42.9412C18.5748 43.6471 16.6216 44 14.4731 44C12.7543 44 11.1527 43.7843 9.66829 43.3529C8.18387 42.902 6.84593 42.2059 5.65449 41.2647C4.48257 40.3235 3.46691 39.1373 2.60751 37.7059C1.76764 36.2549 1.12308 34.5294 0.673851 32.5294C0.224617 30.5294 0 28.2353 0 25.6471V18.2353C0 15.0196 0.341808 12.2647 1.02542 9.97059C1.72857 7.65686 2.71493 5.76471 3.98451 4.29412C5.27361 2.82353 6.7971 1.7451 8.55497 1.05882C10.3128 0.352941 12.266 0 14.4145 0C16.1334 0 17.7252 0.22549 19.1901 0.676471C20.6745 1.10784 22.0125 1.78431 23.2039 2.70588C24.3953 3.62745 25.411 4.81373 26.2509 6.26471C27.0907 7.69608 27.7353 9.41176 28.1845 11.4118C28.6338 13.3922 28.8584 15.6667 28.8584 18.2353ZM20.3913 26.7647V17.0882C20.3913 15.5392 20.3034 14.1863 20.1276 13.0294C19.9714 11.8725 19.7272 10.8922 19.3952 10.0882C19.0631 9.26471 18.653 8.59804 18.1647 8.08824C17.6764 7.57843 17.1197 7.20588 16.4947 6.97059C15.8697 6.73529 15.1763 6.61765 14.4145 6.61765C13.4575 6.61765 12.6078 6.80392 11.8656 7.17647C11.1429 7.54902 10.5277 8.14706 10.0199 8.97059C9.51204 9.77451 9.1214 10.8529 8.84795 12.2059C8.59404 13.5392 8.46708 15.1667 8.46708 17.0882V26.7647C8.46708 28.3137 8.54521 29.6765 8.70146 30.8529C8.87725 32.0294 9.13116 33.0392 9.46321 33.8824C9.81478 34.7059 10.225 35.3824 10.6937 35.9118C11.182 36.4216 11.7387 36.7941 12.3637 37.0294C13.0082 37.2647 13.7114 37.3824 14.4731 37.3824C15.4107 37.3824 16.2408 37.1961 16.9635 36.8235C17.7057 36.4314 18.3307 35.8235 18.8385 35C19.3659 34.1569 19.7565 33.0588 20.0104 31.7059C20.2643 30.3529 20.3913 28.7059 20.3913 26.7647Z" fill="white"/>
<path d="M32.9058 29.2209V28.2267C32.9058 27.5122 33.0601 26.8623 33.3688 26.2769C33.6775 25.6915 34.132 25.2224 34.7322 24.8694C35.3325 24.5165 36.0699 24.34 36.9446 24.34C37.845 24.34 38.5953 24.5165 39.1955 24.8694C39.8043 25.2224 40.2588 25.6915 40.5589 26.2769C40.8676 26.8623 41.022 27.5122 41.022 28.2267V29.2209C41.022 29.9182 40.8676 30.5595 40.5589 31.1449C40.2588 31.7303 39.8086 32.1994 39.2084 32.5524C38.6081 32.9053 37.8664 33.0818 36.9832 33.0818C36.0914 33.0818 35.3411 32.9053 34.7322 32.5524C34.132 32.1994 33.6775 31.7303 33.3688 31.1449C33.0601 30.5595 32.9058 29.9182 32.9058 29.2209ZM35.3625 28.2267V29.2209C35.3625 29.5222 35.4182 29.8106 35.5297 30.0861C35.6498 30.3529 35.8298 30.5725 36.0699 30.7446C36.3186 30.9082 36.6187 30.99 36.9703 30.99C37.339 30.99 37.6392 30.9082 37.8707 30.7446C38.1022 30.5725 38.2737 30.3529 38.3852 30.0861C38.4967 29.8106 38.5524 29.5222 38.5524 29.2209V28.2267C38.5524 27.9082 38.4924 27.6155 38.3723 27.3486C38.2609 27.0732 38.0851 26.8537 37.845 26.6901C37.6134 26.5179 37.3133 26.4319 36.9446 26.4319C36.6016 26.4319 36.31 26.5179 36.0699 26.6901C35.8298 26.8537 35.6498 27.0732 35.5297 27.3486C35.4182 27.6155 35.3625 27.9082 35.3625 28.2267ZM41.8581 39.7963V38.802C41.8581 38.0961 42.0124 37.4505 42.3211 36.8651C42.6384 36.2798 43.0971 35.8106 43.6974 35.4577C44.3062 35.1047 45.0522 34.9283 45.9355 34.9283C46.8273 34.9283 47.5733 35.1047 48.1735 35.4577C48.7738 35.8106 49.2283 36.2798 49.537 36.8651C49.8457 37.4505 50 38.0961 50 38.802V39.7963C50 40.5022 49.8457 41.1478 49.537 41.7331C49.2368 42.3185 48.7866 42.7877 48.1864 43.1406C47.5861 43.4935 46.8444 43.67 45.9612 43.67C45.0694 43.67 44.3191 43.4935 43.7103 43.1406C43.1014 42.7877 42.6384 42.3185 42.3211 41.7331C42.0124 41.1478 41.8581 40.5022 41.8581 39.7963ZM44.3276 38.802V39.7963C44.3276 40.1062 44.3962 40.3989 44.5334 40.6743C44.6706 40.9498 44.8593 41.1693 45.0994 41.3329C45.3481 41.4964 45.6353 41.5782 45.9612 41.5782C46.3728 41.5782 46.6943 41.4964 46.9259 41.3329C47.1574 41.1693 47.316 40.9498 47.4018 40.6743C47.4961 40.3989 47.5433 40.1062 47.5433 39.7963V38.802C47.5433 38.4921 47.4832 38.2037 47.3632 37.9369C47.2431 37.6614 47.0631 37.4419 46.823 37.2783C46.5914 37.1062 46.2956 37.0201 45.9355 37.0201C45.5753 37.0201 45.2752 37.1062 45.0351 37.2783C44.8036 37.4419 44.6278 37.6614 44.5077 37.9369C44.3877 38.2037 44.3276 38.4921 44.3276 38.802ZM46.8487 27.297L37.7035 41.9914L35.9027 41.0359L45.0479 26.3415L46.8487 27.297Z" fill="white"/>
</svg>
