<svg width="77" height="78" viewBox="0 0 77 78" fill="none" xmlns="http://www.w3.org/2000/svg">
<circle cx="38.5" cy="39" r="36.5" stroke="white" stroke-width="4"/>
<path d="M42.9564 17.4229L42.002 46.6623H35.0609L34.0776 17.4229H42.9564ZM33.8462 55.7146C33.8462 54.4806 34.2704 53.4588 35.1187 52.649C35.9864 51.8199 37.1239 51.4053 38.5314 51.4053C39.9582 51.4053 41.0958 51.8199 41.9441 52.649C42.7925 53.4588 43.2167 54.4806 43.2167 55.7146C43.2167 56.91 42.7925 57.9223 41.9441 58.7514C41.0958 59.5804 39.9582 59.995 38.5314 59.995C37.1239 59.995 35.9864 59.5804 35.1187 58.7514C34.2704 57.9223 33.8462 56.91 33.8462 55.7146Z" fill="white"/>
</svg>
