<svg width="44" height="44" viewBox="0 0 44 44" fill="none" xmlns="http://www.w3.org/2000/svg">
<g clip-path="url(#clip0_455_308)">
<path d="M35.2 26.3999C30.3476 26.3999 26.4 30.3474 26.4 35.1999C26.4 40.0524 30.3476 43.9999 35.2 43.9999C40.0525 43.9999 44 40.0524 44 35.1999C44 30.3474 40.0525 26.3999 35.2 26.3999ZM35.2 42.5332C31.1564 42.5332 27.8667 39.2435 27.8667 35.1999C27.8667 31.1563 31.1564 27.8666 35.2 27.8666C39.2436 27.8666 42.5334 31.1563 42.5334 35.1999C42.5334 39.2435 39.2436 42.5332 35.2 42.5332Z" fill="white"/>
<path d="M0.612333 15.3999C0.230267 15.9426 0 16.5989 0 17.3124V25.9533C0 26.6676 0.230267 27.3239 0.612333 27.8666H27.0241C29.0393 25.6218 31.9528 24.1999 35.2 24.1999C38.4472 24.1999 41.3607 25.6218 43.3759 27.8666H43.3877C43.7697 27.3239 44 26.6676 44 25.954V17.3124C44 16.5982 43.7697 15.9426 43.3877 15.3999H0.612333ZM7.7 24.9332C5.8806 24.9332 4.4 23.4526 4.4 21.6332C4.4 19.8138 5.8806 18.3332 7.7 18.3332C9.5194 18.3332 11 19.8138 11 21.6332C11 23.4526 9.5194 24.9332 7.7 24.9332ZM24.9333 21.2666C24.5285 21.2666 24.2 20.938 24.2 20.5332C24.2 20.1284 24.5285 19.7999 24.9333 19.7999C25.3381 19.7999 25.6667 20.1284 25.6667 20.5332C25.6667 20.938 25.3381 21.2666 24.9333 21.2666ZM27.8667 21.2666C27.4619 21.2666 27.1333 20.938 27.1333 20.5332C27.1333 20.1284 27.4619 19.7999 27.8667 19.7999C28.2715 19.7999 28.6 20.1284 28.6 20.5332C28.6 20.938 28.2715 21.2666 27.8667 21.2666ZM30.8 21.2666C30.3952 21.2666 30.0667 20.938 30.0667 20.5332C30.0667 20.1284 30.3952 19.7999 30.8 19.7999C31.2048 19.7999 31.5333 20.1284 31.5333 20.5332C31.5333 20.938 31.2048 21.2666 30.8 21.2666ZM33.7333 21.2666C33.3285 21.2666 33 20.938 33 20.5332C33 20.1284 33.3285 19.7999 33.7333 19.7999C34.1381 19.7999 34.4667 20.1284 34.4667 20.5332C34.4667 20.938 34.1381 21.2666 33.7333 21.2666ZM36.6667 21.2666C36.2619 21.2666 35.9333 20.938 35.9333 20.5332C35.9333 20.1284 36.2619 19.7999 36.6667 19.7999C37.0715 19.7999 37.4 20.1284 37.4 20.5332C37.4 20.938 37.0715 21.2666 36.6667 21.2666Z" fill="white"/>
<path d="M40.6208 0H3.3792C1.5158 0 0 1.5158 0 3.3792V12.0201C0 12.7343 0.230267 13.3907 0.612333 13.9333H43.3869C43.7697 13.3907 44 12.7343 44 12.0208V3.3792C44 1.5158 42.4842 0 40.6208 0ZM7.7 11C5.8806 11 4.4 9.5194 4.4 7.7C4.4 5.8806 5.8806 4.4 7.7 4.4C9.5194 4.4 11 5.8806 11 7.7C11 9.5194 9.5194 11 7.7 11ZM24.9333 7.33333C24.5285 7.33333 24.2 7.0048 24.2 6.6C24.2 6.1952 24.5285 5.86667 24.9333 5.86667C25.3381 5.86667 25.6667 6.1952 25.6667 6.6C25.6667 7.0048 25.3381 7.33333 24.9333 7.33333ZM26.4 9.53333C25.9952 9.53333 25.6667 9.2048 25.6667 8.8C25.6667 8.3952 25.9952 8.06667 26.4 8.06667C26.8048 8.06667 27.1333 8.3952 27.1333 8.8C27.1333 9.2048 26.8048 9.53333 26.4 9.53333ZM27.8667 7.33333C27.4619 7.33333 27.1333 7.0048 27.1333 6.6C27.1333 6.1952 27.4619 5.86667 27.8667 5.86667C28.2715 5.86667 28.6 6.1952 28.6 6.6C28.6 7.0048 28.2715 7.33333 27.8667 7.33333ZM29.3333 9.53333C28.9285 9.53333 28.6 9.2048 28.6 8.8C28.6 8.3952 28.9285 8.06667 29.3333 8.06667C29.7381 8.06667 30.0667 8.3952 30.0667 8.8C30.0667 9.2048 29.7381 9.53333 29.3333 9.53333ZM30.8 7.33333C30.3952 7.33333 30.0667 7.0048 30.0667 6.6C30.0667 6.1952 30.3952 5.86667 30.8 5.86667C31.2048 5.86667 31.5333 6.1952 31.5333 6.6C31.5333 7.0048 31.2048 7.33333 30.8 7.33333ZM32.2667 9.53333C31.8619 9.53333 31.5333 9.2048 31.5333 8.8C31.5333 8.3952 31.8619 8.06667 32.2667 8.06667C32.6715 8.06667 33 8.3952 33 8.8C33 9.2048 32.6715 9.53333 32.2667 9.53333ZM33.7333 7.33333C33.3285 7.33333 33 7.0048 33 6.6C33 6.1952 33.3285 5.86667 33.7333 5.86667C34.1381 5.86667 34.4667 6.1952 34.4667 6.6C34.4667 7.0048 34.1381 7.33333 33.7333 7.33333ZM35.2 9.53333C34.7952 9.53333 34.4667 9.2048 34.4667 8.8C34.4667 8.3952 34.7952 8.06667 35.2 8.06667C35.6048 8.06667 35.9333 8.3952 35.9333 8.8C35.9333 9.2048 35.6048 9.53333 35.2 9.53333ZM36.6667 7.33333C36.2619 7.33333 35.9333 7.0048 35.9333 6.6C35.9333 6.1952 36.2619 5.86667 36.6667 5.86667C37.0715 5.86667 37.4 6.1952 37.4 6.6C37.4 7.0048 37.0715 7.33333 36.6667 7.33333ZM38.1333 9.53333C37.7285 9.53333 37.4 9.2048 37.4 8.8C37.4 8.3952 37.7285 8.06667 38.1333 8.06667C38.5381 8.06667 38.8667 8.3952 38.8667 8.8C38.8667 9.2048 38.5381 9.53333 38.1333 9.53333Z" fill="white"/>
<path d="M24.2301 34.6142C24.2191 34.5651 24.2 34.5189 24.2 34.4668C24.2 34.3796 24.222 34.2989 24.2499 34.2212C24.4083 32.434 24.9986 30.773 25.9116 29.3335H0.612333C0.230267 29.8762 0 30.5325 0 31.246V39.8869C0 41.751 1.5158 43.2668 3.3792 43.2668H27.7464C25.5721 41.256 24.2 38.3887 24.2 35.2002C24.2 35.0022 24.2191 34.8093 24.2301 34.6142ZM7.7 38.8668C5.8806 38.8668 4.4 37.3862 4.4 35.5668C4.4 33.7474 5.8806 32.2668 7.7 32.2668C9.5194 32.2668 11 33.7474 11 35.5668C11 37.3862 9.5194 38.8668 7.7 38.8668Z" fill="white"/>
<path d="M31.3028 33.7676V36.3257H30.6976V33.7676H31.3028ZM32.4729 34.8604V35.2715H31.1374V34.8604H32.4729ZM32.6141 33.7676V34.1805H31.1374V33.7676H32.6141Z" fill="white"/>
<path d="M32.9652 33.7676H34.0606C34.2852 33.7676 34.4782 33.7969 34.6396 33.8554C34.8023 33.914 34.9274 34.0007 35.0148 34.1155C35.1022 34.2302 35.1459 34.3714 35.1459 34.5389C35.1459 34.6759 35.119 34.7936 35.0652 34.892C35.0128 34.9893 34.9381 35.0707 34.8413 35.1363C34.7458 35.2007 34.6335 35.2522 34.5044 35.2909L34.3128 35.3787H33.3606L33.3565 34.9676H34.0646C34.1709 34.9676 34.259 34.9512 34.3289 34.9184C34.3988 34.8856 34.4513 34.8399 34.4863 34.7813C34.5226 34.7228 34.5407 34.6548 34.5407 34.5775C34.5407 34.4955 34.5232 34.4247 34.4883 34.3649C34.4533 34.3052 34.4002 34.2595 34.3289 34.2279C34.2576 34.1963 34.1682 34.1805 34.0606 34.1805H33.5704V36.3257H32.9652V33.7676ZM34.6073 36.3257L33.9375 35.1854L34.577 35.1819L35.2549 36.3011V36.3257H34.6073Z" fill="white"/>
<path d="M37.5829 35.9146V36.3257H36.0195V35.9146H37.5829ZM36.2172 33.7676V36.3257H35.6119V33.7676H36.2172ZM37.3792 34.8095V35.21H36.0195V34.8095H37.3792ZM37.5809 33.7676V34.1805H36.0195V33.7676H37.5809Z" fill="white"/>
<path d="M39.9069 35.9146V36.3257H38.3435V35.9146H39.9069ZM38.5412 33.7676V36.3257H37.936V33.7676H38.5412ZM39.7032 34.8095V35.21H38.3435V34.8095H39.7032ZM39.9049 33.7676V34.1805H38.3435V33.7676H39.9049Z" fill="white"/>
</g>
<defs>
<clipPath id="clip0_455_308">
<rect width="44" height="44" fill="white"/>
</clipPath>
</defs>
</svg>
