<svg width="66" height="65" viewBox="0 0 66 65" fill="none" xmlns="http://www.w3.org/2000/svg">
<g clip-path="url(#clip0_24_8)">
<path d="M59.8716 23.4096C59.4473 22.3969 59.9307 21.2296 60.9565 20.8085C61.9771 20.3875 63.1533 20.8672 63.5776 21.8852C64.3726 23.772 64.9849 25.7388 65.3931 27.7749C65.7959 29.763 66.0054 31.8204 66.0054 33.9258C66.0054 41.8995 62.9976 49.1751 58.0454 54.7023C53.0396 60.2882 46.0464 64.0832 38.1616 64.9947C37.0605 65.1173 36.0669 64.3337 35.938 63.2411C35.8145 62.1484 36.604 61.1624 37.7051 61.0344C44.5747 60.2403 50.6763 56.9303 55.0483 52.0533C59.3667 47.2349 61.9878 40.8868 61.9878 33.9258C61.9878 32.0869 61.8052 30.2907 61.4561 28.5531C61.0908 26.7569 60.5591 25.0406 59.8716 23.4096ZM45.8154 26.4157C45.8047 26.4797 45.7778 26.5437 45.7456 26.6023C45.7026 26.7462 45.6704 26.9114 45.6597 27.098C45.6597 27.114 45.6597 27.1353 45.6597 27.1513L44.8271 39.2505C44.9561 39.6396 45.1279 39.9381 45.3428 40.13C45.5415 40.3112 45.7939 40.4071 46.1108 40.4178C46.1323 40.4178 46.1592 40.4178 46.1807 40.4178L49.6772 40.6576C49.6826 40.6576 49.6934 40.6576 49.7041 40.6576C50.2466 40.7216 50.6494 40.6043 50.9341 40.3218C51.2563 40.002 51.4658 39.4637 51.5786 38.7335V38.7228L53.394 27.8815C53.394 27.8655 53.394 27.8442 53.3994 27.8282C53.5176 27.2153 53.4048 26.7995 53.1147 26.5437C52.7764 26.2505 52.2017 26.0959 51.439 26.0426C51.4229 26.0426 51.4067 26.0426 51.3853 26.0426L47.4482 25.7761V25.7708C46.8467 25.7282 46.3955 25.8188 46.1108 26.0426C45.9819 26.1386 45.8906 26.2612 45.8154 26.4157ZM41.0405 39.5383C40.96 39.4531 40.9116 39.3465 40.8901 39.2292L35.9648 28.8143C35.4116 27.7376 34.853 27.6736 34.2837 27.9561C33.8809 28.1587 33.4512 28.4998 33.0161 28.8409C32.7529 29.0488 32.4951 29.2513 32.2749 29.4112L31.2544 30.1361L31.249 30.1414C30.5078 30.6531 29.6968 30.9036 28.9395 30.9143C28.4399 30.925 27.9673 30.829 27.543 30.6318C27.1079 30.4346 26.7319 30.1414 26.4634 29.7524C26.1733 29.3366 25.9961 28.8196 25.9854 28.228C25.9854 28.228 26.1196 27.8602 26.1465 27.8335L29.4658 24.4223C28.8213 24.369 28.2412 24.417 27.6934 24.5449C26.8555 24.7421 26.0605 25.1312 25.1904 25.6429C25.0884 25.7122 24.9648 25.7442 24.8359 25.7388L21.3018 25.499L20.8452 32.1242L20.5659 36.3616L22.623 36.5002C22.8218 36.5109 23.0044 36.6281 23.0903 36.8147L25.3408 41.4092C25.6685 42.0808 25.9585 42.6564 26.3452 43.0508C26.7051 43.4239 27.1992 43.6691 27.978 43.7437C28.2681 43.7704 28.5527 43.7437 28.8213 43.6531C28.9878 43.5998 29.1543 43.5199 29.3208 43.4133L27.876 40.2312C27.7471 39.9487 27.876 39.6183 28.1606 39.4957C28.4453 39.3678 28.7783 39.4957 28.9019 39.7782L30.4702 43.2427C31.1147 43.6265 31.7163 43.7704 32.2695 43.6958C32.7744 43.6212 33.2632 43.36 33.7412 42.9069L31.4263 38.6909C31.2812 38.4244 31.3779 38.0832 31.6519 37.934C31.9204 37.7901 32.2642 37.886 32.4146 38.1578L34.853 42.5978C35.3203 42.827 35.7769 42.9016 36.2227 42.811C36.647 42.7257 37.0874 42.4859 37.5332 42.0861L35.3794 37.2944C35.2505 37.0119 35.3794 36.6761 35.6641 36.5535C35.9487 36.4256 36.2871 36.5535 36.4106 36.8413L38.645 41.7983C38.9673 42.0115 39.3486 42.0861 39.7192 42.0541C40.0469 42.0221 40.3691 41.9049 40.6377 41.7237C40.8955 41.5478 41.1104 41.3079 41.2178 41.0308C41.3413 40.7269 41.3574 40.3645 41.2178 39.9594L41.0405 39.5383ZM43.8604 39.8795L42.3618 39.7782C42.5229 40.3805 42.4746 40.9348 42.2812 41.4198C42.0825 41.9155 41.728 42.326 41.293 42.6244C40.8687 42.9123 40.3638 43.0988 39.8374 43.1468C39.3271 43.1947 38.8062 43.1148 38.3281 42.8803C37.7212 43.4293 37.0928 43.7597 36.459 43.893C35.8198 44.0209 35.186 43.941 34.5576 43.6745C33.9023 44.3034 33.1987 44.6818 32.4414 44.7884C31.6733 44.9004 30.8784 44.7298 30.0513 44.2767C29.772 44.4633 29.4819 44.6072 29.1812 44.7085C28.7568 44.8524 28.3218 44.9004 27.8706 44.8524C26.791 44.7458 26.0874 44.3834 25.5449 43.829C25.0239 43.3014 24.6963 42.6511 24.3257 41.8942L22.2202 37.5929L20.3672 37.4649C20.2222 37.9926 20.002 38.0992 19.7012 38.4403C19.0244 39.1919 18.439 39.5863 17.397 39.5277C15.8823 39.4424 13.1968 39.6396 12.3267 38.499C11.8862 37.918 11.623 37.0119 11.5747 35.6954C11.5747 35.6794 11.5747 35.6634 11.5693 35.6474L11.4458 25.3178C11.3545 24.1984 11.5962 23.4256 12.0796 22.9246C12.5684 22.4129 13.272 22.2157 14.1099 22.237C14.1367 22.237 14.1582 22.237 14.1797 22.237L18.4551 22.5301V22.5355C19.2607 22.5781 19.9482 22.7647 20.4531 23.1378C20.8613 23.4362 21.1353 23.8413 21.2588 24.3743L24.7446 24.6089C25.6631 24.0812 26.5117 23.6814 27.4355 23.4576C28.3433 23.2444 29.3047 23.2124 30.4326 23.4256L31.7056 22.125C31.7271 22.0984 31.7485 22.0771 31.7808 22.0558C32.1353 21.7626 32.5273 21.5334 32.9409 21.3522C33.376 21.1603 33.8379 21.0271 34.3159 20.9364C35.0732 20.7979 35.8628 20.7765 36.6255 20.8405C37.4902 20.9151 38.3228 21.1017 39.0371 21.3362C40.4014 21.7946 41.5454 22.7114 42.6519 23.6015C42.8989 23.7987 43.146 24.0012 43.4414 24.2198C43.4521 24.2251 43.4629 24.2358 43.4736 24.2411L45.085 25.4777C45.1763 25.3657 45.2837 25.2645 45.4019 25.1738C45.9175 24.7741 46.6211 24.6089 47.5127 24.6675V24.6622L51.4497 24.9287C51.4658 24.9287 51.4819 24.9287 51.4927 24.934C52.5024 24.9979 53.3081 25.2378 53.8452 25.7122C54.4414 26.2399 54.6885 26.9967 54.4897 28.0414C54.4897 28.0521 54.4844 28.0574 54.4844 28.0681L52.6689 38.8987C52.5239 39.8688 52.207 40.615 51.7075 41.1107C51.1758 41.6437 50.4722 41.8729 49.5752 41.7716L46.0786 41.5318H46.0732C45.4663 41.5211 44.9614 41.3239 44.5532 40.9508C44.2739 40.6843 44.0376 40.3218 43.8604 39.8795ZM15.748 33.7126C16.167 33.7392 16.4839 34.1017 16.457 34.5228C16.4302 34.9385 16.0649 35.2583 15.6406 35.2263C15.2217 35.1997 14.9048 34.8372 14.9316 34.4215C14.9585 34.0057 15.3237 33.6806 15.748 33.7126ZM48.8984 35.9619C49.3174 35.9885 49.6343 36.351 49.6074 36.7667C49.5806 37.1825 49.2153 37.5023 48.791 37.4703C48.3721 37.4436 48.0498 37.0812 48.082 36.6654C48.1089 36.2497 48.4741 35.9352 48.8984 35.9619ZM19.814 30.7544L20.2007 25.1898C20.2222 24.8967 20.0342 24.5289 19.7979 24.353C19.4863 24.1238 19.0029 24.0066 18.4014 23.9746L14.1099 23.6868C13.7178 23.6601 13.1807 23.7347 12.896 24.0279C12.6328 24.2997 12.5093 24.7954 12.5737 25.5789C12.5737 25.5949 12.5737 25.6109 12.5737 25.6269L12.6973 35.3009V35.3169C12.7349 36.3883 12.9229 37.0865 13.2236 37.4863C13.4922 37.8434 18.063 38.5736 18.8525 37.6888C19.1641 37.337 19.3467 36.772 19.4165 36.0258H19.4111L19.7979 30.7437L19.814 30.7544ZM57.4438 12.936L44.4351 15.2493L47.1313 11.4543C43.0225 7.10496 38.4517 5.54326 32.9893 7.15826C38.7793 0.0373107 46.4761 0.0266504 52.4971 3.87495L55.2417 0L57.4438 12.936ZM21.0386 48.7327L18.3423 52.5277C22.4512 56.877 27.022 58.4387 32.4844 56.8237C26.689 63.9393 18.9922 63.95 12.9712 60.1017L10.2212 63.9766L8.02441 51.0459L21.0386 48.7327ZM6.71924 43.4613C7.20264 44.4526 6.78369 45.6412 5.78467 46.1156C4.78564 46.5953 3.58789 46.1796 3.10986 45.1882C2.1001 43.1095 1.31592 40.9028 0.789551 38.5896C0.273926 36.335 0 34.0111 0 31.6392C0 23.8307 2.88965 16.6831 7.66992 11.1984C12.5093 5.6392 19.2876 1.7909 26.9629 0.682247C28.0586 0.527675 29.0737 1.28454 29.2295 2.37187C29.3853 3.4592 28.6226 4.46658 27.5269 4.62116C20.8345 5.5859 14.9209 8.94383 10.6938 13.7942C6.53662 18.5806 4.01758 24.8114 4.01758 31.6392C4.01758 33.7446 4.25391 35.7806 4.69434 37.7208C5.15625 39.7196 5.83838 41.6437 6.71924 43.4613Z" fill="white"/>
</g>
<defs>
<clipPath id="clip0_24_8">
<rect width="66" height="65" fill="white"/>
</clipPath>
</defs>
</svg>
