<svg width="55" height="44" viewBox="0 0 55 44" fill="none" xmlns="http://www.w3.org/2000/svg">
<path fill-rule="evenodd" clip-rule="evenodd" d="M0 5C0 2.23857 2.23858 0 5 0H21.95C24.7114 0 26.95 2.23858 26.95 5V21.45H0V5ZM16.0965 9.20346H18.1499V7.15012H16.0965V8.17678V8.76346V9.20346ZM10.3765 9.20346H9.34988V7.15012H11.4032V8.17678V9.20346H10.3765ZM10.3765 9.20346C10.4499 9.20346 10.5232 9.26212 10.5232 9.35012C10.5232 9.42346 10.4499 9.49678 10.3765 9.49678C10.2885 9.49678 10.2299 9.42346 10.2299 9.35012C10.2299 9.26212 10.2885 9.20346 10.3765 9.20346ZM11.4032 8.17678C11.4032 8.25012 11.4619 8.32346 11.5499 8.32344C11.6232 8.32344 11.6965 8.25012 11.6965 8.17678C11.6965 8.08878 11.6232 8.03012 11.5499 8.03012C11.4619 8.03012 11.4032 8.08878 11.4032 8.17678ZM16.0965 14.9235V15.9501H18.1499V13.8968H17.1232C17.1965 13.8968 17.2699 13.8235 17.2699 13.7501C17.2699 13.6768 17.1965 13.6035 17.1232 13.6035C17.0499 13.6035 16.9765 13.6768 16.9765 13.7501C16.9765 13.8235 17.0499 13.8968 17.1232 13.8968H16.0965V14.0435V14.6301V14.9235ZM16.0965 14.9235C16.0965 14.9968 16.0232 15.0701 15.9499 15.0701C15.8765 15.0701 15.8032 14.9968 15.8032 14.9235C15.8032 14.8501 15.8766 14.7768 15.9499 14.7768C16.0232 14.7768 16.0965 14.8501 16.0965 14.9235ZM11.4032 15.9501H9.34988V13.8968H11.4032V15.9501ZM15.3632 14.7768C15.2899 14.7768 15.2165 14.8501 15.2165 14.9235C15.2165 14.9968 15.2899 15.0701 15.3632 15.0701C15.4365 15.0701 15.5099 14.9968 15.5099 14.9235C15.5099 14.8501 15.4365 14.7768 15.3632 14.7768ZM14.7765 14.7768C14.7032 14.7768 14.6299 14.8501 14.6299 14.9235C14.6299 14.9968 14.7032 15.0701 14.7765 15.0701C14.8499 15.0701 14.9232 14.9968 14.9232 14.9235C14.9232 14.8501 14.8499 14.7768 14.7765 14.7768ZM14.1899 14.7768C14.1166 14.7768 14.0432 14.8501 14.0432 14.9235C14.0432 14.9968 14.1165 15.0701 14.1899 15.0701C14.2632 15.0701 14.3365 14.9968 14.3365 14.9235C14.3365 14.8501 14.2632 14.7768 14.1899 14.7768ZM13.6032 14.7768C13.5152 14.7768 13.4565 14.8501 13.4565 14.9235C13.4565 14.9968 13.5152 15.0701 13.6032 15.0701C13.6765 15.0701 13.7499 14.9968 13.7499 14.9235C13.7499 14.8501 13.6765 14.7768 13.6032 14.7768ZM13.0165 14.7768C12.9285 14.7768 12.8699 14.8501 12.8699 14.9235C12.8699 14.9968 12.9285 15.0701 13.0165 15.0701C13.0899 15.0701 13.1632 14.9968 13.1632 14.9235C13.1632 14.8501 13.0899 14.7768 13.0165 14.7768ZM12.4299 14.7768C12.3419 14.7768 12.2832 14.8501 12.2832 14.9235C12.2832 14.9968 12.3419 15.0701 12.4299 15.0701C12.5032 15.0701 12.5765 14.9968 12.5765 14.9235C12.5765 14.8501 12.5032 14.7768 12.4299 14.7768ZM11.8432 14.7768C11.7552 14.7768 11.6965 14.8501 11.6965 14.9235C11.6965 14.9968 11.7552 15.0701 11.8432 15.0701C11.9165 15.0701 11.9899 14.9968 11.9899 14.9235C11.9899 14.8501 11.9165 14.7768 11.8432 14.7768ZM10.3765 13.3101C10.2885 13.3101 10.2299 13.3834 10.2299 13.4568C10.2299 13.5301 10.2885 13.6035 10.3765 13.6034C10.4499 13.6034 10.5232 13.5301 10.5232 13.4568C10.5232 13.3835 10.4499 13.3101 10.3765 13.3101ZM17.1232 13.0168C17.0499 13.0168 16.9765 13.0901 16.9765 13.1635C16.9765 13.2368 17.0499 13.3101 17.1232 13.3101C17.1965 13.3101 17.2699 13.2368 17.2699 13.1635C17.2699 13.0901 17.1965 13.0168 17.1232 13.0168ZM10.3765 12.7235C10.2885 12.7235 10.2299 12.7968 10.2299 12.8701C10.2299 12.9435 10.2885 13.0168 10.3765 13.0168C10.4499 13.0168 10.5232 12.9435 10.5232 12.8701C10.5232 12.7968 10.4499 12.7235 10.3765 12.7235ZM17.1232 12.4301C17.0499 12.4301 16.9765 12.5034 16.9765 12.5768C16.9765 12.6501 17.0499 12.7235 17.1232 12.7234C17.1965 12.7234 17.2699 12.6501 17.2699 12.5768C17.2699 12.5035 17.1965 12.4301 17.1232 12.4301ZM10.3765 12.1368C10.2885 12.1368 10.2299 12.2101 10.2299 12.2835C10.2299 12.3568 10.2885 12.4301 10.3765 12.4301C10.4499 12.4301 10.5232 12.3568 10.5232 12.2835C10.5232 12.2101 10.4499 12.1368 10.3765 12.1368ZM17.1232 11.8435C17.0499 11.8435 16.9765 11.9168 16.9765 11.9901C16.9765 12.0635 17.0499 12.1368 17.1232 12.1368C17.1965 12.1368 17.2699 12.0635 17.2699 11.9901C17.2699 11.9168 17.1965 11.8435 17.1232 11.8435ZM10.3765 11.5501C10.2885 11.5501 10.2299 11.6234 10.2299 11.6968C10.2299 11.7701 10.2885 11.8435 10.3765 11.8434C10.4499 11.8434 10.5232 11.7701 10.5232 11.6968C10.5232 11.6235 10.4499 11.5501 10.3765 11.5501ZM17.1232 11.2568C17.0499 11.2568 16.9765 11.3155 16.9765 11.4035C16.9765 11.4768 17.0499 11.5501 17.1232 11.5501C17.1965 11.5501 17.2699 11.4768 17.2699 11.4035C17.2699 11.3155 17.1965 11.2568 17.1232 11.2568ZM10.3765 10.9635C10.2885 10.9635 10.2299 11.0221 10.2299 11.1101C10.2299 11.1835 10.2885 11.2568 10.3765 11.2568C10.4499 11.2568 10.5232 11.1835 10.5232 11.1101C10.5232 11.0221 10.4499 10.9635 10.3765 10.9635ZM17.1232 10.6701C17.0499 10.6701 16.9765 10.7288 16.9765 10.8168C16.9765 10.8901 17.0499 10.9635 17.1232 10.9634C17.1965 10.9634 17.2699 10.8901 17.2699 10.8168C17.2699 10.7288 17.1965 10.6701 17.1232 10.6701ZM10.3765 10.3768C10.2885 10.3768 10.2299 10.4355 10.2299 10.5235C10.2299 10.5968 10.2885 10.6701 10.3765 10.6701C10.4499 10.6701 10.5232 10.5968 10.5232 10.5235C10.5232 10.4355 10.4499 10.3768 10.3765 10.3768ZM17.1232 10.0835C17.0499 10.0835 16.9765 10.1421 16.9765 10.2301C16.9765 10.3035 17.0499 10.3768 17.1232 10.3768C17.1965 10.3768 17.2699 10.3035 17.2699 10.2301C17.2699 10.1421 17.1965 10.0835 17.1232 10.0835ZM10.3765 9.79012C10.2885 9.79012 10.2299 9.84878 10.2299 9.93678C10.2299 10.0101 10.2885 10.0835 10.3765 10.0834C10.4499 10.0834 10.5232 10.0101 10.5232 9.93678C10.5232 9.84878 10.4499 9.79012 10.3765 9.79012ZM17.1232 9.4968C17.0499 9.4968 16.9765 9.55546 16.9765 9.64346C16.9765 9.71678 17.0499 9.79012 17.1232 9.79012C17.1965 9.79012 17.2699 9.7168 17.2699 9.64346C17.2699 9.55546 17.1965 9.4968 17.1232 9.4968ZM15.6565 8.03012C15.5832 8.03012 15.5099 8.08878 15.5099 8.17678C15.5099 8.25012 15.5832 8.32346 15.6565 8.32344C15.7299 8.32344 15.8032 8.25012 15.8032 8.17678C15.8032 8.08878 15.7299 8.03012 15.6565 8.03012ZM15.0699 8.03012C14.9966 8.03012 14.9232 8.08878 14.9232 8.17678C14.9232 8.25012 14.9965 8.32346 15.0699 8.32344C15.1432 8.32344 15.2165 8.25012 15.2165 8.17678C15.2165 8.08878 15.1432 8.03012 15.0699 8.03012ZM14.4832 8.03012C14.4099 8.03012 14.3365 8.08878 14.3365 8.17678C14.3365 8.25012 14.4099 8.32346 14.4832 8.32344C14.5565 8.32344 14.6299 8.25012 14.6299 8.17678C14.6299 8.08878 14.5565 8.03012 14.4832 8.03012ZM13.8965 8.03012C13.8232 8.03012 13.7499 8.08878 13.7499 8.17678C13.7499 8.25012 13.8232 8.32346 13.8965 8.32344C13.9699 8.32344 14.0432 8.25012 14.0432 8.17678C14.0432 8.08878 13.9699 8.03012 13.8965 8.03012ZM13.3099 8.03012C13.2219 8.03012 13.1632 8.08878 13.1632 8.17678C13.1632 8.25012 13.2219 8.32346 13.3099 8.32344C13.3832 8.32344 13.4565 8.25012 13.4565 8.17678C13.4565 8.08878 13.3832 8.03012 13.3099 8.03012ZM12.7232 8.03012C12.6352 8.03012 12.5765 8.08878 12.5765 8.17678C12.5765 8.25012 12.6352 8.32346 12.7232 8.32344C12.7965 8.32344 12.8699 8.25012 12.8699 8.17678C12.8699 8.08878 12.7965 8.03012 12.7232 8.03012ZM12.1365 8.03012C12.0485 8.03012 11.9899 8.08878 11.9899 8.17678C11.9899 8.25012 12.0485 8.32346 12.1365 8.32344C12.2099 8.32344 12.2832 8.25012 12.2832 8.17678C12.2832 8.08878 12.2099 8.03012 12.1365 8.03012Z" fill="white"/>
<path fill-rule="evenodd" clip-rule="evenodd" d="M5 43.9998C2.23858 43.9998 0 41.7612 0 38.9998V22.5498H26.95V38.9998C26.95 41.7612 24.7114 43.9998 21.95 43.9998H5ZM17.3515 30.8452C17.1891 30.9129 17.1125 31.1005 17.1797 31.2633C17.2886 31.5256 17.3728 31.8015 17.4306 32.0903C17.4859 32.3696 17.5148 32.6584 17.5148 32.954C17.5148 34.0731 17.0998 35.0937 16.416 35.8684C15.7238 36.6524 14.7577 37.1846 13.67 37.3123C13.4957 37.3328 13.3707 37.4914 13.3902 37.667C13.4107 37.8427 13.568 37.9687 13.7423 37.9489C14.9907 37.8024 16.098 37.1923 16.8906 36.2943C17.6747 35.4056 18.1509 34.236 18.1509 32.954C18.1509 32.6155 18.1177 32.2848 18.054 31.9652C17.9893 31.6378 17.8924 31.3216 17.7665 31.0183C17.6993 30.8546 17.5131 30.7775 17.3515 30.8452ZM14.9431 31.7766C14.9482 31.7672 14.9525 31.7569 14.9542 31.7466C14.9661 31.7218 14.9805 31.7021 15.0009 31.6867C15.046 31.6507 15.1175 31.6361 15.2127 31.643V31.6438L15.8361 31.6867H15.8446C15.9653 31.6952 16.0563 31.7201 16.1099 31.7672C16.1558 31.8083 16.1737 31.8752 16.155 31.9737C16.1541 31.9763 16.1541 31.9797 16.1541 31.9823L15.8667 33.7252V33.727C15.8488 33.8444 15.8156 33.9309 15.7646 33.9823C15.7196 34.0277 15.6558 34.0466 15.5699 34.0363H15.5656L15.012 33.9977H15.0009C14.9508 33.996 14.9108 33.9806 14.8793 33.9515C14.8453 33.9206 14.8181 33.8726 14.7977 33.8101L14.9295 31.8649V31.8563C14.9312 31.8263 14.9363 31.7998 14.9431 31.7766ZM14.1743 33.8067C14.1777 33.8255 14.1854 33.8426 14.1981 33.8564L14.2262 33.924C14.2483 33.9892 14.2458 34.0474 14.2262 34.0963C14.2092 34.1408 14.1752 34.1794 14.1344 34.2077C14.0918 34.2368 14.0408 34.2557 13.9889 34.2608C13.9303 34.266 13.8699 34.254 13.8189 34.2197L13.4651 33.4228C13.4455 33.3765 13.3919 33.3559 13.3469 33.3765C13.3018 33.3962 13.2814 33.4502 13.3018 33.4956L13.6428 34.266C13.5722 34.3302 13.5025 34.3688 13.4353 34.3825C13.3647 34.3971 13.2924 34.3851 13.2185 34.3482L12.8324 33.6344C12.8086 33.5907 12.7541 33.5753 12.7116 33.5984C12.6682 33.6224 12.6529 33.6773 12.6759 33.7201L13.0424 34.3979C12.9667 34.4708 12.8893 34.5127 12.8094 34.5247C12.7218 34.5367 12.6266 34.5136 12.5245 34.4519L12.2762 33.8949C12.2566 33.8495 12.2039 33.8289 12.1588 33.8495C12.1138 33.8692 12.0933 33.9223 12.1138 33.9677L12.3425 34.4793C12.3162 34.4965 12.2898 34.5093 12.2634 34.5179C12.2209 34.5325 12.1758 34.5367 12.1299 34.5325C12.0066 34.5205 11.9284 34.481 11.8714 34.4211C11.8102 34.3576 11.7642 34.2651 11.7124 34.1571L11.356 33.4185C11.3424 33.3885 11.3135 33.3696 11.282 33.3679L10.9563 33.3456L11.0006 32.6644L11.0728 31.5993L11.6324 31.6378C11.6528 31.6387 11.6724 31.6335 11.6885 31.6224C11.8263 31.5401 11.9522 31.4776 12.0848 31.4459C12.1716 31.4253 12.2634 31.4176 12.3655 31.4262L11.8399 31.9746C11.8357 31.9789 11.8144 32.038 11.8144 32.038C11.8161 32.1331 11.8442 32.2162 11.8901 32.2831C11.9326 32.3456 11.9921 32.3928 12.061 32.4245C12.1282 32.4562 12.2031 32.4716 12.2821 32.4699C12.4021 32.4682 12.5305 32.4279 12.6478 32.3456L12.6487 32.3448L12.8103 32.2282C12.8451 32.2025 12.8859 32.17 12.9276 32.1365L12.9348 32.1308C13.0012 32.0779 13.0667 32.0257 13.1283 31.9943C13.2185 31.9489 13.3069 31.9592 13.3945 32.1323L14.1743 33.8067ZM14.4073 33.8949L14.6446 33.9112C14.6727 33.9823 14.7101 34.0406 14.7543 34.0834C14.819 34.1434 14.8989 34.1751 14.995 34.1768H14.9958L15.5495 34.2154C15.6915 34.2317 15.8029 34.1948 15.8871 34.1091C15.9662 34.0294 16.0163 33.9095 16.0393 33.7535L16.3268 32.0123C16.3268 32.0114 16.327 32.0108 16.3272 32.0101C16.3274 32.0095 16.3276 32.0089 16.3276 32.008C16.3591 31.84 16.32 31.7184 16.2256 31.6335C16.1405 31.5573 16.0129 31.5187 15.8531 31.5084C15.8514 31.5076 15.8488 31.5076 15.8463 31.5076L15.2229 31.4647V31.4656C15.0817 31.4562 14.9703 31.4827 14.8887 31.547C14.87 31.5616 14.853 31.5778 14.8385 31.5958L14.5834 31.397C14.5817 31.3962 14.58 31.3945 14.5783 31.3936C14.5404 31.3651 14.5075 31.3383 14.4756 31.3123C14.4681 31.3062 14.4607 31.3002 14.4533 31.2942C14.2781 31.1511 14.0969 31.0037 13.8809 30.93C13.7678 30.8923 13.636 30.8623 13.4991 30.8503C13.3783 30.84 13.2533 30.8435 13.1334 30.8657C13.0577 30.8803 12.9846 30.9017 12.9157 30.9326C12.8502 30.9617 12.7881 30.9986 12.732 31.0457C12.7269 31.0491 12.7235 31.0525 12.7201 31.0568L12.5186 31.2659C12.34 31.2316 12.1877 31.2368 12.044 31.2711C11.8977 31.307 11.7634 31.3713 11.618 31.4562L11.066 31.4184C11.0465 31.3328 11.0031 31.2676 10.9385 31.2196C10.8585 31.1597 10.7497 31.1297 10.6221 31.1228V31.122L9.94518 31.0748H9.93412C9.80146 31.0714 9.69005 31.1031 9.61266 31.1854C9.53612 31.2659 9.49785 31.3902 9.51231 31.5701L9.53187 33.2308C9.53272 33.2334 9.53272 33.2359 9.53272 33.2385C9.54038 33.4502 9.58205 33.5959 9.65178 33.6893C9.76448 33.8393 10.0695 33.8453 10.3081 33.8501C10.3612 33.8512 10.4109 33.8521 10.4546 33.8546C10.6196 33.8641 10.7123 33.8007 10.8194 33.6798C10.8306 33.6669 10.8411 33.6561 10.8509 33.646C10.8828 33.6132 10.9073 33.5879 10.9249 33.523L11.2183 33.5436L11.5516 34.2351C11.6103 34.3568 11.6622 34.4613 11.7447 34.5462C11.8306 34.6353 11.942 34.6936 12.1129 34.7107C12.1843 34.7184 12.2532 34.7107 12.3204 34.6876C12.368 34.6713 12.414 34.6481 12.4582 34.6181C12.5891 34.691 12.715 34.7184 12.8366 34.7004C12.9565 34.6833 13.0679 34.6224 13.1717 34.5213C13.2712 34.5642 13.3715 34.577 13.4727 34.5564C13.5731 34.535 13.6726 34.4819 13.7687 34.3936C13.8444 34.4313 13.9269 34.4442 14.0076 34.4365C14.091 34.4288 14.1709 34.3988 14.2381 34.3525C14.307 34.3045 14.3631 34.2385 14.3946 34.1588C14.4252 34.0809 14.4329 33.9917 14.4073 33.8949ZM10.3058 33.05C10.31 32.9823 10.2598 32.924 10.1935 32.9198C10.1263 32.9146 10.0685 32.9669 10.0642 33.0337C10.06 33.1006 10.1102 33.1588 10.1765 33.1631C10.2437 33.1683 10.3015 33.1168 10.3058 33.05ZM15.5546 33.4108C15.5588 33.3439 15.5086 33.2857 15.4423 33.2814C15.3751 33.2771 15.3173 33.3276 15.313 33.3945C15.3079 33.4613 15.359 33.5196 15.4253 33.5239C15.4925 33.529 15.5503 33.4776 15.5546 33.4108ZM10.8985 31.5496L10.8373 32.4442L10.8347 32.4425L10.7735 33.2916H10.7743C10.7633 33.4116 10.7344 33.5024 10.685 33.559C10.56 33.7013 9.83632 33.5839 9.7938 33.5264C9.74618 33.4622 9.71641 33.3499 9.71046 33.1777V33.1751L9.6909 31.6198V31.6121C9.6807 31.4861 9.70026 31.4065 9.74193 31.3627C9.787 31.3156 9.87204 31.3036 9.93412 31.3079L10.6136 31.3542C10.7089 31.3593 10.7854 31.3782 10.8347 31.415C10.8721 31.4433 10.9019 31.5024 10.8985 31.5496ZM14.7356 29.9514L16.7953 29.5795L16.4467 27.4998L16.0121 28.1228C15.0588 27.5041 13.8401 27.5058 12.9234 28.6506C13.7882 28.391 14.5119 28.6421 15.1625 29.3413L14.7356 29.9514ZM10.6043 35.9446L11.0312 35.3345L8.97059 35.7064L9.31842 37.7853L9.75383 37.1623C10.7072 37.781 11.9258 37.7793 12.8434 36.6353C11.9785 36.8949 11.2548 36.6439 10.6043 35.9446ZM8.61597 34.9138C8.77414 34.8375 8.84048 34.6464 8.76394 34.487C8.62447 34.1948 8.51647 33.8855 8.44333 33.5641C8.3736 33.2522 8.33618 32.9249 8.33618 32.5864C8.33618 31.4887 8.73503 30.487 9.39325 29.7175C10.0625 28.9377 10.9989 28.3978 12.0585 28.2427C12.232 28.2179 12.3527 28.0559 12.3281 27.8811C12.3034 27.7063 12.1427 27.5846 11.9692 27.6095C10.7539 27.7877 9.6807 28.4064 8.91446 29.3002C8.15759 30.1819 7.70006 31.331 7.70006 32.5864C7.70006 32.9677 7.74343 33.3413 7.82507 33.7038C7.90841 34.0757 8.03258 34.4305 8.19246 34.7647C8.26814 34.9241 8.45779 34.9909 8.61597 34.9138Z" fill="white"/>
<path fill-rule="evenodd" clip-rule="evenodd" d="M33.0498 43.9998C30.2884 43.9998 28.0498 41.7612 28.0498 38.9998V22.5498H54.9998V38.9998C54.9998 41.7612 52.7612 43.9998 49.9998 43.9998H33.0498ZM36.525 30.4853C36.525 30.483 36.5253 30.4821 36.5256 30.4816C36.5259 30.4808 36.5266 30.4795 36.5279 30.4783C36.5291 30.477 36.5303 30.4763 36.5312 30.476C36.5316 30.4758 36.5326 30.4754 36.5349 30.4754C36.5361 30.4754 36.537 30.4755 36.5376 30.4756C36.538 30.4758 36.5383 30.4759 36.5385 30.476C36.5391 30.4762 36.5398 30.4766 36.5406 30.4772C36.541 30.4775 36.5414 30.4779 36.5418 30.4783C36.5431 30.4795 36.5438 30.4808 36.5442 30.4816C36.5444 30.4821 36.5447 30.483 36.5447 30.4853C36.5447 30.4875 36.5444 30.4885 36.5442 30.4889C36.5438 30.4898 36.5431 30.491 36.5418 30.4922C36.5406 30.4935 36.5394 30.4942 36.5385 30.4946C36.5381 30.4948 36.5371 30.4951 36.5349 30.4951C36.5326 30.4951 36.5316 30.4948 36.5312 30.4946C36.5303 30.4942 36.5291 30.4935 36.5279 30.4922C36.5266 30.491 36.5259 30.4898 36.5256 30.4889C36.5253 30.4885 36.525 30.4875 36.525 30.4853ZM36.5349 29.4754C35.9771 29.4754 35.525 29.9275 35.525 30.4853C35.525 31.043 35.9771 31.4951 36.5349 31.4951C36.9105 31.4951 37.2383 31.29 37.4122 30.9856H46.8747C47.0487 31.29 47.3764 31.4951 47.7521 31.4951C48.3098 31.4951 48.762 31.043 48.762 30.4853C48.762 29.9275 48.3098 29.4754 47.7521 29.4754C47.3761 29.4754 47.0481 29.6809 46.8743 29.9856H37.4127C37.2388 29.6809 36.9108 29.4754 36.5349 29.4754ZM47.7428 30.4816C47.7426 30.4821 47.7422 30.483 47.7422 30.4853C47.7422 30.4875 47.7426 30.4885 47.7428 30.4889C47.743 30.4894 47.7433 30.4901 47.7438 30.4908C47.7442 30.4912 47.7446 30.4917 47.7451 30.4922C47.7464 30.4935 47.7476 30.4942 47.7484 30.4946C47.7489 30.4948 47.7498 30.4951 47.7521 30.4951C47.7544 30.4951 47.7553 30.4948 47.7558 30.4946C47.7562 30.4944 47.7568 30.4941 47.7575 30.4936C47.758 30.4932 47.7585 30.4928 47.7591 30.4922C47.7603 30.491 47.761 30.4898 47.7614 30.4889C47.7616 30.4885 47.762 30.4875 47.762 30.4853C47.762 30.483 47.7616 30.4821 47.7614 30.4816C47.761 30.4808 47.7603 30.4795 47.7591 30.4783C47.7578 30.477 47.7566 30.4763 47.7558 30.476C47.7553 30.4758 47.7544 30.4754 47.7521 30.4754C47.7498 30.4754 47.7489 30.4758 47.7484 30.476C47.7476 30.4763 47.7464 30.477 47.7451 30.4783C47.7438 30.4795 47.7431 30.4808 47.7428 30.4816ZM36.5249 36.4342C36.5249 36.4319 36.5252 36.431 36.5254 36.4305C36.5258 36.4297 36.5265 36.4285 36.5278 36.4272C36.529 36.426 36.5302 36.4253 36.5311 36.4249C36.5315 36.4247 36.5325 36.4243 36.5347 36.4243C36.537 36.4243 36.5379 36.4247 36.5384 36.4249C36.5389 36.4251 36.5395 36.4254 36.5402 36.4259C36.5407 36.4263 36.5412 36.4267 36.5417 36.4272C36.543 36.4285 36.5437 36.4297 36.544 36.4305C36.5442 36.431 36.5446 36.4319 36.5446 36.4342C36.5446 36.4354 36.5445 36.4362 36.5444 36.4367C36.5443 36.4373 36.5441 36.4377 36.544 36.4379C36.5438 36.4384 36.5434 36.4391 36.5428 36.4399C36.5425 36.4403 36.5422 36.4408 36.5417 36.4412C36.5405 36.4424 36.5393 36.4432 36.5384 36.4435C36.5381 36.4436 36.5376 36.4439 36.5366 36.444C36.5361 36.444 36.5355 36.4441 36.5347 36.4441C36.5335 36.4441 36.5326 36.444 36.532 36.4438C36.5316 36.4437 36.5313 36.4436 36.5311 36.4435C36.5302 36.4432 36.529 36.4424 36.5278 36.4412C36.5265 36.4399 36.5258 36.4387 36.5254 36.4379C36.5252 36.4374 36.5249 36.4365 36.5249 36.4342ZM36.5347 35.4243C35.977 35.4243 35.5249 35.8765 35.5249 36.4342C35.5249 36.9919 35.977 37.4441 36.5347 37.4441C36.9104 37.4441 37.2382 37.2389 37.4121 36.9346H46.8746C47.0485 37.2389 47.3763 37.4441 47.752 37.4441C48.3097 37.4441 48.7618 36.9919 48.7618 36.4342C48.7618 35.8765 48.3097 35.4243 47.752 35.4243C47.376 35.4243 47.048 35.6298 46.8742 35.9346H37.4126C37.2387 35.6298 36.9107 35.4243 36.5347 35.4243ZM47.7427 36.4305L47.7423 36.4317L47.7421 36.4342C47.7421 36.4365 47.7425 36.4374 47.7427 36.4379C47.743 36.4387 47.7437 36.4399 47.745 36.4412C47.7463 36.4424 47.7475 36.4432 47.7483 36.4435C47.7488 36.4437 47.7497 36.4441 47.752 36.4441C47.7543 36.4441 47.7552 36.4437 47.7557 36.4435C47.7561 36.4433 47.7568 36.443 47.7574 36.4425C47.7579 36.4421 47.7584 36.4417 47.759 36.4412C47.7602 36.4399 47.7609 36.4387 47.7613 36.4379C47.7615 36.4374 47.7618 36.4365 47.7618 36.4342C47.7618 36.4319 47.7615 36.431 47.7613 36.4305C47.7609 36.4297 47.7602 36.4285 47.759 36.4272C47.7583 36.4266 47.7577 36.4261 47.7572 36.4258C47.7566 36.4254 47.7561 36.4251 47.7557 36.4249C47.7552 36.4247 47.7543 36.4243 47.752 36.4243L47.7502 36.4244C47.7492 36.4245 47.7486 36.4248 47.7483 36.4249C47.7475 36.4253 47.7463 36.426 47.745 36.4272C47.7437 36.4285 47.743 36.4297 47.7427 36.4305ZM42.1435 35.244V31.505H43.8431V35.244H42.1435ZM40.104 32.5249V35.2442H41.8035V32.5249H40.104ZM38.0645 34.9043V35.2442H39.764V34.9043H38.0645ZM44.183 33.5442V35.2437H45.8826V33.5442H44.183Z" fill="white"/>
<path fill-rule="evenodd" clip-rule="evenodd" d="M33.05 0C30.2886 0 28.05 2.23857 28.05 5V21.45H55V5C55 2.23858 52.7615 0 50 0H33.05ZM40.6838 8.5934L42.0852 10.0491L44.9975 7.25991L45.6615 7.92357V6.10321H43.8405L44.538 6.80035L42.1038 9.13129L40.6887 7.66161L36.8499 11.5633L37.3133 12.019L40.6838 8.5934ZM40.6562 14.7971H38.4625V11.7096H40.6562V14.7971ZM43.7031 14.7971H41.5093V10.7345H43.7031V14.7971ZM44.5562 14.7971V8.70326H46.7499V14.7971H44.5562Z" fill="white"/>
</svg>
