<svg width="38" height="46" viewBox="0 0 38 46" fill="none" xmlns="http://www.w3.org/2000/svg">
<path fill-rule="evenodd" clip-rule="evenodd" d="M34.2 7.66667H26.6C26.6 5.63334 25.7993 3.68329 24.374 2.24551C22.9487 0.807735 21.0156 0 19 0C16.9844 0 15.0513 0.807735 13.626 2.24551C12.2007 3.68329 11.4 5.63334 11.4 7.66667H3.8C2.79309 7.66967 1.82828 8.0745 1.11628 8.79274C0.404288 9.51098 0.00297602 10.4843 0 11.5V42.1667C0.00297602 43.1824 0.404288 44.1557 1.11628 44.8739C1.82828 45.5922 2.79309 45.997 3.8 46H34.2C35.2069 45.997 36.1717 45.5922 36.8837 44.8739C37.5957 44.1557 37.997 43.1824 38 42.1667V11.5C37.997 10.4843 37.5957 9.51098 36.8837 8.79274C36.1717 8.0745 35.2069 7.66967 34.2 7.66667ZM19 3.83333C19.7516 3.83333 20.4863 4.05815 21.1112 4.47937C21.7361 4.90058 22.2231 5.49926 22.5107 6.19971C22.7984 6.90016 22.8736 7.67092 22.727 8.41451C22.5804 9.15811 22.2184 9.84114 21.687 10.3772C21.1556 10.9133 20.4785 11.2784 19.7413 11.4263C19.0042 11.5743 18.2402 11.4983 17.5458 11.2082C16.8514 10.9181 16.258 10.4267 15.8404 9.79635C15.4229 9.16596 15.2 8.42483 15.2 7.66667C15.2 6.65 15.6004 5.67498 16.313 4.95609C17.0256 4.2372 17.9922 3.83333 19 3.83333ZM8.18598 19.6124C8.18598 19.2185 8.50528 18.8992 8.89916 18.8992H27.9751C28.369 18.8992 28.6883 19.2185 28.6883 19.6124V19.6124C28.6883 20.0063 28.369 20.3256 27.9751 20.3256H8.89916C8.50528 20.3256 8.18598 20.0063 8.18598 19.6124V19.6124ZM20.7652 42.1667L19.4216 40.8112L18.0779 39.4558L14.0367 35.3777C13.2999 34.6343 13.2999 33.4361 14.0366 32.6926V32.6926C14.7827 31.9396 15.9998 31.9394 16.7461 32.6923L20.7652 36.7467L30.1579 27.2716C30.904 26.519 32.1205 26.5186 32.867 27.2709V27.2709C33.605 28.0144 33.6053 29.2139 32.8678 29.9579L20.7652 42.1667ZM28.5 16.5814C28.5 17.2707 27.9412 17.8295 27.2519 17.8295H9.43404C8.74476 17.8295 8.18598 17.2707 8.18598 16.5814V16.5814C8.18598 15.8921 8.74476 15.3333 9.43405 15.3333H27.2519C27.9412 15.3333 28.5 15.8921 28.5 16.5814V16.5814ZM8.18598 22.4651C8.18598 22.0712 8.50528 21.7519 8.89916 21.7519H15.2495C15.6434 21.7519 15.9627 22.0712 15.9627 22.4651V22.4651C15.9627 22.859 15.6434 23.1783 15.2495 23.1783H8.89916C8.50528 23.1783 8.18598 22.859 8.18598 22.4651V22.4651ZM18.259 23.1783C17.8651 23.1783 17.5458 22.859 17.5458 22.4651V22.4651C17.5458 22.0712 17.8651 21.7519 18.259 21.7519H27.9751C28.369 21.7519 28.6883 22.0712 28.6883 22.4651V22.4651C28.6883 22.859 28.369 23.1783 27.9751 23.1783H18.259Z" fill="url(#paint0_linear_14_378)"/>
<defs>
<linearGradient id="paint0_linear_14_378" x1="-1.00471" y1="-3.2093" x2="57.8833" y2="61.5349" gradientUnits="userSpaceOnUse">
<stop stop-color="#00B8FF"/>
<stop offset="0.989578" stop-color="#3DFFFF"/>
</linearGradient>
</defs>
</svg>
