<svg width="59" height="59" viewBox="0 0 59 59" fill="none" xmlns="http://www.w3.org/2000/svg">
<path d="M37.2489 17.6687C28.4254 19.2413 22.6064 27.2166 13.781 28.7944C15.6518 32.7405 17.5123 36.665 19.3831 40.6111C28.2066 39.0386 34.0256 31.0633 42.851 29.4855C40.9802 25.5394 39.1197 21.6149 37.2489 17.6687ZM30.2824 33.2877C27.9853 34.3767 25.2413 33.3977 24.1736 31.1082C23.0846 28.8111 24.0635 26.0672 26.3531 24.9994C28.6502 23.9104 31.3941 24.8894 32.4618 27.1789C33.5474 29.4688 32.5741 32.1968 30.2824 33.2877Z" fill="white"/>
<path d="M30.3919 29.5096C29.9857 28.6527 28.9613 28.2872 28.1044 28.6935C27.7372 28.8676 27.2967 28.7104 27.1279 28.345C26.9591 27.9797 27.1109 27.5373 27.4763 27.3685C27.6635 27.2797 27.8686 27.2751 28.0577 27.3486C28.3106 27.4448 28.593 27.3241 28.6945 27.0732C28.7907 26.8203 28.67 26.538 28.4191 26.4365C28.1363 26.3236 27.8304 26.2922 27.5317 26.3412L27.3849 26.0316C27.2688 25.7868 26.9769 25.6826 26.7321 25.7987C26.4872 25.9147 26.3831 26.2067 26.4992 26.4515L26.646 26.7611C26.0991 27.2541 25.9091 28.0718 26.2456 28.7721C26.6518 29.6291 27.6761 29.9945 28.533 29.5883C28.9003 29.4142 29.3408 29.5713 29.5096 29.9367C29.6837 30.3039 29.5265 30.7444 29.1612 30.9132C28.974 31.002 28.7689 31.0066 28.5797 30.9331C28.3269 30.8369 28.0445 30.9576 27.943 31.2085C27.8468 31.4614 27.9674 31.7438 28.2184 31.8453C28.5012 31.9581 28.8071 31.9895 29.1058 31.9405L29.2526 32.2501C29.3687 32.495 29.6606 32.5991 29.9054 32.483C30.1502 32.367 30.2544 32.0751 30.1383 31.8302L29.9915 31.5206C30.5383 31.0276 30.7265 30.2153 30.3919 29.5096Z" fill="white"/>
<g clip-path="url(#clip0_86_29)">
<path d="M50.1602 33.8794C49.1204 39.3953 46.1789 44.244 42.0476 47.7192C37.894 51.2111 32.5393 53.3129 26.7009 53.3129C21.2128 53.3129 16.1529 51.4558 12.1161 48.3364C7.99582 45.1503 4.94318 40.6464 3.592 35.453L6.57237 34.6801C7.74561 39.2007 10.4035 43.1263 13.9955 45.901C17.5041 48.6144 21.9079 50.2269 26.6954 50.2269C31.7942 50.2269 36.4538 48.3976 40.0625 45.3672C43.5155 42.4647 46.0121 38.4556 47.0074 33.885H43.8269L48.6033 28.0688L53.3796 33.8794H50.1602ZM3.2417 24.9939C4.27037 19.5281 7.16733 14.7184 11.2375 11.2543C15.4078 7.70117 20.8069 5.56042 26.7009 5.56042C31.8832 5.56042 36.6763 7.21186 40.5908 10.0198C44.6054 12.9001 47.6969 16.9981 49.315 21.7745L47.8526 22.2694L46.3902 22.7642C46.3513 22.6419 46.3068 22.5196 46.2623 22.4028C44.8222 18.4049 42.1866 14.9686 38.7892 12.5331C35.3807 10.0921 31.2048 8.65756 26.6954 8.65756C21.552 8.65756 16.8479 10.5203 13.2281 13.6007C9.82519 16.4977 7.3675 20.4734 6.38331 24.9995H9.54717L4.77636 30.8101L0 24.9939H3.2417Z" fill="white"/>
</g>
<defs>
<clipPath id="clip0_86_29">
<rect width="53.3796" height="47.7525" fill="white" transform="translate(0 5.56042)"/>
</clipPath>
</defs>
</svg>
