<svg width="50" height="47" viewBox="0 0 50 47" fill="none" xmlns="http://www.w3.org/2000/svg">
<path d="M37.4942 35.5575C35.0474 35.5574 33.0567 33.5214 33.0567 31.0188V23.4813C33.0567 20.9786 35.0474 18.9426 37.4942 18.9426H49.0569C49.127 18.9426 49.1966 18.9448 49.2659 18.948V11.4394C49.2659 9.50659 47.734 7.93976 45.8443 7.93976H3.42171C1.53189 7.93964 0 9.50647 0 11.4393V43.0607C0 44.9935 1.53189 46.5604 3.42171 46.5604H45.8443C47.734 46.5604 49.2659 44.9936 49.2659 43.0607V35.5521C49.1966 35.5554 49.127 35.5575 49.0569 35.5575H37.4942Z" fill="url(#paint0_linear_86_2)"/>
<path d="M47.4093 21.8943H36.7064C35.681 21.8943 34.8496 22.7462 34.8496 23.7971V30.7877C34.8496 31.8386 35.681 32.6906 36.7064 32.6906H47.4093C48.4347 32.6906 49.2661 31.8387 49.2661 30.7877V23.7971C49.2661 22.7461 48.4347 21.8943 47.4093 21.8943ZM40.3944 30.0388C38.9143 30.0388 37.7144 28.8091 37.7144 27.2923C37.7144 25.7755 38.9143 24.5459 40.3944 24.5459C41.8746 24.5459 43.0744 25.7755 43.0744 27.2923C43.0744 28.8091 41.8746 30.0388 40.3944 30.0388Z" fill="url(#paint1_linear_86_2)"/>
<path d="M38.9205 3.43792C38.2119 1.24005 35.8988 0.0469879 33.7543 0.773133L17.6641 6.2207H39.8176L38.9205 3.43792Z" fill="url(#paint2_linear_86_2)"/>
<defs>
<linearGradient id="paint0_linear_86_2" x1="-29.469" y1="-1.50514" x2="38.2154" y2="69.8594" gradientUnits="userSpaceOnUse">
<stop stop-color="#FF9877"/>
<stop offset="1" stop-color="#FFC702"/>
</linearGradient>
<linearGradient id="paint1_linear_86_2" x1="26.2262" y1="19.254" x2="45.0818" y2="40.065" gradientUnits="userSpaceOnUse">
<stop stop-color="#FF9877"/>
<stop offset="1" stop-color="#FFC702"/>
</linearGradient>
<linearGradient id="paint2_linear_86_2" x1="4.41267" y1="-0.823829" x2="10.0185" y2="17.3109" gradientUnits="userSpaceOnUse">
<stop stop-color="#FF9877"/>
<stop offset="1" stop-color="#FFC702"/>
</linearGradient>
</defs>
</svg>
