<svg width="45" height="40" viewBox="0 0 45 40" fill="none" xmlns="http://www.w3.org/2000/svg">
<path d="M35.7072 37.3338L33 40L30.2928 37.3338C24.972 36.1236 21 31.4247 21 25.8182C21 19.2945 26.376 14 33 14C39.624 14 45 19.2945 45 25.8182C45 31.4247 41.028 36.1236 35.7072 37.3338ZM25.8276 29.8553C27.5892 32.4435 30.234 34.0909 33.192 34.0909C36.1488 34.0909 38.7948 32.4446 40.5552 29.8553C38.5581 28.0171 35.9255 26.9962 33.192 27C30.4581 26.9959 27.825 28.0168 25.8276 29.8553V29.8553ZM33 24.6364C33.9548 24.6364 34.8705 24.2628 35.5456 23.5979C36.2207 22.933 36.6 22.0312 36.6 21.0909C36.6 20.1506 36.2207 19.2488 35.5456 18.5839C34.8705 17.919 33.9548 17.5455 33 17.5455C32.0452 17.5455 31.1295 17.919 30.4544 18.5839C29.7793 19.2488 29.4 20.1506 29.4 21.0909C29.4 22.0312 29.7793 22.933 30.4544 23.5979C31.1295 24.2628 32.0452 24.6364 33 24.6364V24.6364Z" fill="black"/>
<path d="M9.75 5.25L15 5.25V0L18.75 0V5.25L24 5.25V9H18.75L18.75 14.25L15 14.25V9H9.75L9.75 5.25ZM0 15.75H5.25L5.25 10.5L9 10.5V15.75H14.25L14.25 19.5L9 19.5V24.75H5.25V19.5H0L0 15.75Z" fill="black"/>
</svg>
