<svg width="0" height="0" class="hidden">
  <symbol xmlns="http://www.w3.org/2000/svg" viewBox="0 0 10 17" id="slider-arrow-left">
    <path d="M9.25244 2.1291C9.44294 1.92668 9.54665 1.65897 9.54172 1.38234C9.5368 1.10572 9.42361 0.841788 9.22601 0.646154C9.02842 0.450523 8.76184 0.338461 8.48244 0.33358C8.20304 0.328699 7.93263 0.431381 7.72819 0.61999L0.538332 7.73841C0.438112 7.83757 0.35861 7.95531 0.304369 8.0849C0.250127 8.21449 0.222209 8.3534 0.222209 8.49368C0.222209 8.63395 0.250127 8.77286 0.304369 8.90245C0.35861 9.03204 0.438113 9.14978 0.538332 9.24894L7.72819 16.3674C7.93169 16.5618 8.20417 16.6693 8.48694 16.6667C8.76971 16.6641 9.04016 16.5517 9.24002 16.3537C9.43989 16.1556 9.55318 15.8877 9.55551 15.6078C9.55783 15.3278 9.44899 15.0581 9.25244 14.8568L2.82471 8.49296L9.25244 2.1291Z"></path>
  </symbol>

  <symbol xmlns="http://www.w3.org/2000/svg" viewBox="0 0 10 17" id="slider-arrow-right">
    <path d="M0.747438 14.8709C0.556936 15.0733 0.453225 15.341 0.458155 15.6177C0.463084 15.8943 0.57627 16.1582 0.773866 16.3538C0.971462 16.5495 1.23804 16.6615 1.51744 16.6664C1.79684 16.6713 2.06725 16.5686 2.27169 16.38L9.46155 9.26159C9.56177 9.16243 9.64127 9.04469 9.69551 8.9151C9.74975 8.7855 9.77767 8.6466 9.77767 8.50632C9.77767 8.36605 9.74975 8.22714 9.69551 8.09755C9.64127 7.96796 9.56177 7.85022 9.46155 7.75106L2.27169 0.63264C2.06819 0.438232 1.79571 0.330733 1.51294 0.333297C1.23016 0.335861 0.959721 0.448282 0.759856 0.646349C0.55999 0.844415 0.446696 1.11228 0.444373 1.39224C0.44205 1.67221 0.550884 1.94188 0.747436 2.14317L7.17517 8.50704L0.747438 14.8709Z"></path>
  </symbol>

  <symbol  xmlns="http://www.w3.org/2000/svg" viewBox="0 0 43 56" id="icon-btc">
    <path d="M34.1078 25.9844C37.0359 24.5092 38.868 21.9113 38.44 17.5833C37.8637 11.6686 32.6995 9.68524 26.1803 9.12042L26.1791 0.91626H21.128L21.1266 8.90466C19.7976 8.90466 18.4428 8.93048 17.0942 8.95724L17.0931 0.917349L12.0466 0.916882L12.0456 9.11902C10.9519 9.1411 9.87788 9.1621 8.82913 9.1621V9.13784L1.86206 9.13504L1.863 14.4678C1.863 14.4678 5.59313 14.3984 5.53168 14.4658C7.57685 14.4672 8.24464 15.6416 8.43669 16.6554L8.43826 26.0016V39.13C8.34821 39.7663 7.96929 40.7828 6.53925 40.7847C6.60432 40.8413 2.86492 40.7841 2.86492 40.7841L1.863 46.7473H8.43512C9.65974 46.7487 10.863 46.7675 12.0434 46.7768L12.0478 55.0739L17.0931 55.0753L17.0917 46.8652C18.4798 46.8932 19.8196 46.9053 21.1283 46.9036L21.1269 55.0753H26.1778L26.1806 46.7921C34.6709 46.3099 40.6149 44.1948 41.3539 36.31C41.9495 29.9619 38.9282 27.1283 34.1078 25.9844ZM17.2149 14.8277C20.0637 14.8277 29.0229 13.9307 29.0242 19.8155C29.0229 25.4573 20.0665 24.7982 17.2149 24.7982V14.8277ZM17.2127 40.8251L17.2149 29.8317C20.6376 29.8308 31.373 28.8578 31.3744 35.3259C31.3758 41.5289 20.6376 40.8226 17.2127 40.8251Z" ></path>
  </symbol>

  <symbol  xmlns="http://www.w3.org/2000/svg" viewBox="0 0 43 43" id="icon-forex">
    <path fill-rule="evenodd" clip-rule="evenodd" d="M0.149902 26.2931C0.0609532 25.9095 0.363046 25.5507 0.763711 25.5507C1.06745 25.5507 1.32825 25.7617 1.39624 26.0524C2.71599 31.6945 6.43589 36.4369 11.4442 39.1879V34.8733C10.4378 34.6005 9.6988 33.6952 9.6988 32.6203V14.2363C9.6988 13.1614 10.4378 12.256 11.4442 11.9833V3.81206C6.25813 6.66074 2.45355 11.6447 1.26484 17.5517C1.20455 17.8513 0.939807 18.0725 0.628826 18.0725C0.236218 18.0725 -0.0637205 17.7267 0.0116581 17.3484C1.98163 7.46092 10.8535 0 21.5 0C32.1465 -1.38487e-06 41.0184 7.46092 42.9883 17.3484C43.0637 17.7267 42.7638 18.0725 42.3712 18.0725C42.0602 18.0725 41.7954 17.8513 41.7352 17.5517C40.611 11.9655 37.1474 7.2048 32.3884 4.29488V11.9833C33.3947 12.256 34.1337 13.1614 34.1337 14.2363V32.6203C34.1337 33.6952 33.3947 34.6005 32.3884 34.8733V38.7051C36.9749 35.9007 40.3582 31.3772 41.6038 26.0524C41.6717 25.7617 41.9326 25.5507 42.2363 25.5507C42.637 25.5507 42.939 25.9095 42.8501 26.2931C41.476 32.2192 37.6084 37.214 32.3884 40.1575V40.2544H32.2147C29.0474 42.0028 25.3923 43 21.5 43C11.085 43 2.36829 35.86 0.149902 26.2931ZM31.119 39.4211V34.8733C30.1127 34.6005 29.3737 33.6952 29.3737 32.6203V14.2363C29.3737 13.1614 30.1127 12.256 31.119 11.9833V3.57886C28.6271 2.28667 25.8332 1.48088 22.8683 1.29023V9.80216C23.8746 10.0749 24.6136 10.9803 24.6136 12.0551V21.0913C24.6136 22.1662 23.8746 23.0716 22.8683 23.3443V41.7098C25.8332 41.5191 28.6271 40.7133 31.119 39.4211ZM21.5 1.24638C21.533 1.24638 21.566 1.24645 21.5989 1.2466V9.80216C20.5926 10.0749 19.8536 10.9803 19.8536 12.0551V21.0913C19.8536 22.1662 20.5926 23.0716 21.5989 23.3443V41.7534C21.566 41.7535 21.533 41.7536 21.5 41.7536C18.3575 41.7536 15.3791 41.0636 12.7135 39.8295V34.8733C13.7198 34.6005 14.4588 33.6952 14.4588 32.6203V14.2363C14.4588 13.1614 13.7198 12.256 12.7135 11.9833V3.17054C15.3791 1.93639 18.3575 1.24638 21.5 1.24638ZM10.9681 14.2363C10.9681 13.634 11.4654 13.1457 12.0788 13.1457C12.6922 13.1457 13.1895 13.634 13.1895 14.2363V32.6203C13.1895 33.2226 12.6922 33.7109 12.0788 33.7109C11.4654 33.7109 10.9681 33.2226 10.9681 32.6203V14.2363ZM22.2336 10.9645C21.6202 10.9645 21.1229 11.4528 21.1229 12.0551V21.0913C21.1229 21.6936 21.6202 22.1819 22.2336 22.1819C22.847 22.1819 23.3443 21.6936 23.3443 21.0913V12.0551C23.3443 11.4528 22.847 10.9645 22.2336 10.9645ZM30.643 14.2363C30.643 13.634 31.1403 13.1457 31.7537 13.1457C32.3671 13.1457 32.8644 13.634 32.8644 14.2363V32.6203C32.8644 33.2226 32.3671 33.7109 31.7537 33.7109C31.1403 33.7109 30.643 33.2226 30.643 32.6203V14.2363Z" ></path>
  </symbol>

  <symbol  xmlns="http://www.w3.org/2000/svg" viewBox="0 0 56 56" id="icon-indices">
    <path d="M44.625 37.178C46.135 34.455 47 31.327 47 28C47 24.673 46.135 21.545 44.625 18.822V18.479H44.416C41.122 12.821 35.006 9 28 9C17.523 9 9 17.523 9 28C9 38.477 17.523 47 28 47C35.006 47 41.122 43.18 44.416 37.521H44.625V37.178ZM12.076 29.5H17.73C17.845 31.221 18.154 32.902 18.65 34.521H13.402C12.704 32.961 12.242 31.273 12.076 29.5ZM38.27 26.5C38.155 24.779 37.846 23.097 37.35 21.479H42.598C43.296 23.039 43.758 24.726 43.924 26.5H38.27ZM35.258 26.5H29.5V21.479H34.182C34.762 23.084 35.124 24.769 35.258 26.5ZM29.5 18.479V14.2C30.807 15.492 31.908 16.931 32.793 18.479H29.5ZM26.5 14.2V18.479H23.207C24.092 16.931 25.193 15.493 26.5 14.2ZM26.5 21.479V26.5H20.742C20.876 24.769 21.238 23.084 21.818 21.479H26.5ZM17.73 26.5H12.076C12.242 24.726 12.704 23.039 13.402 21.479H18.65C18.154 23.097 17.846 24.779 17.73 26.5ZM20.742 29.5H26.5V34.521H21.818C21.238 32.916 20.876 31.23 20.742 29.5ZM26.5 37.521V41.8C25.193 40.508 24.092 39.069 23.207 37.522H26.5V37.521ZM29.5 41.8V37.522H32.793C31.908 39.068 30.807 40.507 29.5 41.8ZM29.5 34.521V29.5H35.258C35.124 31.23 34.762 32.916 34.182 34.521H29.5ZM38.27 29.5H43.924C43.758 31.273 43.296 32.961 42.598 34.521H37.35C37.846 32.902 38.154 31.221 38.27 29.5ZM40.828 18.479H36.175C35.151 16.323 33.779 14.322 32.085 12.548C35.634 13.488 38.695 15.612 40.828 18.479ZM23.915 12.548C22.221 14.322 20.85 16.323 19.825 18.479H15.172C17.305 15.612 20.366 13.488 23.915 12.548ZM15.172 37.521H19.825C20.849 39.675 22.221 41.676 23.915 43.452C20.366 42.512 17.305 40.389 15.172 37.521ZM32.085 43.452C33.779 41.678 35.15 39.677 36.175 37.521H40.828C38.695 40.389 35.634 42.512 32.085 43.452Z" ></path>
    <path d="M48.5 39C46.0145 39 44 41.0147 44 43.5C44 45.9853 46.0145 48 48.5 48C50.9855 48 53 45.9851 53 43.5C53 41.0149 50.9853 39 48.5 39ZM48.7724 45.5045V46.0254C48.7724 46.1067 48.7091 46.1658 48.6277 46.1658H48.2805C48.199 46.1658 48.1334 46.1067 48.1334 46.0254V45.5504C47.8138 45.5359 47.4915 45.4677 47.2475 45.3749C47.1153 45.3248 47.0416 45.1832 47.0767 45.0461L47.1333 44.8256C47.1531 44.7482 47.2048 44.6836 47.2755 44.6474C47.3462 44.6106 47.4292 44.6068 47.5034 44.6352C47.7359 44.7251 48.0104 44.7905 48.3036 44.7905C48.6768 44.7905 48.9324 44.6464 48.9324 44.3844C48.9324 44.1355 48.7229 43.9782 48.238 43.8143C47.5371 43.5785 47.0571 43.2511 47.0571 42.6156C47.0571 42.0393 47.465 41.5873 48.1624 41.4496V40.9746C48.1624 40.8933 48.2319 40.8204 48.3134 40.8204H48.6606C48.742 40.8204 48.8018 40.8933 48.8018 40.9746V41.4036C49.1067 41.4167 49.3268 41.462 49.5109 41.5219C49.6501 41.5673 49.7324 41.7132 49.6957 41.8554L49.646 42.0528C49.6266 42.128 49.5769 42.1918 49.5087 42.2287C49.4406 42.2655 49.3601 42.2721 49.2865 42.2469C49.1192 42.1895 48.9011 42.1374 48.6245 42.1374C48.1988 42.1374 48.0611 42.3209 48.0611 42.5044C48.0611 42.7206 48.2905 42.8581 48.8472 43.0678C49.6266 43.3429 49.9397 43.7033 49.9397 44.2925C49.9396 44.8755 49.5277 45.3737 48.7724 45.5045Z" ></path>
    <path d="M5.5 9C3.01451 9 1 11.0147 1 13.5C1 15.9853 3.01451 18 5.5 18C7.98549 18 10 15.9851 10 13.5C10 11.0149 7.98529 9 5.5 9ZM5.7724 15.5045V16.0254C5.7724 16.1067 5.70915 16.1658 5.62768 16.1658H5.28047C5.19901 16.1658 5.1334 16.1067 5.1334 16.0254V15.5504C4.81381 15.5359 4.49147 15.4677 4.24747 15.3749C4.11528 15.3248 4.04165 15.1832 4.0767 15.0461L4.1333 14.8256C4.15307 14.7482 4.20477 14.6836 4.27547 14.6474C4.34616 14.6106 4.4292 14.6068 4.50342 14.6352C4.73587 14.7251 5.01042 14.7905 5.30358 14.7905C5.67684 14.7905 5.93239 14.6464 5.93239 14.3844C5.93239 14.1355 5.72286 13.9782 5.23798 13.8143C4.5371 13.5785 4.05712 13.2511 4.05712 12.6156C4.05712 12.0393 4.46503 11.5873 5.16239 11.4496V10.9746C5.16239 10.8933 5.23191 10.8204 5.31337 10.8204H5.66058C5.74205 10.8204 5.80178 10.8933 5.80178 10.9746V11.4036C6.10668 11.4167 6.3268 11.462 6.51088 11.5219C6.65012 11.5673 6.73236 11.7132 6.69574 11.8554L6.646 12.0528C6.62662 12.128 6.57687 12.1918 6.50873 12.2287C6.44058 12.2655 6.36009 12.2721 6.28646 12.2469C6.11922 12.1895 5.90106 12.1374 5.62455 12.1374C5.19881 12.1374 5.06114 12.3209 5.06114 12.5044C5.06114 12.7206 5.29046 12.8581 5.84721 13.0678C6.62662 13.3429 6.93975 13.7033 6.93975 14.2925C6.93955 14.8755 6.52772 15.3737 5.7724 15.5045Z" ></path>
    <path fill-rule="evenodd" clip-rule="evenodd" d="M50.2742 39.3633C52.017 35.954 53 32.0918 53 28C53 14.1929 41.8071 3 28 3C20.6221 3 13.9907 6.19595 9.41459 11.279C8.90925 10.3902 8.10998 9.69039 7.14902 9.31174C12.2754 3.59595 19.7178 0 28 0C43.464 0 56 12.536 56 28C56 32.8966 54.7431 37.4997 52.5343 41.5041C52.0607 40.5488 51.2579 39.7857 50.2742 39.3633ZM45.0008 46.3297C40.5399 50.4691 34.5655 53 28 53C14.1929 53 3 41.8071 3 28C3 24.4373 3.74524 21.0486 5.08835 17.9814C4.03187 17.8856 3.08082 17.4246 2.36241 16.7258C0.843355 20.1751 0 23.9891 0 28C0 43.464 12.536 56 28 56C35.6681 56 42.6163 52.9176 47.673 47.9242C46.6001 47.7249 45.6609 47.1449 45.0008 46.3297Z" ></path>
  </symbol>

  <symbol  xmlns="http://www.w3.org/2000/svg" viewBox="0 0 60 46" id="icon-metals">
    <path d="M59.9923 45.2964L56.9314 26.5332C56.8857 26.2382 56.6268 26.0263 56.3298 26.0263H36.4111C36.1141 26.0263 35.8553 26.2382 35.8096 26.5332L32.7487 45.2964C32.7411 45.3266 32.7411 45.3645 32.7411 45.3947C32.7411 45.7276 33.0152 46 33.3502 46H59.3908C59.4212 46 59.4593 46 59.4897 45.9924C59.8171 45.9395 60.0456 45.6293 59.9923 45.2964ZM24.1903 26.5332C24.1446 26.2382 23.8857 26.0263 23.5888 26.0263H3.67004C3.37309 26.0263 3.11421 26.2382 3.06852 26.5332L0.00761408 45.2964C-1.16297e-07 45.3266 0 45.3645 0 45.3947C0 45.7276 0.274111 46 0.609136 46H26.6497C26.6802 46 26.7182 46 26.7487 45.9924C27.0837 45.9395 27.3045 45.6293 27.2512 45.2964L24.1903 26.5332ZM17.0558 19.9737H43.0964C43.1268 19.9737 43.1649 19.9737 43.1954 19.9661C43.5304 19.9132 43.7512 19.603 43.6979 19.2701L40.637 0.506908C40.5913 0.211842 40.3324 0 40.0355 0H20.1167C19.8198 0 19.5609 0.211842 19.5152 0.506908L16.4543 19.2701C16.4467 19.3003 16.4467 19.3382 16.4467 19.3684C16.4467 19.7013 16.7208 19.9737 17.0558 19.9737Z" ></path>
  </symbol>

  <symbol  xmlns="http://www.w3.org/2000/svg" viewBox="0 0 54 54" id="icon-shares">
    <path d="M46.6074 5.65385H51.8292V47.1204H46.6074V5.65385ZM36.207 7.15505L35.4834 7.38185C34.5762 7.66805 33.5124 7.26845 33.1452 6.51245C32.967 6.14525 32.9616 5.74025 33.1236 5.36765C33.3126 4.93565 33.7068 4.60085 34.209 4.44425L42.363 1.90625L43.362 9.16925C43.416 9.54185 43.3134 9.91985 43.0704 10.2276C42.768 10.611 42.2874 10.8594 41.7474 10.9135C41.6826 10.9188 41.6124 10.9242 41.5422 10.9242C40.6188 10.9242 39.8358 10.3356 39.717 9.55805L39.5928 8.45645C30.1644 21.5082 8.45644 35.4996 7.51684 36.099C7.19824 36.3042 6.81484 36.4122 6.40984 36.4122C5.86444 36.4122 5.35144 36.2124 5.00044 35.856C4.68184 35.5321 4.53064 35.1216 4.57924 34.7004C4.62784 34.263 4.89244 33.858 5.30284 33.5989C5.51884 33.4585 27.0162 19.5588 36.207 7.15505ZM42.39 14.8609V47.1204H37.1682V14.8609H42.39ZM33.2532 24.4512V47.1259H28.026V24.4512H33.2532ZM23.8032 34.4089V47.1204H18.5814V34.4089H23.8032ZM13.8186 39.3876V47.1204H8.59684V39.3876H13.8186ZM53.46 52.0992H0.540039V48.222H53.46V52.0992Z" ></path>
  </symbol>

   <symbol xmlns="http://www.w3.org/2000/svg" fill="currentColor" viewBox="0 0 16 16" id="icon-arrow-right-short">
    <path fill-rule="evenodd" d="M4 8a.5.5 0 0 1 .5-.5h5.793L8.146 5.354a.5.5 0 1 1 .708-.708l3 3a.5.5 0 0 1 0 .708l-3 3a.5.5 0 0 1-.708-.708L10.293 8.5H4.5A.5.5 0 0 1 4 8z"></path>
  </symbol>

  <symbol fill="none" xmlns="http://www.w3.org/2000/svg" viewBox="0 0 66 65" id="icon-copy-trade">
    <g clip-path="url(#clip0_24_8)">
      <path d="M59.8716 23.4096C59.4473 22.3969 59.9307 21.2296 60.9565 20.8085C61.9771 20.3875 63.1533 20.8672 63.5776 21.8852C64.3726 23.772 64.9849 25.7388 65.3931 27.7749C65.7959 29.763 66.0054 31.8204 66.0054 33.9258C66.0054 41.8995 62.9976 49.1751 58.0454 54.7023C53.0396 60.2882 46.0464 64.0832 38.1616 64.9947C37.0605 65.1173 36.0669 64.3337 35.938 63.2411C35.8145 62.1484 36.604 61.1624 37.7051 61.0344C44.5747 60.2403 50.6763 56.9303 55.0483 52.0533C59.3667 47.2349 61.9878 40.8868 61.9878 33.9258C61.9878 32.0869 61.8052 30.2907 61.4561 28.5531C61.0908 26.7569 60.5591 25.0406 59.8716 23.4096ZM45.8154 26.4157C45.8047 26.4797 45.7778 26.5437 45.7456 26.6023C45.7026 26.7462 45.6704 26.9114 45.6597 27.098C45.6597 27.114 45.6597 27.1353 45.6597 27.1513L44.8271 39.2505C44.9561 39.6396 45.1279 39.9381 45.3428 40.13C45.5415 40.3112 45.7939 40.4071 46.1108 40.4178C46.1323 40.4178 46.1592 40.4178 46.1807 40.4178L49.6772 40.6576C49.6826 40.6576 49.6934 40.6576 49.7041 40.6576C50.2466 40.7216 50.6494 40.6043 50.9341 40.3218C51.2563 40.002 51.4658 39.4637 51.5786 38.7335V38.7228L53.394 27.8815C53.394 27.8655 53.394 27.8442 53.3994 27.8282C53.5176 27.2153 53.4048 26.7995 53.1147 26.5437C52.7764 26.2505 52.2017 26.0959 51.439 26.0426C51.4229 26.0426 51.4067 26.0426 51.3853 26.0426L47.4482 25.7761V25.7708C46.8467 25.7282 46.3955 25.8188 46.1108 26.0426C45.9819 26.1386 45.8906 26.2612 45.8154 26.4157ZM41.0405 39.5383C40.96 39.4531 40.9116 39.3465 40.8901 39.2292L35.9648 28.8143C35.4116 27.7376 34.853 27.6736 34.2837 27.9561C33.8809 28.1587 33.4512 28.4998 33.0161 28.8409C32.7529 29.0488 32.4951 29.2513 32.2749 29.4112L31.2544 30.1361L31.249 30.1414C30.5078 30.6531 29.6968 30.9036 28.9395 30.9143C28.4399 30.925 27.9673 30.829 27.543 30.6318C27.1079 30.4346 26.7319 30.1414 26.4634 29.7524C26.1733 29.3366 25.9961 28.8196 25.9854 28.228C25.9854 28.228 26.1196 27.8602 26.1465 27.8335L29.4658 24.4223C28.8213 24.369 28.2412 24.417 27.6934 24.5449C26.8555 24.7421 26.0605 25.1312 25.1904 25.6429C25.0884 25.7122 24.9648 25.7442 24.8359 25.7388L21.3018 25.499L20.8452 32.1242L20.5659 36.3616L22.623 36.5002C22.8218 36.5109 23.0044 36.6281 23.0903 36.8147L25.3408 41.4092C25.6685 42.0808 25.9585 42.6564 26.3452 43.0508C26.7051 43.4239 27.1992 43.6691 27.978 43.7437C28.2681 43.7704 28.5527 43.7437 28.8213 43.6531C28.9878 43.5998 29.1543 43.5199 29.3208 43.4133L27.876 40.2312C27.7471 39.9487 27.876 39.6183 28.1606 39.4957C28.4453 39.3678 28.7783 39.4957 28.9019 39.7782L30.4702 43.2427C31.1147 43.6265 31.7163 43.7704 32.2695 43.6958C32.7744 43.6212 33.2632 43.36 33.7412 42.9069L31.4263 38.6909C31.2812 38.4244 31.3779 38.0832 31.6519 37.934C31.9204 37.7901 32.2642 37.886 32.4146 38.1578L34.853 42.5978C35.3203 42.827 35.7769 42.9016 36.2227 42.811C36.647 42.7257 37.0874 42.4859 37.5332 42.0861L35.3794 37.2944C35.2505 37.0119 35.3794 36.6761 35.6641 36.5535C35.9487 36.4256 36.2871 36.5535 36.4106 36.8413L38.645 41.7983C38.9673 42.0115 39.3486 42.0861 39.7192 42.0541C40.0469 42.0221 40.3691 41.9049 40.6377 41.7237C40.8955 41.5478 41.1104 41.3079 41.2178 41.0308C41.3413 40.7269 41.3574 40.3645 41.2178 39.9594L41.0405 39.5383ZM43.8604 39.8795L42.3618 39.7782C42.5229 40.3805 42.4746 40.9348 42.2812 41.4198C42.0825 41.9155 41.728 42.326 41.293 42.6244C40.8687 42.9123 40.3638 43.0988 39.8374 43.1468C39.3271 43.1947 38.8062 43.1148 38.3281 42.8803C37.7212 43.4293 37.0928 43.7597 36.459 43.893C35.8198 44.0209 35.186 43.941 34.5576 43.6745C33.9023 44.3034 33.1987 44.6818 32.4414 44.7884C31.6733 44.9004 30.8784 44.7298 30.0513 44.2767C29.772 44.4633 29.4819 44.6072 29.1812 44.7085C28.7568 44.8524 28.3218 44.9004 27.8706 44.8524C26.791 44.7458 26.0874 44.3834 25.5449 43.829C25.0239 43.3014 24.6963 42.6511 24.3257 41.8942L22.2202 37.5929L20.3672 37.4649C20.2222 37.9926 20.002 38.0992 19.7012 38.4403C19.0244 39.1919 18.439 39.5863 17.397 39.5277C15.8823 39.4424 13.1968 39.6396 12.3267 38.499C11.8862 37.918 11.623 37.0119 11.5747 35.6954C11.5747 35.6794 11.5747 35.6634 11.5693 35.6474L11.4458 25.3178C11.3545 24.1984 11.5962 23.4256 12.0796 22.9246C12.5684 22.4129 13.272 22.2157 14.1099 22.237C14.1367 22.237 14.1582 22.237 14.1797 22.237L18.4551 22.5301V22.5355C19.2607 22.5781 19.9482 22.7647 20.4531 23.1378C20.8613 23.4362 21.1353 23.8413 21.2588 24.3743L24.7446 24.6089C25.6631 24.0812 26.5117 23.6814 27.4355 23.4576C28.3433 23.2444 29.3047 23.2124 30.4326 23.4256L31.7056 22.125C31.7271 22.0984 31.7485 22.0771 31.7808 22.0558C32.1353 21.7626 32.5273 21.5334 32.9409 21.3522C33.376 21.1603 33.8379 21.0271 34.3159 20.9364C35.0732 20.7979 35.8628 20.7765 36.6255 20.8405C37.4902 20.9151 38.3228 21.1017 39.0371 21.3362C40.4014 21.7946 41.5454 22.7114 42.6519 23.6015C42.8989 23.7987 43.146 24.0012 43.4414 24.2198C43.4521 24.2251 43.4629 24.2358 43.4736 24.2411L45.085 25.4777C45.1763 25.3657 45.2837 25.2645 45.4019 25.1738C45.9175 24.7741 46.6211 24.6089 47.5127 24.6675V24.6622L51.4497 24.9287C51.4658 24.9287 51.4819 24.9287 51.4927 24.934C52.5024 24.9979 53.3081 25.2378 53.8452 25.7122C54.4414 26.2399 54.6885 26.9967 54.4897 28.0414C54.4897 28.0521 54.4844 28.0574 54.4844 28.0681L52.6689 38.8987C52.5239 39.8688 52.207 40.615 51.7075 41.1107C51.1758 41.6437 50.4722 41.8729 49.5752 41.7716L46.0786 41.5318H46.0732C45.4663 41.5211 44.9614 41.3239 44.5532 40.9508C44.2739 40.6843 44.0376 40.3218 43.8604 39.8795ZM15.748 33.7126C16.167 33.7392 16.4839 34.1017 16.457 34.5228C16.4302 34.9385 16.0649 35.2583 15.6406 35.2263C15.2217 35.1997 14.9048 34.8372 14.9316 34.4215C14.9585 34.0057 15.3237 33.6806 15.748 33.7126ZM48.8984 35.9619C49.3174 35.9885 49.6343 36.351 49.6074 36.7667C49.5806 37.1825 49.2153 37.5023 48.791 37.4703C48.3721 37.4436 48.0498 37.0812 48.082 36.6654C48.1089 36.2497 48.4741 35.9352 48.8984 35.9619ZM19.814 30.7544L20.2007 25.1898C20.2222 24.8967 20.0342 24.5289 19.7979 24.353C19.4863 24.1238 19.0029 24.0066 18.4014 23.9746L14.1099 23.6868C13.7178 23.6601 13.1807 23.7347 12.896 24.0279C12.6328 24.2997 12.5093 24.7954 12.5737 25.5789C12.5737 25.5949 12.5737 25.6109 12.5737 25.6269L12.6973 35.3009V35.3169C12.7349 36.3883 12.9229 37.0865 13.2236 37.4863C13.4922 37.8434 18.063 38.5736 18.8525 37.6888C19.1641 37.337 19.3467 36.772 19.4165 36.0258H19.4111L19.7979 30.7437L19.814 30.7544ZM57.4438 12.936L44.4351 15.2493L47.1313 11.4543C43.0225 7.10496 38.4517 5.54326 32.9893 7.15826C38.7793 0.0373107 46.4761 0.0266504 52.4971 3.87495L55.2417 0L57.4438 12.936ZM21.0386 48.7327L18.3423 52.5277C22.4512 56.877 27.022 58.4387 32.4844 56.8237C26.689 63.9393 18.9922 63.95 12.9712 60.1017L10.2212 63.9766L8.02441 51.0459L21.0386 48.7327ZM6.71924 43.4613C7.20264 44.4526 6.78369 45.6412 5.78467 46.1156C4.78564 46.5953 3.58789 46.1796 3.10986 45.1882C2.1001 43.1095 1.31592 40.9028 0.789551 38.5896C0.273926 36.335 0 34.0111 0 31.6392C0 23.8307 2.88965 16.6831 7.66992 11.1984C12.5093 5.6392 19.2876 1.7909 26.9629 0.682247C28.0586 0.527675 29.0737 1.28454 29.2295 2.37187C29.3853 3.4592 28.6226 4.46658 27.5269 4.62116C20.8345 5.5859 14.9209 8.94383 10.6938 13.7942C6.53662 18.5806 4.01758 24.8114 4.01758 31.6392C4.01758 33.7446 4.25391 35.7806 4.69434 37.7208C5.15625 39.7196 5.83838 41.6437 6.71924 43.4613Z" fill="white"></path>
    </g>
    <defs>
      <clipPath id="clip0_24_8">
        <rect width="66" height="65" fill="white"></rect>
      </clipPath>
    </defs>
  </symbol>


    <symbol fill="#fff" version="1.1" id="bonus" xmlns="http://www.w3.org/2000/svg" xmlns:xlink="http://www.w3.org/1999/xlink" x="0px" y="0px" xml:space="preserve" viewBox="0 0 59.003 59.003">
      <path d="M42.242,11.003c0.815-1.165,1.259-2.549,1.259-4.007c0-1.875-0.726-3.633-2.043-4.95c-2.729-2.729-7.17-2.729-9.899,0
		l-2.829,2.829l-2.828-2.829c-1.317-1.317-3.075-2.043-4.95-2.043s-3.632,0.726-4.95,2.043s-2.043,3.075-2.043,4.95
		c0,1.458,0.444,2.842,1.259,4.007H0.502v14h27h1h30v-14H42.242z M32.973,3.46c1.95-1.949,5.122-1.949,7.071,0
		c0.939,0.94,1.457,2.195,1.457,3.536c0,1.34-0.518,2.596-1.457,3.535l-0.472,0.472h-8.071h-3h-1h0H25.43l4.714-4.714l0,0
		L32.973,3.46z M17.417,10.532c-0.939-0.939-1.457-2.195-1.457-3.535c0-1.341,0.518-2.596,1.457-3.536
		c0.94-0.939,2.195-1.457,3.536-1.457s2.596,0.518,3.536,1.457l2.828,2.829l-3.535,3.535c-0.207,0.207-0.397,0.441-0.581,0.689
		c-0.054,0.073-0.107,0.152-0.159,0.229c-0.06,0.088-0.123,0.167-0.18,0.26h-4.972L17.417,10.532z"></path>
      <rect x="5.502" y="44.003" width="23" height="15"></rect>
      <rect x="30.502" y="44.003" width="23" height="15"></rect>
      <rect x="30.502" y="27.003" width="23" height="15"></rect>
      <rect x="5.502" y="27.003" width="23" height="15"></rect>
  </symbol>

  <symbol fill="#fff"  version="1.1" id="deposit-protection" xmlns="http://www.w3.org/2000/svg" xmlns:xlink="http://www.w3.org/1999/xlink" x="0px" y="0px" xml:space="preserve" viewBox="0 0 929.75 929.75">

        <path d="M913.675,700.075c3.2,0,3.2-5,0-5S910.475,700.075,913.675,700.075z"></path>
        <path d="M417.075,926.375c11.699,4.5,24.6,4.5,36.3,0c266.7-102.7,378.3-341.1,399.5-392.1c2.5-6.101,3.899-12.601,3.899-19.301
			V200.976c0-20.301-12.3-38.7-31.199-46.301l-371.5-151c-12.101-4.899-25.601-4.899-37.7,0l-371.5,151c-18.9,7.7-31.2,26-31.2,46.4
			v314c0,6.6,1.3,13.2,3.9,19.3C38.775,585.275,150.275,823.675,417.075,926.375z M289.475,257.875c0-17.899,14.601-32.5,32.5-32.5
			h81.7v-50.8c0-17.9,14.6-32.5,32.5-32.5s32.5,14.6,32.5,32.5v50.8h62.9c17.899,0,32.5,14.601,32.5,32.5
			c0,17.9-14.5,32.5-32.5,32.5h-62.9v99h78.2c17.899,0,32.5,14.6,32.5,32.5v164.1c0,17.9-14.601,32.5-32.5,32.5h-78.2v50.801
			c0,17.899-14.6,32.5-32.5,32.5s-32.5-14.601-32.5-32.5v-50.801h-64.9c-17.899,0-32.5-14.6-32.5-32.5
			c0-17.899,14.601-32.5,32.5-32.5h64.9v-99.1h-81.8c-17.9,0-32.5-14.6-32.5-32.5v-164H289.475z"></path>
        <rect x="468.675" y="454.375" width="45.7" height="99.1"></rect>
        <rect x="354.475" y="290.375" width="49.3" height="99.1"></rect>
  </symbol>

  <symbol fill="#fff" version="1.1" preserveAspectRatio="xMidYMid meet" xmlns="http://www.w3.org/2000/svg" xmlns:xlink="http://www.w3.org/1999/xlink" viewBox="0 0 36 36" id="license">
    <path d="M19,30H4a2,2,0,0,1-2-2V8A2,2,0,0,1,4,6H32a2,2,0,0,1,2,2V18.37a8.34,8.34,0,0,0-13.49,9.79l-.93,1.14ZM7,12v1.6H24V12Zm0,5.6H18V16H7Zm0,7H17V23H7Z"></path>
    <path d="M33.83,23.59a6.37,6.37,0,1,0-10.77,4.59l-1.94,2.37.9,3.61,3.66-4.46a6.26,6.26,0,0,0,3.55,0l3.66,4.46.9-3.61-1.94-2.37A6.34,6.34,0,0,0,33.83,23.59Zm-10.74,0a4.37,4.37,0,1,1,4.37,4.31A4.35,4.35,0,0,1,23.1,23.59Z"></path>
    <rect x="0" y="0" width="36" height="36" fill-opacity="0"></rect>
  </symbol>

  <symbol fill="#fff" xmlns="http://www.w3.org/2000/svg" viewBox="0 0 45 40" id="multiple-account">
    <path d="M35.7072 37.3338L33 40L30.2928 37.3338C24.972 36.1236 21 31.4247 21 25.8182C21 19.2945 26.376 14 33 14C39.624 14 45 19.2945 45 25.8182C45 31.4247 41.028 36.1236 35.7072 37.3338ZM25.8276 29.8553C27.5892 32.4435 30.234 34.0909 33.192 34.0909C36.1488 34.0909 38.7948 32.4446 40.5552 29.8553C38.5581 28.0171 35.9255 26.9962 33.192 27C30.4581 26.9959 27.825 28.0168 25.8276 29.8553V29.8553ZM33 24.6364C33.9548 24.6364 34.8705 24.2628 35.5456 23.5979C36.2207 22.933 36.6 22.0312 36.6 21.0909C36.6 20.1506 36.2207 19.2488 35.5456 18.5839C34.8705 17.919 33.9548 17.5455 33 17.5455C32.0452 17.5455 31.1295 17.919 30.4544 18.5839C29.7793 19.2488 29.4 20.1506 29.4 21.0909C29.4 22.0312 29.7793 22.933 30.4544 23.5979C31.1295 24.2628 32.0452 24.6364 33 24.6364V24.6364Z" fill="#fff"></path>
    <path  d="M9.75 5.25L15 5.25V0L18.75 0V5.25L24 5.25V9H18.75L18.75 14.25L15 14.25V9H9.75L9.75 5.25ZM0 15.75H5.25L5.25 10.5L9 10.5V15.75H14.25L14.25 19.5L9 19.5V24.75H5.25V19.5H0L0 15.75Z" fill="#fff"></path>
  </symbol>

    <symbol xmlns="http://www.w3.org/2000/svg" viewBox="0 0 10 17" id="slider-arrow-left">
      <path d="M9.25244 2.1291C9.44294 1.92668 9.54665 1.65897 9.54172 1.38234C9.5368 1.10572 9.42361 0.841788 9.22601 0.646154C9.02842 0.450523 8.76184 0.338461 8.48244 0.33358C8.20304 0.328699 7.93263 0.431381 7.72819 0.61999L0.538332 7.73841C0.438112 7.83757 0.35861 7.95531 0.304369 8.0849C0.250127 8.21449 0.222209 8.3534 0.222209 8.49368C0.222209 8.63395 0.250127 8.77286 0.304369 8.90245C0.35861 9.03204 0.438113 9.14978 0.538332 9.24894L7.72819 16.3674C7.93169 16.5618 8.20417 16.6693 8.48694 16.6667C8.76971 16.6641 9.04016 16.5517 9.24002 16.3537C9.43989 16.1556 9.55318 15.8877 9.55551 15.6078C9.55783 15.3278 9.44899 15.0581 9.25244 14.8568L2.82471 8.49296L9.25244 2.1291Z"></path>
    </symbol>

    <symbol xmlns="http://www.w3.org/2000/svg" viewBox="0 0 10 17" id="slider-arrow-right">
      <path d="M0.747438 14.8709C0.556936 15.0733 0.453225 15.341 0.458155 15.6177C0.463084 15.8943 0.57627 16.1582 0.773866 16.3538C0.971462 16.5495 1.23804 16.6615 1.51744 16.6664C1.79684 16.6713 2.06725 16.5686 2.27169 16.38L9.46155 9.26159C9.56177 9.16243 9.64127 9.04469 9.69551 8.9151C9.74975 8.7855 9.77767 8.6466 9.77767 8.50632C9.77767 8.36605 9.74975 8.22714 9.69551 8.09755C9.64127 7.96796 9.56177 7.85022 9.46155 7.75106L2.27169 0.63264C2.06819 0.438232 1.79571 0.330733 1.51294 0.333297C1.23016 0.335861 0.959721 0.448282 0.759856 0.646349C0.55999 0.844415 0.446696 1.11228 0.444373 1.39224C0.44205 1.67221 0.550884 1.94188 0.747436 2.14317L7.17517 8.50704L0.747438 14.8709Z"></path>
    </symbol>

    <symbol xmlns="http://www.w3.org/2000/svg" viewBox="0 0 43 56" id="icon-btc">
      <path d="M34.1078 25.9844C37.0359 24.5092 38.868 21.9113 38.44 17.5833C37.8637 11.6686 32.6995 9.68524 26.1803 9.12042L26.1791 0.91626H21.128L21.1266 8.90466C19.7976 8.90466 18.4428 8.93048 17.0942 8.95724L17.0931 0.917349L12.0466 0.916882L12.0456 9.11902C10.9519 9.1411 9.87788 9.1621 8.82913 9.1621V9.13784L1.86206 9.13504L1.863 14.4678C1.863 14.4678 5.59313 14.3984 5.53168 14.4658C7.57685 14.4672 8.24464 15.6416 8.43669 16.6554L8.43826 26.0016V39.13C8.34821 39.7663 7.96929 40.7828 6.53925 40.7847C6.60432 40.8413 2.86492 40.7841 2.86492 40.7841L1.863 46.7473H8.43512C9.65974 46.7487 10.863 46.7675 12.0434 46.7768L12.0478 55.0739L17.0931 55.0753L17.0917 46.8652C18.4798 46.8932 19.8196 46.9053 21.1283 46.9036L21.1269 55.0753H26.1778L26.1806 46.7921C34.6709 46.3099 40.6149 44.1948 41.3539 36.31C41.9495 29.9619 38.9282 27.1283 34.1078 25.9844ZM17.2149 14.8277C20.0637 14.8277 29.0229 13.9307 29.0242 19.8155C29.0229 25.4573 20.0665 24.7982 17.2149 24.7982V14.8277ZM17.2127 40.8251L17.2149 29.8317C20.6376 29.8308 31.373 28.8578 31.3744 35.3259C31.3758 41.5289 20.6376 40.8226 17.2127 40.8251Z"></path>
    </symbol>

    <symbol xmlns="http://www.w3.org/2000/svg" viewBox="0 0 43 43" id="icon-forex">
      <path fill-rule="evenodd" clip-rule="evenodd" d="M0.149902 26.2931C0.0609532 25.9095 0.363046 25.5507 0.763711 25.5507C1.06745 25.5507 1.32825 25.7617 1.39624 26.0524C2.71599 31.6945 6.43589 36.4369 11.4442 39.1879V34.8733C10.4378 34.6005 9.6988 33.6952 9.6988 32.6203V14.2363C9.6988 13.1614 10.4378 12.256 11.4442 11.9833V3.81206C6.25813 6.66074 2.45355 11.6447 1.26484 17.5517C1.20455 17.8513 0.939807 18.0725 0.628826 18.0725C0.236218 18.0725 -0.0637205 17.7267 0.0116581 17.3484C1.98163 7.46092 10.8535 0 21.5 0C32.1465 -1.38487e-06 41.0184 7.46092 42.9883 17.3484C43.0637 17.7267 42.7638 18.0725 42.3712 18.0725C42.0602 18.0725 41.7954 17.8513 41.7352 17.5517C40.611 11.9655 37.1474 7.2048 32.3884 4.29488V11.9833C33.3947 12.256 34.1337 13.1614 34.1337 14.2363V32.6203C34.1337 33.6952 33.3947 34.6005 32.3884 34.8733V38.7051C36.9749 35.9007 40.3582 31.3772 41.6038 26.0524C41.6717 25.7617 41.9326 25.5507 42.2363 25.5507C42.637 25.5507 42.939 25.9095 42.8501 26.2931C41.476 32.2192 37.6084 37.214 32.3884 40.1575V40.2544H32.2147C29.0474 42.0028 25.3923 43 21.5 43C11.085 43 2.36829 35.86 0.149902 26.2931ZM31.119 39.4211V34.8733C30.1127 34.6005 29.3737 33.6952 29.3737 32.6203V14.2363C29.3737 13.1614 30.1127 12.256 31.119 11.9833V3.57886C28.6271 2.28667 25.8332 1.48088 22.8683 1.29023V9.80216C23.8746 10.0749 24.6136 10.9803 24.6136 12.0551V21.0913C24.6136 22.1662 23.8746 23.0716 22.8683 23.3443V41.7098C25.8332 41.5191 28.6271 40.7133 31.119 39.4211ZM21.5 1.24638C21.533 1.24638 21.566 1.24645 21.5989 1.2466V9.80216C20.5926 10.0749 19.8536 10.9803 19.8536 12.0551V21.0913C19.8536 22.1662 20.5926 23.0716 21.5989 23.3443V41.7534C21.566 41.7535 21.533 41.7536 21.5 41.7536C18.3575 41.7536 15.3791 41.0636 12.7135 39.8295V34.8733C13.7198 34.6005 14.4588 33.6952 14.4588 32.6203V14.2363C14.4588 13.1614 13.7198 12.256 12.7135 11.9833V3.17054C15.3791 1.93639 18.3575 1.24638 21.5 1.24638ZM10.9681 14.2363C10.9681 13.634 11.4654 13.1457 12.0788 13.1457C12.6922 13.1457 13.1895 13.634 13.1895 14.2363V32.6203C13.1895 33.2226 12.6922 33.7109 12.0788 33.7109C11.4654 33.7109 10.9681 33.2226 10.9681 32.6203V14.2363ZM22.2336 10.9645C21.6202 10.9645 21.1229 11.4528 21.1229 12.0551V21.0913C21.1229 21.6936 21.6202 22.1819 22.2336 22.1819C22.847 22.1819 23.3443 21.6936 23.3443 21.0913V12.0551C23.3443 11.4528 22.847 10.9645 22.2336 10.9645ZM30.643 14.2363C30.643 13.634 31.1403 13.1457 31.7537 13.1457C32.3671 13.1457 32.8644 13.634 32.8644 14.2363V32.6203C32.8644 33.2226 32.3671 33.7109 31.7537 33.7109C31.1403 33.7109 30.643 33.2226 30.643 32.6203V14.2363Z"></path>
    </symbol>

    <symbol xmlns="http://www.w3.org/2000/svg" viewBox="0 0 56 56" id="icon-indices">
      <path d="M44.625 37.178C46.135 34.455 47 31.327 47 28C47 24.673 46.135 21.545 44.625 18.822V18.479H44.416C41.122 12.821 35.006 9 28 9C17.523 9 9 17.523 9 28C9 38.477 17.523 47 28 47C35.006 47 41.122 43.18 44.416 37.521H44.625V37.178ZM12.076 29.5H17.73C17.845 31.221 18.154 32.902 18.65 34.521H13.402C12.704 32.961 12.242 31.273 12.076 29.5ZM38.27 26.5C38.155 24.779 37.846 23.097 37.35 21.479H42.598C43.296 23.039 43.758 24.726 43.924 26.5H38.27ZM35.258 26.5H29.5V21.479H34.182C34.762 23.084 35.124 24.769 35.258 26.5ZM29.5 18.479V14.2C30.807 15.492 31.908 16.931 32.793 18.479H29.5ZM26.5 14.2V18.479H23.207C24.092 16.931 25.193 15.493 26.5 14.2ZM26.5 21.479V26.5H20.742C20.876 24.769 21.238 23.084 21.818 21.479H26.5ZM17.73 26.5H12.076C12.242 24.726 12.704 23.039 13.402 21.479H18.65C18.154 23.097 17.846 24.779 17.73 26.5ZM20.742 29.5H26.5V34.521H21.818C21.238 32.916 20.876 31.23 20.742 29.5ZM26.5 37.521V41.8C25.193 40.508 24.092 39.069 23.207 37.522H26.5V37.521ZM29.5 41.8V37.522H32.793C31.908 39.068 30.807 40.507 29.5 41.8ZM29.5 34.521V29.5H35.258C35.124 31.23 34.762 32.916 34.182 34.521H29.5ZM38.27 29.5H43.924C43.758 31.273 43.296 32.961 42.598 34.521H37.35C37.846 32.902 38.154 31.221 38.27 29.5ZM40.828 18.479H36.175C35.151 16.323 33.779 14.322 32.085 12.548C35.634 13.488 38.695 15.612 40.828 18.479ZM23.915 12.548C22.221 14.322 20.85 16.323 19.825 18.479H15.172C17.305 15.612 20.366 13.488 23.915 12.548ZM15.172 37.521H19.825C20.849 39.675 22.221 41.676 23.915 43.452C20.366 42.512 17.305 40.389 15.172 37.521ZM32.085 43.452C33.779 41.678 35.15 39.677 36.175 37.521H40.828C38.695 40.389 35.634 42.512 32.085 43.452Z"></path>
      <path d="M48.5 39C46.0145 39 44 41.0147 44 43.5C44 45.9853 46.0145 48 48.5 48C50.9855 48 53 45.9851 53 43.5C53 41.0149 50.9853 39 48.5 39ZM48.7724 45.5045V46.0254C48.7724 46.1067 48.7091 46.1658 48.6277 46.1658H48.2805C48.199 46.1658 48.1334 46.1067 48.1334 46.0254V45.5504C47.8138 45.5359 47.4915 45.4677 47.2475 45.3749C47.1153 45.3248 47.0416 45.1832 47.0767 45.0461L47.1333 44.8256C47.1531 44.7482 47.2048 44.6836 47.2755 44.6474C47.3462 44.6106 47.4292 44.6068 47.5034 44.6352C47.7359 44.7251 48.0104 44.7905 48.3036 44.7905C48.6768 44.7905 48.9324 44.6464 48.9324 44.3844C48.9324 44.1355 48.7229 43.9782 48.238 43.8143C47.5371 43.5785 47.0571 43.2511 47.0571 42.6156C47.0571 42.0393 47.465 41.5873 48.1624 41.4496V40.9746C48.1624 40.8933 48.2319 40.8204 48.3134 40.8204H48.6606C48.742 40.8204 48.8018 40.8933 48.8018 40.9746V41.4036C49.1067 41.4167 49.3268 41.462 49.5109 41.5219C49.6501 41.5673 49.7324 41.7132 49.6957 41.8554L49.646 42.0528C49.6266 42.128 49.5769 42.1918 49.5087 42.2287C49.4406 42.2655 49.3601 42.2721 49.2865 42.2469C49.1192 42.1895 48.9011 42.1374 48.6245 42.1374C48.1988 42.1374 48.0611 42.3209 48.0611 42.5044C48.0611 42.7206 48.2905 42.8581 48.8472 43.0678C49.6266 43.3429 49.9397 43.7033 49.9397 44.2925C49.9396 44.8755 49.5277 45.3737 48.7724 45.5045Z"></path>
      <path d="M5.5 9C3.01451 9 1 11.0147 1 13.5C1 15.9853 3.01451 18 5.5 18C7.98549 18 10 15.9851 10 13.5C10 11.0149 7.98529 9 5.5 9ZM5.7724 15.5045V16.0254C5.7724 16.1067 5.70915 16.1658 5.62768 16.1658H5.28047C5.19901 16.1658 5.1334 16.1067 5.1334 16.0254V15.5504C4.81381 15.5359 4.49147 15.4677 4.24747 15.3749C4.11528 15.3248 4.04165 15.1832 4.0767 15.0461L4.1333 14.8256C4.15307 14.7482 4.20477 14.6836 4.27547 14.6474C4.34616 14.6106 4.4292 14.6068 4.50342 14.6352C4.73587 14.7251 5.01042 14.7905 5.30358 14.7905C5.67684 14.7905 5.93239 14.6464 5.93239 14.3844C5.93239 14.1355 5.72286 13.9782 5.23798 13.8143C4.5371 13.5785 4.05712 13.2511 4.05712 12.6156C4.05712 12.0393 4.46503 11.5873 5.16239 11.4496V10.9746C5.16239 10.8933 5.23191 10.8204 5.31337 10.8204H5.66058C5.74205 10.8204 5.80178 10.8933 5.80178 10.9746V11.4036C6.10668 11.4167 6.3268 11.462 6.51088 11.5219C6.65012 11.5673 6.73236 11.7132 6.69574 11.8554L6.646 12.0528C6.62662 12.128 6.57687 12.1918 6.50873 12.2287C6.44058 12.2655 6.36009 12.2721 6.28646 12.2469C6.11922 12.1895 5.90106 12.1374 5.62455 12.1374C5.19881 12.1374 5.06114 12.3209 5.06114 12.5044C5.06114 12.7206 5.29046 12.8581 5.84721 13.0678C6.62662 13.3429 6.93975 13.7033 6.93975 14.2925C6.93955 14.8755 6.52772 15.3737 5.7724 15.5045Z"></path>
      <path fill-rule="evenodd" clip-rule="evenodd" d="M50.2742 39.3633C52.017 35.954 53 32.0918 53 28C53 14.1929 41.8071 3 28 3C20.6221 3 13.9907 6.19595 9.41459 11.279C8.90925 10.3902 8.10998 9.69039 7.14902 9.31174C12.2754 3.59595 19.7178 0 28 0C43.464 0 56 12.536 56 28C56 32.8966 54.7431 37.4997 52.5343 41.5041C52.0607 40.5488 51.2579 39.7857 50.2742 39.3633ZM45.0008 46.3297C40.5399 50.4691 34.5655 53 28 53C14.1929 53 3 41.8071 3 28C3 24.4373 3.74524 21.0486 5.08835 17.9814C4.03187 17.8856 3.08082 17.4246 2.36241 16.7258C0.843355 20.1751 0 23.9891 0 28C0 43.464 12.536 56 28 56C35.6681 56 42.6163 52.9176 47.673 47.9242C46.6001 47.7249 45.6609 47.1449 45.0008 46.3297Z"></path>
    </symbol>

    <symbol xmlns="http://www.w3.org/2000/svg" viewBox="0 0 60 46" id="icon-metals">
      <path d="M59.9923 45.2964L56.9314 26.5332C56.8857 26.2382 56.6268 26.0263 56.3298 26.0263H36.4111C36.1141 26.0263 35.8553 26.2382 35.8096 26.5332L32.7487 45.2964C32.7411 45.3266 32.7411 45.3645 32.7411 45.3947C32.7411 45.7276 33.0152 46 33.3502 46H59.3908C59.4212 46 59.4593 46 59.4897 45.9924C59.8171 45.9395 60.0456 45.6293 59.9923 45.2964ZM24.1903 26.5332C24.1446 26.2382 23.8857 26.0263 23.5888 26.0263H3.67004C3.37309 26.0263 3.11421 26.2382 3.06852 26.5332L0.00761408 45.2964C-1.16297e-07 45.3266 0 45.3645 0 45.3947C0 45.7276 0.274111 46 0.609136 46H26.6497C26.6802 46 26.7182 46 26.7487 45.9924C27.0837 45.9395 27.3045 45.6293 27.2512 45.2964L24.1903 26.5332ZM17.0558 19.9737H43.0964C43.1268 19.9737 43.1649 19.9737 43.1954 19.9661C43.5304 19.9132 43.7512 19.603 43.6979 19.2701L40.637 0.506908C40.5913 0.211842 40.3324 0 40.0355 0H20.1167C19.8198 0 19.5609 0.211842 19.5152 0.506908L16.4543 19.2701C16.4467 19.3003 16.4467 19.3382 16.4467 19.3684C16.4467 19.7013 16.7208 19.9737 17.0558 19.9737Z"></path>
    </symbol>

    <symbol xmlns="http://www.w3.org/2000/svg" viewBox="0 0 54 54" id="icon-shares">
      <path d="M46.6074 5.65385H51.8292V47.1204H46.6074V5.65385ZM36.207 7.15505L35.4834 7.38185C34.5762 7.66805 33.5124 7.26845 33.1452 6.51245C32.967 6.14525 32.9616 5.74025 33.1236 5.36765C33.3126 4.93565 33.7068 4.60085 34.209 4.44425L42.363 1.90625L43.362 9.16925C43.416 9.54185 43.3134 9.91985 43.0704 10.2276C42.768 10.611 42.2874 10.8594 41.7474 10.9135C41.6826 10.9188 41.6124 10.9242 41.5422 10.9242C40.6188 10.9242 39.8358 10.3356 39.717 9.55805L39.5928 8.45645C30.1644 21.5082 8.45644 35.4996 7.51684 36.099C7.19824 36.3042 6.81484 36.4122 6.40984 36.4122C5.86444 36.4122 5.35144 36.2124 5.00044 35.856C4.68184 35.5321 4.53064 35.1216 4.57924 34.7004C4.62784 34.263 4.89244 33.858 5.30284 33.5989C5.51884 33.4585 27.0162 19.5588 36.207 7.15505ZM42.39 14.8609V47.1204H37.1682V14.8609H42.39ZM33.2532 24.4512V47.1259H28.026V24.4512H33.2532ZM23.8032 34.4089V47.1204H18.5814V34.4089H23.8032ZM13.8186 39.3876V47.1204H8.59684V39.3876H13.8186ZM53.46 52.0992H0.540039V48.222H53.46V52.0992Z"></path>
    </symbol>

    <symbol xmlns="http://www.w3.org/2000/svg" fill="currentColor" viewBox="0 0 16 16" id="icon-arrow-right-short">
      <path fill-rule="evenodd" d="M4 8a.5.5 0 0 1 .5-.5h5.793L8.146 5.354a.5.5 0 1 1 .708-.708l3 3a.5.5 0 0 1 0 .708l-3 3a.5.5 0 0 1-.708-.708L10.293 8.5H4.5A.5.5 0 0 1 4 8z"></path>
    </symbol>

    <symbol fill="none" xmlns="http://www.w3.org/2000/svg" viewBox="0 0 66 65" id="icon-copy-trade">
      <g clip-path="url(#clip0_24_8)">
        <path d="M59.8716 23.4096C59.4473 22.3969 59.9307 21.2296 60.9565 20.8085C61.9771 20.3875 63.1533 20.8672 63.5776 21.8852C64.3726 23.772 64.9849 25.7388 65.3931 27.7749C65.7959 29.763 66.0054 31.8204 66.0054 33.9258C66.0054 41.8995 62.9976 49.1751 58.0454 54.7023C53.0396 60.2882 46.0464 64.0832 38.1616 64.9947C37.0605 65.1173 36.0669 64.3337 35.938 63.2411C35.8145 62.1484 36.604 61.1624 37.7051 61.0344C44.5747 60.2403 50.6763 56.9303 55.0483 52.0533C59.3667 47.2349 61.9878 40.8868 61.9878 33.9258C61.9878 32.0869 61.8052 30.2907 61.4561 28.5531C61.0908 26.7569 60.5591 25.0406 59.8716 23.4096ZM45.8154 26.4157C45.8047 26.4797 45.7778 26.5437 45.7456 26.6023C45.7026 26.7462 45.6704 26.9114 45.6597 27.098C45.6597 27.114 45.6597 27.1353 45.6597 27.1513L44.8271 39.2505C44.9561 39.6396 45.1279 39.9381 45.3428 40.13C45.5415 40.3112 45.7939 40.4071 46.1108 40.4178C46.1323 40.4178 46.1592 40.4178 46.1807 40.4178L49.6772 40.6576C49.6826 40.6576 49.6934 40.6576 49.7041 40.6576C50.2466 40.7216 50.6494 40.6043 50.9341 40.3218C51.2563 40.002 51.4658 39.4637 51.5786 38.7335V38.7228L53.394 27.8815C53.394 27.8655 53.394 27.8442 53.3994 27.8282C53.5176 27.2153 53.4048 26.7995 53.1147 26.5437C52.7764 26.2505 52.2017 26.0959 51.439 26.0426C51.4229 26.0426 51.4067 26.0426 51.3853 26.0426L47.4482 25.7761V25.7708C46.8467 25.7282 46.3955 25.8188 46.1108 26.0426C45.9819 26.1386 45.8906 26.2612 45.8154 26.4157ZM41.0405 39.5383C40.96 39.4531 40.9116 39.3465 40.8901 39.2292L35.9648 28.8143C35.4116 27.7376 34.853 27.6736 34.2837 27.9561C33.8809 28.1587 33.4512 28.4998 33.0161 28.8409C32.7529 29.0488 32.4951 29.2513 32.2749 29.4112L31.2544 30.1361L31.249 30.1414C30.5078 30.6531 29.6968 30.9036 28.9395 30.9143C28.4399 30.925 27.9673 30.829 27.543 30.6318C27.1079 30.4346 26.7319 30.1414 26.4634 29.7524C26.1733 29.3366 25.9961 28.8196 25.9854 28.228C25.9854 28.228 26.1196 27.8602 26.1465 27.8335L29.4658 24.4223C28.8213 24.369 28.2412 24.417 27.6934 24.5449C26.8555 24.7421 26.0605 25.1312 25.1904 25.6429C25.0884 25.7122 24.9648 25.7442 24.8359 25.7388L21.3018 25.499L20.8452 32.1242L20.5659 36.3616L22.623 36.5002C22.8218 36.5109 23.0044 36.6281 23.0903 36.8147L25.3408 41.4092C25.6685 42.0808 25.9585 42.6564 26.3452 43.0508C26.7051 43.4239 27.1992 43.6691 27.978 43.7437C28.2681 43.7704 28.5527 43.7437 28.8213 43.6531C28.9878 43.5998 29.1543 43.5199 29.3208 43.4133L27.876 40.2312C27.7471 39.9487 27.876 39.6183 28.1606 39.4957C28.4453 39.3678 28.7783 39.4957 28.9019 39.7782L30.4702 43.2427C31.1147 43.6265 31.7163 43.7704 32.2695 43.6958C32.7744 43.6212 33.2632 43.36 33.7412 42.9069L31.4263 38.6909C31.2812 38.4244 31.3779 38.0832 31.6519 37.934C31.9204 37.7901 32.2642 37.886 32.4146 38.1578L34.853 42.5978C35.3203 42.827 35.7769 42.9016 36.2227 42.811C36.647 42.7257 37.0874 42.4859 37.5332 42.0861L35.3794 37.2944C35.2505 37.0119 35.3794 36.6761 35.6641 36.5535C35.9487 36.4256 36.2871 36.5535 36.4106 36.8413L38.645 41.7983C38.9673 42.0115 39.3486 42.0861 39.7192 42.0541C40.0469 42.0221 40.3691 41.9049 40.6377 41.7237C40.8955 41.5478 41.1104 41.3079 41.2178 41.0308C41.3413 40.7269 41.3574 40.3645 41.2178 39.9594L41.0405 39.5383ZM43.8604 39.8795L42.3618 39.7782C42.5229 40.3805 42.4746 40.9348 42.2812 41.4198C42.0825 41.9155 41.728 42.326 41.293 42.6244C40.8687 42.9123 40.3638 43.0988 39.8374 43.1468C39.3271 43.1947 38.8062 43.1148 38.3281 42.8803C37.7212 43.4293 37.0928 43.7597 36.459 43.893C35.8198 44.0209 35.186 43.941 34.5576 43.6745C33.9023 44.3034 33.1987 44.6818 32.4414 44.7884C31.6733 44.9004 30.8784 44.7298 30.0513 44.2767C29.772 44.4633 29.4819 44.6072 29.1812 44.7085C28.7568 44.8524 28.3218 44.9004 27.8706 44.8524C26.791 44.7458 26.0874 44.3834 25.5449 43.829C25.0239 43.3014 24.6963 42.6511 24.3257 41.8942L22.2202 37.5929L20.3672 37.4649C20.2222 37.9926 20.002 38.0992 19.7012 38.4403C19.0244 39.1919 18.439 39.5863 17.397 39.5277C15.8823 39.4424 13.1968 39.6396 12.3267 38.499C11.8862 37.918 11.623 37.0119 11.5747 35.6954C11.5747 35.6794 11.5747 35.6634 11.5693 35.6474L11.4458 25.3178C11.3545 24.1984 11.5962 23.4256 12.0796 22.9246C12.5684 22.4129 13.272 22.2157 14.1099 22.237C14.1367 22.237 14.1582 22.237 14.1797 22.237L18.4551 22.5301V22.5355C19.2607 22.5781 19.9482 22.7647 20.4531 23.1378C20.8613 23.4362 21.1353 23.8413 21.2588 24.3743L24.7446 24.6089C25.6631 24.0812 26.5117 23.6814 27.4355 23.4576C28.3433 23.2444 29.3047 23.2124 30.4326 23.4256L31.7056 22.125C31.7271 22.0984 31.7485 22.0771 31.7808 22.0558C32.1353 21.7626 32.5273 21.5334 32.9409 21.3522C33.376 21.1603 33.8379 21.0271 34.3159 20.9364C35.0732 20.7979 35.8628 20.7765 36.6255 20.8405C37.4902 20.9151 38.3228 21.1017 39.0371 21.3362C40.4014 21.7946 41.5454 22.7114 42.6519 23.6015C42.8989 23.7987 43.146 24.0012 43.4414 24.2198C43.4521 24.2251 43.4629 24.2358 43.4736 24.2411L45.085 25.4777C45.1763 25.3657 45.2837 25.2645 45.4019 25.1738C45.9175 24.7741 46.6211 24.6089 47.5127 24.6675V24.6622L51.4497 24.9287C51.4658 24.9287 51.4819 24.9287 51.4927 24.934C52.5024 24.9979 53.3081 25.2378 53.8452 25.7122C54.4414 26.2399 54.6885 26.9967 54.4897 28.0414C54.4897 28.0521 54.4844 28.0574 54.4844 28.0681L52.6689 38.8987C52.5239 39.8688 52.207 40.615 51.7075 41.1107C51.1758 41.6437 50.4722 41.8729 49.5752 41.7716L46.0786 41.5318H46.0732C45.4663 41.5211 44.9614 41.3239 44.5532 40.9508C44.2739 40.6843 44.0376 40.3218 43.8604 39.8795ZM15.748 33.7126C16.167 33.7392 16.4839 34.1017 16.457 34.5228C16.4302 34.9385 16.0649 35.2583 15.6406 35.2263C15.2217 35.1997 14.9048 34.8372 14.9316 34.4215C14.9585 34.0057 15.3237 33.6806 15.748 33.7126ZM48.8984 35.9619C49.3174 35.9885 49.6343 36.351 49.6074 36.7667C49.5806 37.1825 49.2153 37.5023 48.791 37.4703C48.3721 37.4436 48.0498 37.0812 48.082 36.6654C48.1089 36.2497 48.4741 35.9352 48.8984 35.9619ZM19.814 30.7544L20.2007 25.1898C20.2222 24.8967 20.0342 24.5289 19.7979 24.353C19.4863 24.1238 19.0029 24.0066 18.4014 23.9746L14.1099 23.6868C13.7178 23.6601 13.1807 23.7347 12.896 24.0279C12.6328 24.2997 12.5093 24.7954 12.5737 25.5789C12.5737 25.5949 12.5737 25.6109 12.5737 25.6269L12.6973 35.3009V35.3169C12.7349 36.3883 12.9229 37.0865 13.2236 37.4863C13.4922 37.8434 18.063 38.5736 18.8525 37.6888C19.1641 37.337 19.3467 36.772 19.4165 36.0258H19.4111L19.7979 30.7437L19.814 30.7544ZM57.4438 12.936L44.4351 15.2493L47.1313 11.4543C43.0225 7.10496 38.4517 5.54326 32.9893 7.15826C38.7793 0.0373107 46.4761 0.0266504 52.4971 3.87495L55.2417 0L57.4438 12.936ZM21.0386 48.7327L18.3423 52.5277C22.4512 56.877 27.022 58.4387 32.4844 56.8237C26.689 63.9393 18.9922 63.95 12.9712 60.1017L10.2212 63.9766L8.02441 51.0459L21.0386 48.7327ZM6.71924 43.4613C7.20264 44.4526 6.78369 45.6412 5.78467 46.1156C4.78564 46.5953 3.58789 46.1796 3.10986 45.1882C2.1001 43.1095 1.31592 40.9028 0.789551 38.5896C0.273926 36.335 0 34.0111 0 31.6392C0 23.8307 2.88965 16.6831 7.66992 11.1984C12.5093 5.6392 19.2876 1.7909 26.9629 0.682247C28.0586 0.527675 29.0737 1.28454 29.2295 2.37187C29.3853 3.4592 28.6226 4.46658 27.5269 4.62116C20.8345 5.5859 14.9209 8.94383 10.6938 13.7942C6.53662 18.5806 4.01758 24.8114 4.01758 31.6392C4.01758 33.7446 4.25391 35.7806 4.69434 37.7208C5.15625 39.7196 5.83838 41.6437 6.71924 43.4613Z" fill="white"></path>
      </g>
      <defs>
        <clipPath id="clip0_24_8">
          <rect width="66" height="65" fill="white"></rect>
        </clipPath>
      </defs>
    </symbol>

  <symbol version="1.1" id="support" xmlns="http://www.w3.org/2000/svg" xmlns:xlink="http://www.w3.org/1999/xlink" x="0px" y="0px" xml:space="preserve" viewBox="0 0 477.655 477.655">
      <path fill="#fff" d="M440.367,440.415l-10.173-29.91c-19.102-56.262-70.83-94.605-129.763-97.121c-5.187,4.03-10.655,7.493-16.322,10.521
		c-8.449,22.185-36.836,28.195-53.468,11.205c-19.676-1.738-37.69-9.511-53.422-21.725c-58.933,2.508-110.647,40.851-129.763,97.121
		L37.3,440.415c-2.936,8.603-1.522,18.084,3.774,25.469c5.279,7.391,13.821,11.771,22.906,11.771h349.693
		c9.083,0,17.626-4.379,22.906-11.771C441.873,458.499,443.286,449.018,440.367,440.415z"></path>

      <path fill="#fff" d="M277.758,290.619c34.212-24.047,58.141-77.151,58.141-128.491c0-145.907-194.133-145.752-194.133,0
		c0,62.397,35.33,127.303,81.546,139.556c4.456-12.626,16.382-21.757,30.515-21.757C263.331,279.926,271.81,284.095,277.758,290.619
		z"></path>

      <path fill="#fff" d="M99.169,223.042c4.813,18.906,31.044,13.704,31.044-3.805c0-70.178,3.354-76.731-6.041-84.348
		C145.679,2.361,330.946,3.355,353.495,134.904c-9.381,7.641-6.025,14.163-6.025,84.333c0,5.489,2.95,10.095,7.189,12.952
		c0,54.594-22.145,51.402-88.736,69.052c-10.295-11.174-28.683-3.899-28.683,11.173c0,18.876,27.053,23.293,32.302,4.318
		c53.762-14.256,101.018-18.752,101.018-72.484v-11.027c3.991-2.066,6.817-5.729,7.951-10.179c51.822-1.056,51.838-78.719,0-79.775
		c-1.072-4.24-3.711-7.703-7.423-9.815c1.336-15.902-1.94-36.805-11.057-56.985C296.626-54.368,109.355-3.176,106.422,123.622
		c-0.404,4.294-0.078,7.338,0.17,9.83c-3.712,2.112-6.351,5.575-7.423,9.815c-21.71,0.419-39.212,18.084-39.212,39.888
		C59.957,204.958,77.459,222.622,99.169,223.042z"></path>

  </symbol>

  <symbol fill="#fff" version="1.1" id="tools" xmlns="http://www.w3.org/2000/svg" xmlns:xlink="http://www.w3.org/1999/xlink" x="0px" y="0px" xml:space="preserve" viewBox="0 0 360.845 360.845">
      <path id="XMLID_19_" d="M200.067,74.262c-5.087-10.765-12.064-20.774-20.837-29.547C147.816,13.302,99.789,5.056,59.716,24.199
		c-4.395,2.101-7.496,6.2-8.318,10.998c-0.824,4.801,0.734,9.7,4.178,13.144l49.406,49.408L83.77,118.962L34.362,69.554
		c-3.442-3.443-8.343-5.002-13.143-4.179c-4.8,0.825-8.9,3.926-10.999,8.32c-19.14,40.072-10.895,88.101,20.517,119.511
		c8.774,8.775,18.785,15.749,29.551,20.834L200.067,74.262z"></path>

      <path id="XMLID_20_" d="M289.276,225.472l-77.782,77.782l27.533,27.532c10.723,10.721,24.805,16.082,38.889,16.082
		c14.085-0.001,28.17-5.361,38.891-16.084c10.389-10.387,16.109-24.199,16.109-38.891c0.001-14.691-5.72-28.502-16.107-38.889
		L289.276,225.472z"></path>

      <path id="XMLID_21_" d="M314.024,38.086c-5.857-5.857-15.355-5.857-21.214,0l-42.427,42.426c-2.813,2.813-4.393,6.628-4.392,10.607
		c0,3.979,1.579,7.793,4.393,10.606l10.607,10.607l-42.428,42.428l-11.436-11.438l-16.848-16.848l-96.92,96.919l-29.607,29.607
		c-21.445,21.445-21.445,56.34,0.001,77.784c10.722,10.723,24.803,16.084,38.888,16.083c14.082-0.002,28.17-5.362,38.891-16.083
		l48.746-48.746l0.002,0.001l77.781-77.781l-10.584-10.585c-0.008-0.007-0.014-0.017-0.021-0.023
		c-0.008-0.008-0.017-0.015-0.025-0.022l-17.654-17.655l42.428-42.428l10.607,10.606c2.929,2.93,6.767,4.394,10.605,4.394
		c3.838,0,7.678-1.464,10.607-4.394l42.427-42.427c2.814-2.814,4.395-6.628,4.395-10.606c-0.001-3.979-1.581-7.794-4.395-10.607
		L314.024,38.086z"></path>

  </symbol>


 <symbol id="icon-all-type" viewBox="0 0 40 32">
<path   d="M0 3.636c0-2.008 1.628-3.636 3.636-3.636h12.327c2.008 0 3.636 1.628 3.636 3.636v11.964h-19.6v-11.964zM11.707 6.693h1.493v-1.493h-1.493v1.493zM7.547 6.693h0.747v-1.493h-1.493v1.493h0.747zM7.547 6.693c-0.064 0-0.107 0.043-0.107 0.107 0 0.053 0.043 0.107 0.107 0.107 0.053 0 0.107-0.053 0.107-0.107 0-0.064-0.053-0.107-0.107-0.107zM8.293 5.947c0 0.053 0.043 0.107 0.107 0.107 0.053 0 0.107-0.053 0.107-0.107 0-0.064-0.053-0.107-0.107-0.107-0.064 0-0.107 0.043-0.107 0.107zM11.707 10.853v0.747h1.493v-1.493h-0.747c0.053 0 0.107-0.053 0.107-0.107s-0.053-0.107-0.107-0.107-0.107 0.053-0.107 0.107c0 0.053 0.053 0.107 0.107 0.107h-0.747v0.747zM11.707 10.853c0-0.053-0.053-0.107-0.107-0.107s-0.107 0.053-0.107 0.107c0 0.053 0.053 0.107 0.107 0.107s0.107-0.053 0.107-0.107zM8.293 11.6v-1.493h-1.493v1.493h1.493zM11.173 10.747c-0.053 0-0.107 0.053-0.107 0.107s0.053 0.107 0.107 0.107 0.107-0.053 0.107-0.107c0-0.053-0.053-0.107-0.107-0.107zM10.747 10.747c-0.053 0-0.107 0.053-0.107 0.107s0.053 0.107 0.107 0.107c0.053 0 0.107-0.053 0.107-0.107s-0.053-0.107-0.107-0.107zM10.32 10.747c-0.053 0-0.107 0.053-0.107 0.107s0.053 0.107 0.107 0.107c0.053 0 0.107-0.053 0.107-0.107s-0.053-0.107-0.107-0.107zM9.893 10.747c-0.064 0-0.107 0.053-0.107 0.107s0.043 0.107 0.107 0.107c0.053 0 0.107-0.053 0.107-0.107s-0.053-0.107-0.107-0.107zM9.467 10.747c-0.064 0-0.107 0.053-0.107 0.107s0.043 0.107 0.107 0.107c0.053 0 0.107-0.053 0.107-0.107s-0.053-0.107-0.107-0.107zM9.040 10.747c-0.064 0-0.107 0.053-0.107 0.107s0.043 0.107 0.107 0.107c0.053 0 0.107-0.053 0.107-0.107s-0.053-0.107-0.107-0.107zM8.613 10.747c-0.064 0-0.107 0.053-0.107 0.107s0.043 0.107 0.107 0.107c0.053 0 0.107-0.053 0.107-0.107s-0.053-0.107-0.107-0.107zM7.547 9.68c-0.064 0-0.107 0.053-0.107 0.107s0.043 0.107 0.107 0.107c0.053 0 0.107-0.053 0.107-0.107s-0.053-0.107-0.107-0.107zM12.453 9.467c-0.053 0-0.107 0.053-0.107 0.107s0.053 0.107 0.107 0.107 0.107-0.053 0.107-0.107c0-0.053-0.053-0.107-0.107-0.107zM7.547 9.253c-0.064 0-0.107 0.053-0.107 0.107s0.043 0.107 0.107 0.107c0.053 0 0.107-0.053 0.107-0.107s-0.053-0.107-0.107-0.107zM12.453 9.040c-0.053 0-0.107 0.053-0.107 0.107s0.053 0.107 0.107 0.107c0.053 0 0.107-0.053 0.107-0.107s-0.053-0.107-0.107-0.107zM7.547 8.827c-0.064 0-0.107 0.053-0.107 0.107s0.043 0.107 0.107 0.107c0.053 0 0.107-0.053 0.107-0.107s-0.053-0.107-0.107-0.107zM12.453 8.613c-0.053 0-0.107 0.053-0.107 0.107s0.053 0.107 0.107 0.107 0.107-0.053 0.107-0.107c0-0.053-0.053-0.107-0.107-0.107zM7.547 8.4c-0.064 0-0.107 0.053-0.107 0.107s0.043 0.107 0.107 0.107c0.053 0 0.107-0.053 0.107-0.107s-0.053-0.107-0.107-0.107zM12.453 8.187c-0.053 0-0.107 0.043-0.107 0.107 0 0.053 0.053 0.107 0.107 0.107s0.107-0.053 0.107-0.107c0-0.064-0.053-0.107-0.107-0.107zM7.547 7.973c-0.064 0-0.107 0.043-0.107 0.107 0 0.053 0.043 0.107 0.107 0.107 0.053 0 0.107-0.053 0.107-0.107 0-0.064-0.053-0.107-0.107-0.107zM12.453 7.76c-0.053 0-0.107 0.043-0.107 0.107 0 0.053 0.053 0.107 0.107 0.107s0.107-0.053 0.107-0.107c0-0.064-0.053-0.107-0.107-0.107zM7.547 7.547c-0.064 0-0.107 0.043-0.107 0.107 0 0.053 0.043 0.107 0.107 0.107 0.053 0 0.107-0.053 0.107-0.107 0-0.064-0.053-0.107-0.107-0.107zM12.453 7.333c-0.053 0-0.107 0.043-0.107 0.107 0 0.053 0.053 0.107 0.107 0.107s0.107-0.053 0.107-0.107c0-0.064-0.053-0.107-0.107-0.107zM7.547 7.12c-0.064 0-0.107 0.043-0.107 0.107 0 0.053 0.043 0.107 0.107 0.107 0.053 0 0.107-0.053 0.107-0.107 0-0.064-0.053-0.107-0.107-0.107zM12.453 6.907c-0.053 0-0.107 0.043-0.107 0.107 0 0.053 0.053 0.107 0.107 0.107s0.107-0.053 0.107-0.107c0-0.064-0.053-0.107-0.107-0.107zM11.387 5.84c-0.053 0-0.107 0.043-0.107 0.107 0 0.053 0.053 0.107 0.107 0.107s0.107-0.053 0.107-0.107c0-0.064-0.053-0.107-0.107-0.107zM10.96 5.84c-0.053 0-0.107 0.043-0.107 0.107 0 0.053 0.053 0.107 0.107 0.107s0.107-0.053 0.107-0.107c0-0.064-0.053-0.107-0.107-0.107zM10.533 5.84c-0.053 0-0.107 0.043-0.107 0.107 0 0.053 0.053 0.107 0.107 0.107s0.107-0.053 0.107-0.107c0-0.064-0.053-0.107-0.107-0.107zM10.107 5.84c-0.053 0-0.107 0.043-0.107 0.107 0 0.053 0.053 0.107 0.107 0.107s0.107-0.053 0.107-0.107c0-0.064-0.053-0.107-0.107-0.107zM9.68 5.84c-0.064 0-0.107 0.043-0.107 0.107 0 0.053 0.043 0.107 0.107 0.107 0.053 0 0.107-0.053 0.107-0.107 0-0.064-0.053-0.107-0.107-0.107zM9.253 5.84c-0.064 0-0.107 0.043-0.107 0.107 0 0.053 0.043 0.107 0.107 0.107 0.053 0 0.107-0.053 0.107-0.107 0-0.064-0.053-0.107-0.107-0.107zM8.827 5.84c-0.064 0-0.107 0.043-0.107 0.107 0 0.053 0.043 0.107 0.107 0.107 0.053 0 0.107-0.053 0.107-0.107 0-0.064-0.053-0.107-0.107-0.107z"></path>
<path   d="M3.636 32c-2.008 0-3.636-1.628-3.636-3.636v-11.964h19.6v11.964c0 2.008-1.628 3.636-3.636 3.636h-12.327zM12.619 22.433c-0.118 0.049-0.174 0.186-0.125 0.304 0.079 0.191 0.14 0.391 0.182 0.601 0.040 0.203 0.061 0.413 0.061 0.628 0 0.814-0.302 1.556-0.799 2.12-0.503 0.57-1.206 0.957-1.997 1.050-0.127 0.015-0.218 0.13-0.204 0.258s0.129 0.219 0.256 0.205c0.908-0.107 1.713-0.55 2.29-1.203 0.57-0.646 0.917-1.497 0.917-2.429 0-0.246-0.024-0.487-0.070-0.719-0.047-0.238-0.118-0.468-0.209-0.689-0.049-0.119-0.184-0.175-0.302-0.126zM10.868 23.11c0.004-0.007 0.007-0.014 0.008-0.022 0.009-0.018 0.019-0.032 0.034-0.044 0.033-0.026 0.085-0.037 0.154-0.032v0.001l0.46 0.031c0.088 0.006 0.154 0.024 0.193 0.059 0.033 0.030 0.046 0.079 0.033 0.15-0.001 0.002-0.001 0.004-0.001 0.006l-0.209 1.268v0.001c-0.013 0.085-0.037 0.148-0.074 0.186-0.033 0.033-0.079 0.047-0.142 0.039h-0.003l-0.403-0.028h-0.008c-0.036-0.001-0.066-0.012-0.088-0.034-0.025-0.022-0.044-0.057-0.059-0.103l0.096-1.415v-0.006c0.001-0.022 0.005-0.041 0.010-0.058zM10.309 24.587c0.002 0.014 0.008 0.026 0.017 0.036l0.020 0.049c0.016 0.047 0.014 0.090 0 0.125-0.012 0.032-0.037 0.060-0.067 0.081-0.031 0.021-0.068 0.035-0.106 0.039-0.043 0.004-0.087-0.005-0.124-0.030l-0.257-0.58c-0.014-0.034-0.053-0.049-0.086-0.034s-0.048 0.054-0.033 0.087l0.248 0.56c-0.051 0.047-0.102 0.075-0.151 0.085-0.051 0.011-0.104 0.002-0.158-0.025l-0.281-0.519c-0.017-0.032-0.057-0.043-0.088-0.026s-0.043 0.057-0.026 0.088l0.267 0.493c-0.055 0.053-0.111 0.084-0.169 0.092-0.064 0.009-0.133-0.008-0.207-0.053l-0.181-0.405c-0.014-0.033-0.053-0.048-0.085-0.033s-0.048 0.053-0.033 0.086l0.166 0.372c-0.019 0.012-0.038 0.022-0.058 0.028-0.031 0.011-0.064 0.014-0.097 0.011-0.090-0.009-0.147-0.037-0.188-0.081-0.044-0.046-0.078-0.113-0.116-0.192l-0.259-0.537c-0.010-0.022-0.031-0.036-0.054-0.037l-0.237-0.016 0.032-0.495 0.053-0.775 0.407 0.028c0.015 0.001 0.029-0.003 0.041-0.011 0.1-0.060 0.192-0.105 0.288-0.128 0.063-0.015 0.13-0.021 0.204-0.014l-0.382 0.399c-0.003 0.003-0.019 0.046-0.019 0.046 0.001 0.069 0.022 0.13 0.055 0.178 0.031 0.045 0.074 0.080 0.124 0.103 0.049 0.023 0.103 0.034 0.161 0.033 0.087-0.001 0.181-0.031 0.266-0.090l0.001-0.001 0.118-0.085c0.025-0.019 0.055-0.042 0.085-0.067l0.005-0.004c0.048-0.038 0.096-0.076 0.141-0.099 0.066-0.033 0.13-0.026 0.194 0.1l0.567 1.218zM10.478 24.651l0.173 0.012c0.020 0.052 0.048 0.094 0.080 0.125 0.047 0.044 0.105 0.067 0.175 0.068h0.001l0.403 0.028c0.103 0.012 0.184-0.015 0.246-0.077 0.058-0.058 0.094-0.145 0.111-0.259l0.209-1.266c0-0.001 0-0.001 0-0.002s0-0.001 0-0.002c0.023-0.122-0.006-0.211-0.074-0.272-0.062-0.055-0.155-0.084-0.271-0.091-0.001-0.001-0.003-0.001-0.005-0.001l-0.453-0.031v0.001c-0.103-0.007-0.184 0.012-0.243 0.059-0.014 0.011-0.026 0.022-0.037 0.035l-0.186-0.145c-0.001-0.001-0.002-0.002-0.004-0.002-0.028-0.021-0.052-0.040-0.075-0.059-0.005-0.004-0.011-0.009-0.016-0.013-0.127-0.104-0.259-0.211-0.416-0.265-0.082-0.027-0.178-0.049-0.278-0.058-0.088-0.008-0.179-0.005-0.266 0.011-0.055 0.011-0.108 0.026-0.158 0.049-0.048 0.021-0.093 0.048-0.134 0.082-0.004 0.002-0.006 0.005-0.009 0.008l-0.147 0.152c-0.13-0.025-0.241-0.021-0.345 0.004-0.106 0.026-0.204 0.073-0.31 0.135l-0.401-0.027c-0.014-0.062-0.046-0.11-0.093-0.145-0.058-0.044-0.137-0.065-0.23-0.070v-0.001l-0.492-0.034h-0.008c-0.096-0.002-0.178 0.021-0.234 0.080-0.056 0.059-0.083 0.149-0.073 0.28l0.014 1.208c0.001 0.002 0.001 0.004 0.001 0.006 0.006 0.154 0.036 0.26 0.087 0.328 0.082 0.109 0.304 0.113 0.477 0.117 0.039 0.001 0.075 0.001 0.107 0.003 0.12 0.007 0.187-0.039 0.265-0.127 0.008-0.009 0.016-0.017 0.023-0.025 0.023-0.024 0.041-0.042 0.054-0.089l0.213 0.015 0.242 0.503c0.043 0.088 0.080 0.165 0.14 0.226 0.062 0.065 0.143 0.107 0.268 0.12 0.052 0.006 0.102 0 0.151-0.017 0.035-0.012 0.068-0.029 0.1-0.051 0.095 0.053 0.187 0.073 0.275 0.060 0.087-0.012 0.168-0.057 0.244-0.13 0.072 0.031 0.145 0.041 0.219 0.026s0.145-0.054 0.215-0.118c0.055 0.027 0.115 0.037 0.174 0.031 0.061-0.006 0.119-0.027 0.168-0.061 0.050-0.035 0.091-0.083 0.114-0.141 0.022-0.057 0.028-0.122 0.009-0.192zM7.495 24.036c0.003-0.049-0.033-0.092-0.082-0.095s-0.091 0.034-0.094 0.083c-0.003 0.049 0.033 0.091 0.082 0.094s0.091-0.034 0.094-0.082zM11.312 24.299c0.003-0.049-0.033-0.091-0.082-0.094s-0.091 0.034-0.094 0.082c-0.004 0.049 0.033 0.091 0.082 0.094s0.091-0.034 0.094-0.082zM7.926 22.945l-0.045 0.651-0.002-0.001-0.045 0.618h0.001c-0.008 0.087-0.029 0.153-0.065 0.194-0.091 0.104-0.617 0.018-0.648-0.024-0.035-0.047-0.056-0.128-0.061-0.254v-0.002l-0.014-1.131v-0.006c-0.007-0.092 0.007-0.15 0.037-0.181 0.033-0.034 0.095-0.043 0.14-0.040l0.494 0.034c0.069 0.004 0.125 0.017 0.161 0.044 0.027 0.021 0.049 0.064 0.046 0.098zM10.717 21.783l1.498-0.27-0.254-1.512-0.316 0.453c-0.693-0.45-1.58-0.449-2.246 0.384 0.629-0.189 1.155-0.006 1.628 0.502l-0.31 0.444zM7.712 26.142l0.31-0.444-1.499 0.27 0.253 1.512 0.317-0.453c0.693 0.45 1.58 0.449 2.247-0.383-0.629 0.189-1.155 0.006-1.628-0.502zM6.266 25.392c0.115-0.055 0.163-0.194 0.108-0.31-0.101-0.212-0.18-0.437-0.233-0.671-0.051-0.227-0.078-0.465-0.078-0.711 0-0.798 0.29-1.527 0.769-2.086 0.487-0.567 1.168-0.96 1.938-1.073 0.126-0.018 0.214-0.136 0.196-0.263s-0.135-0.216-0.261-0.198c-0.884 0.13-1.664 0.58-2.222 1.23-0.55 0.641-0.883 1.477-0.883 2.39 0 0.277 0.032 0.549 0.091 0.813 0.061 0.27 0.151 0.529 0.267 0.772 0.055 0.116 0.193 0.165 0.308 0.108z"></path>
<path  d="M24.036 32c-2.008 0-3.636-1.628-3.636-3.636v-11.964h19.6v11.964c0 2.008-1.628 3.636-3.636 3.636h-12.327zM26.564 22.171c0 0.002 0 0.002 0 0.003s0.001 0.002 0.002 0.002c0.001 0.001 0.002 0.001 0.002 0.002s0.001 0 0.003 0 0.002-0 0.003-0 0.002-0.001 0.002-0.002 0.001-0.002 0.002-0.002 0-0.001 0-0.003-0-0.002-0-0.003-0.001-0.002-0.002-0.002-0.001-0.001-0.001-0.001-0.001-0.001-0.002-0.001c-0-0-0-0-0.001-0s-0.001-0-0.002-0-0.002 0-0.003 0-0.002 0.001-0.002 0.002-0.001 0.002-0.002 0.002-0 0.001-0 0.003zM26.571 21.437c-0.406 0-0.734 0.329-0.734 0.734s0.329 0.734 0.734 0.734c0.273 0 0.512-0.149 0.638-0.371h6.882c0.127 0.221 0.365 0.371 0.638 0.371 0.406 0 0.734-0.329 0.734-0.734s-0.329-0.734-0.734-0.734c-0.273 0-0.512 0.149-0.638 0.371h-6.881c-0.126-0.222-0.365-0.371-0.638-0.371zM34.722 22.168c0-0.001 0.001-0.002 0.002-0.002s0.002-0.001 0.002-0.002c0-0 0.001-0 0.003-0s0.002 0 0.003 0 0.001 0.001 0.002 0.002 0.001 0.002 0.002 0.002 0 0.001 0 0.003-0 0.002-0 0.003-0.001 0.002-0.002 0.002-0.001 0.001-0.001 0.001-0.001 0.001-0.001 0.001-0.001 0-0.003 0-0.002-0-0.003-0-0.001-0.001-0.002-0.002c-0-0-0.001-0.001-0.001-0.001s-0.001-0.001-0.001-0.001-0-0.001-0-0.003 0-0.002 0-0.003zM26.564 26.498c0 0.002 0 0.002 0 0.003s0.001 0.001 0.002 0.002c0.001 0.001 0.002 0.001 0.002 0.002s0 0 0.001 0 0.001 0 0.002 0c0.001 0 0.001-0 0.001-0s0.001-0 0.001-0 0.002-0.001 0.002-0.002c0-0 0.001-0.001 0.001-0.001s0.001-0.001 0.001-0.001c0-0 0-0 0-0.001s0-0.001 0-0.002-0-0.002-0-0.003-0.001-0.001-0.002-0.002-0.001-0.001-0.001-0.001-0.001-0.001-0.001-0.001-0.001-0-0.003-0-0.002 0-0.003 0-0.002 0.001-0.002 0.002-0.001 0.002-0.002 0.002-0 0.001-0 0.003zM26.571 25.763c-0.406 0-0.734 0.329-0.734 0.734s0.329 0.734 0.734 0.734c0.273 0 0.512-0.149 0.638-0.371h6.882c0.126 0.221 0.365 0.371 0.638 0.371 0.406 0 0.734-0.329 0.734-0.734s-0.329-0.734-0.734-0.734c-0.273 0-0.512 0.149-0.638 0.371h-6.881c-0.126-0.222-0.365-0.371-0.638-0.371zM34.722 26.495c0-0.001 0.001-0.001 0.002-0.002s0.002-0.001 0.002-0.002c0-0 0.001-0 0.001-0l0.001-0c0.002 0 0.002 0 0.003 0s0.001 0 0.001 0.001 0.001 0.001 0.001 0.001 0.001 0.002 0.002 0.002c0 0 0 0.001 0 0.003s-0 0.002-0 0.003-0.001 0.001-0.002 0.002c-0 0-0.001 0.001-0.001 0.001s-0.001 0.001-0.001 0.001-0.001 0-0.003 0-0.002-0-0.003-0-0.001-0.001-0.002-0.002-0.001-0.002-0.002-0.002-0-0.001-0-0.003l0-0.002 0-0.001zM30.65 25.632h1.236v-2.719h-1.236v2.719zM29.167 23.654v1.978h1.236v-1.978h-1.236zM27.683 25.385v0.247h1.236v-0.247h-1.236zM32.133 24.396v1.236h1.236v-1.236h-1.236z"></path>
<path   d="M24.036 0c-2.008 0-3.636 1.628-3.636 3.636v11.964h19.6v-11.964c0-2.008-1.628-3.636-3.636-3.636h-12.327zM29.588 6.25l1.019 1.059 2.118-2.029 0.483 0.483v-1.324h-1.324l0.507 0.507-1.77 1.695-1.029-1.069-2.792 2.838 0.337 0.331 2.451-2.491zM29.568 10.762h-1.595v-2.245h1.595v2.245zM31.784 10.762h-1.596v-2.955h1.596v2.955zM32.404 10.762v-4.432h1.595v4.432h-1.595z"></path>
</symbol>

<symbol id="icon-free-vps" viewBox="0 0 32 32">
<path    d="M25.6 19.2c-3.529 0-6.4 2.871-6.4 6.4s2.871 6.4 6.4 6.4c3.529 0 6.4-2.871 6.4-6.4s-2.871-6.4-6.4-6.4zM25.6 30.933c-2.941 0-5.333-2.392-5.333-5.333s2.392-5.333 5.333-5.333c2.941 0 5.333 2.392 5.333 5.333s-2.393 5.333-5.333 5.333z"></path>
<path    d="M0.445 11.2c-0.278 0.395-0.445 0.872-0.445 1.391v6.284c0 0.52 0.167 0.997 0.445 1.392h19.209c1.466-1.633 3.584-2.667 5.946-2.667s4.48 1.034 5.946 2.667h0.009c0.278-0.395 0.445-0.872 0.445-1.391v-6.285c0-0.519-0.168-0.996-0.445-1.391h-31.109zM5.6 18.133c-1.323 0-2.4-1.077-2.4-2.4s1.077-2.4 2.4-2.4c1.323 0 2.4 1.077 2.4 2.4s-1.077 2.4-2.4 2.4zM18.133 15.467c-0.294 0-0.533-0.239-0.533-0.533s0.239-0.533 0.533-0.533c0.294 0 0.533 0.239 0.533 0.533s-0.239 0.533-0.533 0.533zM20.267 15.467c-0.294 0-0.533-0.239-0.533-0.533s0.239-0.533 0.533-0.533c0.294 0 0.533 0.239 0.533 0.533s-0.239 0.533-0.533 0.533zM22.4 15.467c-0.294 0-0.533-0.239-0.533-0.533s0.239-0.533 0.533-0.533c0.294 0 0.533 0.239 0.533 0.533s-0.239 0.533-0.533 0.533zM24.533 15.467c-0.294 0-0.533-0.239-0.533-0.533s0.239-0.533 0.533-0.533c0.294 0 0.533 0.239 0.533 0.533s-0.239 0.533-0.533 0.533zM26.667 15.467c-0.294 0-0.533-0.239-0.533-0.533s0.239-0.533 0.533-0.533c0.294 0 0.533 0.239 0.533 0.533s-0.239 0.533-0.533 0.533z"></path>
<path    d="M29.542 0h-27.085c-1.355 0-2.458 1.102-2.458 2.458v6.284c0 0.519 0.167 0.997 0.445 1.391h31.109c0.278-0.395 0.446-0.872 0.446-1.391v-6.285c0-1.355-1.102-2.458-2.458-2.458zM5.6 8c-1.323 0-2.4-1.077-2.4-2.4s1.077-2.4 2.4-2.4c1.323 0 2.4 1.077 2.4 2.4s-1.077 2.4-2.4 2.4zM18.133 5.333c-0.294 0-0.533-0.239-0.533-0.533s0.239-0.533 0.533-0.533c0.294 0 0.533 0.239 0.533 0.533s-0.239 0.533-0.533 0.533zM19.2 6.933c-0.294 0-0.533-0.239-0.533-0.533s0.239-0.533 0.533-0.533c0.294 0 0.533 0.239 0.533 0.533s-0.239 0.533-0.533 0.533zM20.267 5.333c-0.294 0-0.533-0.239-0.533-0.533s0.239-0.533 0.533-0.533c0.294 0 0.533 0.239 0.533 0.533s-0.239 0.533-0.533 0.533zM21.333 6.933c-0.294 0-0.533-0.239-0.533-0.533s0.239-0.533 0.533-0.533c0.294 0 0.533 0.239 0.533 0.533s-0.239 0.533-0.533 0.533zM22.4 5.333c-0.294 0-0.533-0.239-0.533-0.533s0.239-0.533 0.533-0.533c0.294 0 0.533 0.239 0.533 0.533s-0.239 0.533-0.533 0.533zM23.467 6.933c-0.294 0-0.533-0.239-0.533-0.533s0.239-0.533 0.533-0.533c0.294 0 0.533 0.239 0.533 0.533s-0.239 0.533-0.533 0.533zM24.533 5.333c-0.294 0-0.533-0.239-0.533-0.533s0.239-0.533 0.533-0.533c0.294 0 0.533 0.239 0.533 0.533s-0.239 0.533-0.533 0.533zM25.6 6.933c-0.294 0-0.533-0.239-0.533-0.533s0.239-0.533 0.533-0.533c0.294 0 0.533 0.239 0.533 0.533s-0.239 0.533-0.533 0.533zM26.667 5.333c-0.294 0-0.533-0.239-0.533-0.533s0.239-0.533 0.533-0.533c0.294 0 0.533 0.239 0.533 0.533s-0.239 0.533-0.533 0.533zM27.733 6.933c-0.294 0-0.533-0.239-0.533-0.533s0.239-0.533 0.533-0.533c0.294 0 0.533 0.239 0.533 0.533s-0.239 0.533-0.533 0.533z"></path>
<path d="M17.622 25.174c-0.008-0.036-0.022-0.069-0.022-0.107 0-0.063 0.016-0.122 0.036-0.179 0.115-1.3 0.544-2.508 1.209-3.555h-18.399c-0.278 0.395-0.445 0.872-0.445 1.391v6.284c0 1.356 1.102 2.458 2.458 2.458h17.722c-1.581-1.462-2.579-3.548-2.579-5.867 0-0.144 0.014-0.284 0.022-0.426zM5.6 28.267c-1.323 0-2.4-1.077-2.4-2.4s1.077-2.4 2.4-2.4c1.323 0 2.4 1.077 2.4 2.4s-1.077 2.4-2.4 2.4z"></path>
<path   d="M22.766 24.558v1.86h-0.44v-1.86h0.44zM23.617 25.353v0.299h-0.971v-0.299h0.971zM23.719 24.558v0.3h-1.074v-0.3h1.074z"></path>
<path  d="M23.975 24.558h0.797c0.163 0 0.304 0.021 0.421 0.064s0.209 0.106 0.273 0.189c0.064 0.083 0.095 0.186 0.095 0.308 0 0.1-0.020 0.185-0.059 0.257-0.038 0.071-0.092 0.13-0.163 0.178s-0.151 0.084-0.245 0.112l-0.139 0.064h-0.692l-0.003-0.299h0.515c0.077 0 0.141-0.012 0.192-0.036s0.089-0.057 0.114-0.1c0.026-0.043 0.040-0.092 0.040-0.148 0-0.060-0.013-0.111-0.038-0.155s-0.064-0.077-0.116-0.1-0.117-0.034-0.195-0.034h-0.357v1.56h-0.44v-1.86zM25.169 26.419l-0.487-0.829 0.465-0.003 0.493 0.814v0.018h-0.471z"></path>
<path   d="M27.333 26.12v0.299h-1.137v-0.299h1.137zM26.34 24.558v1.86h-0.44v-1.86h0.44zM27.185 25.316v0.291h-0.989v-0.291h0.989zM27.332 24.558v0.3h-1.136v-0.3h1.136z"></path>
<path   d="M29.023 26.12v0.299h-1.137v-0.299h1.137zM28.030 24.558v1.86h-0.44v-1.86h0.44zM28.875 25.316v0.291h-0.989v-0.291h0.989zM29.022 24.558v0.3h-1.136v-0.3h1.136z"></path>
</symbol>

<symbol id="icon-note" viewBox="0 0 32 32">
<path    d="M30.769 16c0 8.27-6.704 14.974-14.974 14.974s-14.974-6.704-14.974-14.974c0-8.27 6.704-14.974 14.974-14.974s14.974 6.704 14.974 14.974z"></path>
<path   d="M17.623 7.148l-0.392 11.996h-2.848l-0.403-11.996h3.643zM13.886 22.857c0-0.506 0.174-0.925 0.522-1.258 0.356-0.34 0.823-0.51 1.4-0.51 0.585 0 1.052 0.17 1.4 0.51 0.348 0.332 0.522 0.751 0.522 1.258 0 0.49-0.174 0.906-0.522 1.246s-0.815 0.51-1.4 0.51c-0.577 0-1.044-0.17-1.4-0.51-0.348-0.34-0.522-0.755-0.522-1.246z"></path>
</symbol>

<symbol id="icon-zero-commission" viewBox="0 0 36 32">
<path  d="M20.988 13.262v5.39c0 2.339-0.249 4.357-0.746 6.053-0.497 1.683-1.215 3.066-2.152 4.15-0.923 1.070-2.024 1.861-3.303 2.374s-2.699 0.77-4.262 0.77c-1.25 0-2.415-0.157-3.494-0.471-1.080-0.328-2.053-0.834-2.919-1.519-0.852-0.684-1.591-1.547-2.216-2.588-0.611-1.055-1.080-2.31-1.406-3.765s-0.49-3.123-0.49-5.005v-5.39c0-2.339 0.249-4.342 0.746-6.011 0.511-1.683 1.229-3.059 2.152-4.128 0.938-1.070 2.046-1.854 3.324-2.353 1.278-0.513 2.699-0.77 4.261-0.77 1.25 0 2.408 0.164 3.473 0.492 1.080 0.314 2.053 0.806 2.919 1.476s1.605 1.533 2.216 2.588c0.611 1.041 1.080 2.289 1.406 3.743 0.327 1.44 0.49 3.094 0.49 4.963zM14.83 19.465v-7.037c0-1.127-0.064-2.11-0.192-2.952-0.114-0.841-0.291-1.554-0.533-2.139-0.242-0.599-0.54-1.084-0.895-1.455s-0.76-0.642-1.215-0.813c-0.455-0.171-0.959-0.257-1.513-0.257-0.696 0-1.314 0.135-1.854 0.406-0.526 0.271-0.973 0.706-1.342 1.305-0.369 0.585-0.653 1.369-0.852 2.353-0.185 0.97-0.277 2.153-0.277 3.551v7.037c0 1.127 0.057 2.118 0.17 2.973 0.128 0.856 0.313 1.59 0.554 2.203 0.256 0.599 0.554 1.091 0.895 1.476 0.355 0.371 0.76 0.642 1.215 0.813 0.469 0.171 0.98 0.257 1.534 0.257 0.682 0 1.286-0.136 1.811-0.406 0.54-0.285 0.994-0.727 1.364-1.326 0.384-0.613 0.668-1.412 0.852-2.396s0.277-2.182 0.277-3.594z"></path>
<path   d="M23.931 21.252v-0.723c0-0.52 0.112-0.992 0.337-1.418s0.555-0.767 0.992-1.024c0.437-0.257 0.973-0.385 1.609-0.385 0.655 0 1.201 0.128 1.637 0.385 0.443 0.257 0.773 0.598 0.992 1.024 0.224 0.426 0.337 0.898 0.337 1.418v0.723c0 0.507-0.112 0.974-0.337 1.399-0.218 0.426-0.546 0.767-0.982 1.024s-0.976 0.385-1.618 0.385c-0.649 0-1.194-0.128-1.637-0.385-0.436-0.257-0.767-0.598-0.992-1.024s-0.337-0.892-0.337-1.399zM25.718 20.529v0.723c0 0.219 0.041 0.429 0.122 0.629 0.087 0.194 0.218 0.354 0.393 0.479 0.181 0.119 0.399 0.178 0.655 0.178 0.268 0 0.486-0.059 0.655-0.178 0.168-0.125 0.293-0.285 0.374-0.479 0.081-0.2 0.122-0.41 0.122-0.629v-0.723c0-0.232-0.044-0.445-0.131-0.639-0.081-0.2-0.209-0.36-0.384-0.479-0.168-0.125-0.387-0.188-0.655-0.188-0.249 0-0.462 0.063-0.636 0.188-0.175 0.119-0.306 0.279-0.393 0.479-0.081 0.194-0.122 0.407-0.122 0.639zM30.442 28.943v-0.723c0-0.513 0.112-0.983 0.337-1.409 0.231-0.426 0.564-0.767 1.001-1.024 0.443-0.257 0.985-0.385 1.628-0.385 0.649 0 1.191 0.128 1.628 0.385s0.767 0.598 0.992 1.024c0.224 0.426 0.337 0.895 0.337 1.409v0.723c0 0.513-0.112 0.983-0.337 1.409-0.218 0.426-0.546 0.767-0.982 1.024s-0.976 0.385-1.618 0.385c-0.649 0-1.194-0.128-1.637-0.385s-0.78-0.598-1.010-1.024c-0.224-0.426-0.337-0.895-0.337-1.409zM32.238 28.22v0.723c0 0.225 0.050 0.438 0.15 0.639s0.237 0.36 0.412 0.479c0.181 0.119 0.39 0.178 0.627 0.178 0.299 0 0.533-0.059 0.702-0.178s0.284-0.279 0.346-0.479c0.069-0.2 0.103-0.413 0.103-0.639v-0.723c0-0.225-0.044-0.435-0.131-0.629-0.087-0.2-0.218-0.36-0.393-0.479-0.168-0.125-0.384-0.188-0.645-0.188s-0.48 0.063-0.655 0.188c-0.168 0.119-0.296 0.279-0.384 0.479-0.087 0.194-0.131 0.404-0.131 0.629zM34.072 19.852l-6.651 10.687-1.31-0.695 6.651-10.687 1.31 0.695z"></path>
</symbol>
</svg>