<svg aria-hidden="true" style="position: absolute; width: 0; height: 0; overflow: hidden;" version="1.1" xmlns="http://www.w3.org/2000/svg" xmlns:xlink="http://www.w3.org/1999/xlink">
<defs>
<symbol id="icon-all-type" viewBox="0 0 40 32">
<path   d="M0 3.636c0-2.008 1.628-3.636 3.636-3.636h12.327c2.008 0 3.636 1.628 3.636 3.636v11.964h-19.6v-11.964zM11.707 6.693h1.493v-1.493h-1.493v1.493zM7.547 6.693h0.747v-1.493h-1.493v1.493h0.747zM7.547 6.693c-0.064 0-0.107 0.043-0.107 0.107 0 0.053 0.043 0.107 0.107 0.107 0.053 0 0.107-0.053 0.107-0.107 0-0.064-0.053-0.107-0.107-0.107zM8.293 5.947c0 0.053 0.043 0.107 0.107 0.107 0.053 0 0.107-0.053 0.107-0.107 0-0.064-0.053-0.107-0.107-0.107-0.064 0-0.107 0.043-0.107 0.107zM11.707 10.853v0.747h1.493v-1.493h-0.747c0.053 0 0.107-0.053 0.107-0.107s-0.053-0.107-0.107-0.107-0.107 0.053-0.107 0.107c0 0.053 0.053 0.107 0.107 0.107h-0.747v0.747zM11.707 10.853c0-0.053-0.053-0.107-0.107-0.107s-0.107 0.053-0.107 0.107c0 0.053 0.053 0.107 0.107 0.107s0.107-0.053 0.107-0.107zM8.293 11.6v-1.493h-1.493v1.493h1.493zM11.173 10.747c-0.053 0-0.107 0.053-0.107 0.107s0.053 0.107 0.107 0.107 0.107-0.053 0.107-0.107c0-0.053-0.053-0.107-0.107-0.107zM10.747 10.747c-0.053 0-0.107 0.053-0.107 0.107s0.053 0.107 0.107 0.107c0.053 0 0.107-0.053 0.107-0.107s-0.053-0.107-0.107-0.107zM10.32 10.747c-0.053 0-0.107 0.053-0.107 0.107s0.053 0.107 0.107 0.107c0.053 0 0.107-0.053 0.107-0.107s-0.053-0.107-0.107-0.107zM9.893 10.747c-0.064 0-0.107 0.053-0.107 0.107s0.043 0.107 0.107 0.107c0.053 0 0.107-0.053 0.107-0.107s-0.053-0.107-0.107-0.107zM9.467 10.747c-0.064 0-0.107 0.053-0.107 0.107s0.043 0.107 0.107 0.107c0.053 0 0.107-0.053 0.107-0.107s-0.053-0.107-0.107-0.107zM9.040 10.747c-0.064 0-0.107 0.053-0.107 0.107s0.043 0.107 0.107 0.107c0.053 0 0.107-0.053 0.107-0.107s-0.053-0.107-0.107-0.107zM8.613 10.747c-0.064 0-0.107 0.053-0.107 0.107s0.043 0.107 0.107 0.107c0.053 0 0.107-0.053 0.107-0.107s-0.053-0.107-0.107-0.107zM7.547 9.68c-0.064 0-0.107 0.053-0.107 0.107s0.043 0.107 0.107 0.107c0.053 0 0.107-0.053 0.107-0.107s-0.053-0.107-0.107-0.107zM12.453 9.467c-0.053 0-0.107 0.053-0.107 0.107s0.053 0.107 0.107 0.107 0.107-0.053 0.107-0.107c0-0.053-0.053-0.107-0.107-0.107zM7.547 9.253c-0.064 0-0.107 0.053-0.107 0.107s0.043 0.107 0.107 0.107c0.053 0 0.107-0.053 0.107-0.107s-0.053-0.107-0.107-0.107zM12.453 9.040c-0.053 0-0.107 0.053-0.107 0.107s0.053 0.107 0.107 0.107c0.053 0 0.107-0.053 0.107-0.107s-0.053-0.107-0.107-0.107zM7.547 8.827c-0.064 0-0.107 0.053-0.107 0.107s0.043 0.107 0.107 0.107c0.053 0 0.107-0.053 0.107-0.107s-0.053-0.107-0.107-0.107zM12.453 8.613c-0.053 0-0.107 0.053-0.107 0.107s0.053 0.107 0.107 0.107 0.107-0.053 0.107-0.107c0-0.053-0.053-0.107-0.107-0.107zM7.547 8.4c-0.064 0-0.107 0.053-0.107 0.107s0.043 0.107 0.107 0.107c0.053 0 0.107-0.053 0.107-0.107s-0.053-0.107-0.107-0.107zM12.453 8.187c-0.053 0-0.107 0.043-0.107 0.107 0 0.053 0.053 0.107 0.107 0.107s0.107-0.053 0.107-0.107c0-0.064-0.053-0.107-0.107-0.107zM7.547 7.973c-0.064 0-0.107 0.043-0.107 0.107 0 0.053 0.043 0.107 0.107 0.107 0.053 0 0.107-0.053 0.107-0.107 0-0.064-0.053-0.107-0.107-0.107zM12.453 7.76c-0.053 0-0.107 0.043-0.107 0.107 0 0.053 0.053 0.107 0.107 0.107s0.107-0.053 0.107-0.107c0-0.064-0.053-0.107-0.107-0.107zM7.547 7.547c-0.064 0-0.107 0.043-0.107 0.107 0 0.053 0.043 0.107 0.107 0.107 0.053 0 0.107-0.053 0.107-0.107 0-0.064-0.053-0.107-0.107-0.107zM12.453 7.333c-0.053 0-0.107 0.043-0.107 0.107 0 0.053 0.053 0.107 0.107 0.107s0.107-0.053 0.107-0.107c0-0.064-0.053-0.107-0.107-0.107zM7.547 7.12c-0.064 0-0.107 0.043-0.107 0.107 0 0.053 0.043 0.107 0.107 0.107 0.053 0 0.107-0.053 0.107-0.107 0-0.064-0.053-0.107-0.107-0.107zM12.453 6.907c-0.053 0-0.107 0.043-0.107 0.107 0 0.053 0.053 0.107 0.107 0.107s0.107-0.053 0.107-0.107c0-0.064-0.053-0.107-0.107-0.107zM11.387 5.84c-0.053 0-0.107 0.043-0.107 0.107 0 0.053 0.053 0.107 0.107 0.107s0.107-0.053 0.107-0.107c0-0.064-0.053-0.107-0.107-0.107zM10.96 5.84c-0.053 0-0.107 0.043-0.107 0.107 0 0.053 0.053 0.107 0.107 0.107s0.107-0.053 0.107-0.107c0-0.064-0.053-0.107-0.107-0.107zM10.533 5.84c-0.053 0-0.107 0.043-0.107 0.107 0 0.053 0.053 0.107 0.107 0.107s0.107-0.053 0.107-0.107c0-0.064-0.053-0.107-0.107-0.107zM10.107 5.84c-0.053 0-0.107 0.043-0.107 0.107 0 0.053 0.053 0.107 0.107 0.107s0.107-0.053 0.107-0.107c0-0.064-0.053-0.107-0.107-0.107zM9.68 5.84c-0.064 0-0.107 0.043-0.107 0.107 0 0.053 0.043 0.107 0.107 0.107 0.053 0 0.107-0.053 0.107-0.107 0-0.064-0.053-0.107-0.107-0.107zM9.253 5.84c-0.064 0-0.107 0.043-0.107 0.107 0 0.053 0.043 0.107 0.107 0.107 0.053 0 0.107-0.053 0.107-0.107 0-0.064-0.053-0.107-0.107-0.107zM8.827 5.84c-0.064 0-0.107 0.043-0.107 0.107 0 0.053 0.043 0.107 0.107 0.107 0.053 0 0.107-0.053 0.107-0.107 0-0.064-0.053-0.107-0.107-0.107z"></path>
<path   d="M3.636 32c-2.008 0-3.636-1.628-3.636-3.636v-11.964h19.6v11.964c0 2.008-1.628 3.636-3.636 3.636h-12.327zM12.619 22.433c-0.118 0.049-0.174 0.186-0.125 0.304 0.079 0.191 0.14 0.391 0.182 0.601 0.040 0.203 0.061 0.413 0.061 0.628 0 0.814-0.302 1.556-0.799 2.12-0.503 0.57-1.206 0.957-1.997 1.050-0.127 0.015-0.218 0.13-0.204 0.258s0.129 0.219 0.256 0.205c0.908-0.107 1.713-0.55 2.29-1.203 0.57-0.646 0.917-1.497 0.917-2.429 0-0.246-0.024-0.487-0.070-0.719-0.047-0.238-0.118-0.468-0.209-0.689-0.049-0.119-0.184-0.175-0.302-0.126zM10.868 23.11c0.004-0.007 0.007-0.014 0.008-0.022 0.009-0.018 0.019-0.032 0.034-0.044 0.033-0.026 0.085-0.037 0.154-0.032v0.001l0.46 0.031c0.088 0.006 0.154 0.024 0.193 0.059 0.033 0.030 0.046 0.079 0.033 0.15-0.001 0.002-0.001 0.004-0.001 0.006l-0.209 1.268v0.001c-0.013 0.085-0.037 0.148-0.074 0.186-0.033 0.033-0.079 0.047-0.142 0.039h-0.003l-0.403-0.028h-0.008c-0.036-0.001-0.066-0.012-0.088-0.034-0.025-0.022-0.044-0.057-0.059-0.103l0.096-1.415v-0.006c0.001-0.022 0.005-0.041 0.010-0.058zM10.309 24.587c0.002 0.014 0.008 0.026 0.017 0.036l0.020 0.049c0.016 0.047 0.014 0.090 0 0.125-0.012 0.032-0.037 0.060-0.067 0.081-0.031 0.021-0.068 0.035-0.106 0.039-0.043 0.004-0.087-0.005-0.124-0.030l-0.257-0.58c-0.014-0.034-0.053-0.049-0.086-0.034s-0.048 0.054-0.033 0.087l0.248 0.56c-0.051 0.047-0.102 0.075-0.151 0.085-0.051 0.011-0.104 0.002-0.158-0.025l-0.281-0.519c-0.017-0.032-0.057-0.043-0.088-0.026s-0.043 0.057-0.026 0.088l0.267 0.493c-0.055 0.053-0.111 0.084-0.169 0.092-0.064 0.009-0.133-0.008-0.207-0.053l-0.181-0.405c-0.014-0.033-0.053-0.048-0.085-0.033s-0.048 0.053-0.033 0.086l0.166 0.372c-0.019 0.012-0.038 0.022-0.058 0.028-0.031 0.011-0.064 0.014-0.097 0.011-0.090-0.009-0.147-0.037-0.188-0.081-0.044-0.046-0.078-0.113-0.116-0.192l-0.259-0.537c-0.010-0.022-0.031-0.036-0.054-0.037l-0.237-0.016 0.032-0.495 0.053-0.775 0.407 0.028c0.015 0.001 0.029-0.003 0.041-0.011 0.1-0.060 0.192-0.105 0.288-0.128 0.063-0.015 0.13-0.021 0.204-0.014l-0.382 0.399c-0.003 0.003-0.019 0.046-0.019 0.046 0.001 0.069 0.022 0.13 0.055 0.178 0.031 0.045 0.074 0.080 0.124 0.103 0.049 0.023 0.103 0.034 0.161 0.033 0.087-0.001 0.181-0.031 0.266-0.090l0.001-0.001 0.118-0.085c0.025-0.019 0.055-0.042 0.085-0.067l0.005-0.004c0.048-0.038 0.096-0.076 0.141-0.099 0.066-0.033 0.13-0.026 0.194 0.1l0.567 1.218zM10.478 24.651l0.173 0.012c0.020 0.052 0.048 0.094 0.080 0.125 0.047 0.044 0.105 0.067 0.175 0.068h0.001l0.403 0.028c0.103 0.012 0.184-0.015 0.246-0.077 0.058-0.058 0.094-0.145 0.111-0.259l0.209-1.266c0-0.001 0-0.001 0-0.002s0-0.001 0-0.002c0.023-0.122-0.006-0.211-0.074-0.272-0.062-0.055-0.155-0.084-0.271-0.091-0.001-0.001-0.003-0.001-0.005-0.001l-0.453-0.031v0.001c-0.103-0.007-0.184 0.012-0.243 0.059-0.014 0.011-0.026 0.022-0.037 0.035l-0.186-0.145c-0.001-0.001-0.002-0.002-0.004-0.002-0.028-0.021-0.052-0.040-0.075-0.059-0.005-0.004-0.011-0.009-0.016-0.013-0.127-0.104-0.259-0.211-0.416-0.265-0.082-0.027-0.178-0.049-0.278-0.058-0.088-0.008-0.179-0.005-0.266 0.011-0.055 0.011-0.108 0.026-0.158 0.049-0.048 0.021-0.093 0.048-0.134 0.082-0.004 0.002-0.006 0.005-0.009 0.008l-0.147 0.152c-0.13-0.025-0.241-0.021-0.345 0.004-0.106 0.026-0.204 0.073-0.31 0.135l-0.401-0.027c-0.014-0.062-0.046-0.11-0.093-0.145-0.058-0.044-0.137-0.065-0.23-0.070v-0.001l-0.492-0.034h-0.008c-0.096-0.002-0.178 0.021-0.234 0.080-0.056 0.059-0.083 0.149-0.073 0.28l0.014 1.208c0.001 0.002 0.001 0.004 0.001 0.006 0.006 0.154 0.036 0.26 0.087 0.328 0.082 0.109 0.304 0.113 0.477 0.117 0.039 0.001 0.075 0.001 0.107 0.003 0.12 0.007 0.187-0.039 0.265-0.127 0.008-0.009 0.016-0.017 0.023-0.025 0.023-0.024 0.041-0.042 0.054-0.089l0.213 0.015 0.242 0.503c0.043 0.088 0.080 0.165 0.14 0.226 0.062 0.065 0.143 0.107 0.268 0.12 0.052 0.006 0.102 0 0.151-0.017 0.035-0.012 0.068-0.029 0.1-0.051 0.095 0.053 0.187 0.073 0.275 0.060 0.087-0.012 0.168-0.057 0.244-0.13 0.072 0.031 0.145 0.041 0.219 0.026s0.145-0.054 0.215-0.118c0.055 0.027 0.115 0.037 0.174 0.031 0.061-0.006 0.119-0.027 0.168-0.061 0.050-0.035 0.091-0.083 0.114-0.141 0.022-0.057 0.028-0.122 0.009-0.192zM7.495 24.036c0.003-0.049-0.033-0.092-0.082-0.095s-0.091 0.034-0.094 0.083c-0.003 0.049 0.033 0.091 0.082 0.094s0.091-0.034 0.094-0.082zM11.312 24.299c0.003-0.049-0.033-0.091-0.082-0.094s-0.091 0.034-0.094 0.082c-0.004 0.049 0.033 0.091 0.082 0.094s0.091-0.034 0.094-0.082zM7.926 22.945l-0.045 0.651-0.002-0.001-0.045 0.618h0.001c-0.008 0.087-0.029 0.153-0.065 0.194-0.091 0.104-0.617 0.018-0.648-0.024-0.035-0.047-0.056-0.128-0.061-0.254v-0.002l-0.014-1.131v-0.006c-0.007-0.092 0.007-0.15 0.037-0.181 0.033-0.034 0.095-0.043 0.14-0.040l0.494 0.034c0.069 0.004 0.125 0.017 0.161 0.044 0.027 0.021 0.049 0.064 0.046 0.098zM10.717 21.783l1.498-0.27-0.254-1.512-0.316 0.453c-0.693-0.45-1.58-0.449-2.246 0.384 0.629-0.189 1.155-0.006 1.628 0.502l-0.31 0.444zM7.712 26.142l0.31-0.444-1.499 0.27 0.253 1.512 0.317-0.453c0.693 0.45 1.58 0.449 2.247-0.383-0.629 0.189-1.155 0.006-1.628-0.502zM6.266 25.392c0.115-0.055 0.163-0.194 0.108-0.31-0.101-0.212-0.18-0.437-0.233-0.671-0.051-0.227-0.078-0.465-0.078-0.711 0-0.798 0.29-1.527 0.769-2.086 0.487-0.567 1.168-0.96 1.938-1.073 0.126-0.018 0.214-0.136 0.196-0.263s-0.135-0.216-0.261-0.198c-0.884 0.13-1.664 0.58-2.222 1.23-0.55 0.641-0.883 1.477-0.883 2.39 0 0.277 0.032 0.549 0.091 0.813 0.061 0.27 0.151 0.529 0.267 0.772 0.055 0.116 0.193 0.165 0.308 0.108z"></path>
<path  d="M24.036 32c-2.008 0-3.636-1.628-3.636-3.636v-11.964h19.6v11.964c0 2.008-1.628 3.636-3.636 3.636h-12.327zM26.564 22.171c0 0.002 0 0.002 0 0.003s0.001 0.002 0.002 0.002c0.001 0.001 0.002 0.001 0.002 0.002s0.001 0 0.003 0 0.002-0 0.003-0 0.002-0.001 0.002-0.002 0.001-0.002 0.002-0.002 0-0.001 0-0.003-0-0.002-0-0.003-0.001-0.002-0.002-0.002-0.001-0.001-0.001-0.001-0.001-0.001-0.002-0.001c-0-0-0-0-0.001-0s-0.001-0-0.002-0-0.002 0-0.003 0-0.002 0.001-0.002 0.002-0.001 0.002-0.002 0.002-0 0.001-0 0.003zM26.571 21.437c-0.406 0-0.734 0.329-0.734 0.734s0.329 0.734 0.734 0.734c0.273 0 0.512-0.149 0.638-0.371h6.882c0.127 0.221 0.365 0.371 0.638 0.371 0.406 0 0.734-0.329 0.734-0.734s-0.329-0.734-0.734-0.734c-0.273 0-0.512 0.149-0.638 0.371h-6.881c-0.126-0.222-0.365-0.371-0.638-0.371zM34.722 22.168c0-0.001 0.001-0.002 0.002-0.002s0.002-0.001 0.002-0.002c0-0 0.001-0 0.003-0s0.002 0 0.003 0 0.001 0.001 0.002 0.002 0.001 0.002 0.002 0.002 0 0.001 0 0.003-0 0.002-0 0.003-0.001 0.002-0.002 0.002-0.001 0.001-0.001 0.001-0.001 0.001-0.001 0.001-0.001 0-0.003 0-0.002-0-0.003-0-0.001-0.001-0.002-0.002c-0-0-0.001-0.001-0.001-0.001s-0.001-0.001-0.001-0.001-0-0.001-0-0.003 0-0.002 0-0.003zM26.564 26.498c0 0.002 0 0.002 0 0.003s0.001 0.001 0.002 0.002c0.001 0.001 0.002 0.001 0.002 0.002s0 0 0.001 0 0.001 0 0.002 0c0.001 0 0.001-0 0.001-0s0.001-0 0.001-0 0.002-0.001 0.002-0.002c0-0 0.001-0.001 0.001-0.001s0.001-0.001 0.001-0.001c0-0 0-0 0-0.001s0-0.001 0-0.002-0-0.002-0-0.003-0.001-0.001-0.002-0.002-0.001-0.001-0.001-0.001-0.001-0.001-0.001-0.001-0.001-0-0.003-0-0.002 0-0.003 0-0.002 0.001-0.002 0.002-0.001 0.002-0.002 0.002-0 0.001-0 0.003zM26.571 25.763c-0.406 0-0.734 0.329-0.734 0.734s0.329 0.734 0.734 0.734c0.273 0 0.512-0.149 0.638-0.371h6.882c0.126 0.221 0.365 0.371 0.638 0.371 0.406 0 0.734-0.329 0.734-0.734s-0.329-0.734-0.734-0.734c-0.273 0-0.512 0.149-0.638 0.371h-6.881c-0.126-0.222-0.365-0.371-0.638-0.371zM34.722 26.495c0-0.001 0.001-0.001 0.002-0.002s0.002-0.001 0.002-0.002c0-0 0.001-0 0.001-0l0.001-0c0.002 0 0.002 0 0.003 0s0.001 0 0.001 0.001 0.001 0.001 0.001 0.001 0.001 0.002 0.002 0.002c0 0 0 0.001 0 0.003s-0 0.002-0 0.003-0.001 0.001-0.002 0.002c-0 0-0.001 0.001-0.001 0.001s-0.001 0.001-0.001 0.001-0.001 0-0.003 0-0.002-0-0.003-0-0.001-0.001-0.002-0.002-0.001-0.002-0.002-0.002-0-0.001-0-0.003l0-0.002 0-0.001zM30.65 25.632h1.236v-2.719h-1.236v2.719zM29.167 23.654v1.978h1.236v-1.978h-1.236zM27.683 25.385v0.247h1.236v-0.247h-1.236zM32.133 24.396v1.236h1.236v-1.236h-1.236z"></path>
<path   d="M24.036 0c-2.008 0-3.636 1.628-3.636 3.636v11.964h19.6v-11.964c0-2.008-1.628-3.636-3.636-3.636h-12.327zM29.588 6.25l1.019 1.059 2.118-2.029 0.483 0.483v-1.324h-1.324l0.507 0.507-1.77 1.695-1.029-1.069-2.792 2.838 0.337 0.331 2.451-2.491zM29.568 10.762h-1.595v-2.245h1.595v2.245zM31.784 10.762h-1.596v-2.955h1.596v2.955zM32.404 10.762v-4.432h1.595v4.432h-1.595z"></path>
</symbol>
<symbol id="icon-free-vps" viewBox="0 0 32 32">
<path    d="M25.6 19.2c-3.529 0-6.4 2.871-6.4 6.4s2.871 6.4 6.4 6.4c3.529 0 6.4-2.871 6.4-6.4s-2.871-6.4-6.4-6.4zM25.6 30.933c-2.941 0-5.333-2.392-5.333-5.333s2.392-5.333 5.333-5.333c2.941 0 5.333 2.392 5.333 5.333s-2.393 5.333-5.333 5.333z"></path>
<path    d="M0.445 11.2c-0.278 0.395-0.445 0.872-0.445 1.391v6.284c0 0.52 0.167 0.997 0.445 1.392h19.209c1.466-1.633 3.584-2.667 5.946-2.667s4.48 1.034 5.946 2.667h0.009c0.278-0.395 0.445-0.872 0.445-1.391v-6.285c0-0.519-0.168-0.996-0.445-1.391h-31.109zM5.6 18.133c-1.323 0-2.4-1.077-2.4-2.4s1.077-2.4 2.4-2.4c1.323 0 2.4 1.077 2.4 2.4s-1.077 2.4-2.4 2.4zM18.133 15.467c-0.294 0-0.533-0.239-0.533-0.533s0.239-0.533 0.533-0.533c0.294 0 0.533 0.239 0.533 0.533s-0.239 0.533-0.533 0.533zM20.267 15.467c-0.294 0-0.533-0.239-0.533-0.533s0.239-0.533 0.533-0.533c0.294 0 0.533 0.239 0.533 0.533s-0.239 0.533-0.533 0.533zM22.4 15.467c-0.294 0-0.533-0.239-0.533-0.533s0.239-0.533 0.533-0.533c0.294 0 0.533 0.239 0.533 0.533s-0.239 0.533-0.533 0.533zM24.533 15.467c-0.294 0-0.533-0.239-0.533-0.533s0.239-0.533 0.533-0.533c0.294 0 0.533 0.239 0.533 0.533s-0.239 0.533-0.533 0.533zM26.667 15.467c-0.294 0-0.533-0.239-0.533-0.533s0.239-0.533 0.533-0.533c0.294 0 0.533 0.239 0.533 0.533s-0.239 0.533-0.533 0.533z"></path>
<path    d="M29.542 0h-27.085c-1.355 0-2.458 1.102-2.458 2.458v6.284c0 0.519 0.167 0.997 0.445 1.391h31.109c0.278-0.395 0.446-0.872 0.446-1.391v-6.285c0-1.355-1.102-2.458-2.458-2.458zM5.6 8c-1.323 0-2.4-1.077-2.4-2.4s1.077-2.4 2.4-2.4c1.323 0 2.4 1.077 2.4 2.4s-1.077 2.4-2.4 2.4zM18.133 5.333c-0.294 0-0.533-0.239-0.533-0.533s0.239-0.533 0.533-0.533c0.294 0 0.533 0.239 0.533 0.533s-0.239 0.533-0.533 0.533zM19.2 6.933c-0.294 0-0.533-0.239-0.533-0.533s0.239-0.533 0.533-0.533c0.294 0 0.533 0.239 0.533 0.533s-0.239 0.533-0.533 0.533zM20.267 5.333c-0.294 0-0.533-0.239-0.533-0.533s0.239-0.533 0.533-0.533c0.294 0 0.533 0.239 0.533 0.533s-0.239 0.533-0.533 0.533zM21.333 6.933c-0.294 0-0.533-0.239-0.533-0.533s0.239-0.533 0.533-0.533c0.294 0 0.533 0.239 0.533 0.533s-0.239 0.533-0.533 0.533zM22.4 5.333c-0.294 0-0.533-0.239-0.533-0.533s0.239-0.533 0.533-0.533c0.294 0 0.533 0.239 0.533 0.533s-0.239 0.533-0.533 0.533zM23.467 6.933c-0.294 0-0.533-0.239-0.533-0.533s0.239-0.533 0.533-0.533c0.294 0 0.533 0.239 0.533 0.533s-0.239 0.533-0.533 0.533zM24.533 5.333c-0.294 0-0.533-0.239-0.533-0.533s0.239-0.533 0.533-0.533c0.294 0 0.533 0.239 0.533 0.533s-0.239 0.533-0.533 0.533zM25.6 6.933c-0.294 0-0.533-0.239-0.533-0.533s0.239-0.533 0.533-0.533c0.294 0 0.533 0.239 0.533 0.533s-0.239 0.533-0.533 0.533zM26.667 5.333c-0.294 0-0.533-0.239-0.533-0.533s0.239-0.533 0.533-0.533c0.294 0 0.533 0.239 0.533 0.533s-0.239 0.533-0.533 0.533zM27.733 6.933c-0.294 0-0.533-0.239-0.533-0.533s0.239-0.533 0.533-0.533c0.294 0 0.533 0.239 0.533 0.533s-0.239 0.533-0.533 0.533z"></path>
<path d="M17.622 25.174c-0.008-0.036-0.022-0.069-0.022-0.107 0-0.063 0.016-0.122 0.036-0.179 0.115-1.3 0.544-2.508 1.209-3.555h-18.399c-0.278 0.395-0.445 0.872-0.445 1.391v6.284c0 1.356 1.102 2.458 2.458 2.458h17.722c-1.581-1.462-2.579-3.548-2.579-5.867 0-0.144 0.014-0.284 0.022-0.426zM5.6 28.267c-1.323 0-2.4-1.077-2.4-2.4s1.077-2.4 2.4-2.4c1.323 0 2.4 1.077 2.4 2.4s-1.077 2.4-2.4 2.4z"></path>
<path   d="M22.766 24.558v1.86h-0.44v-1.86h0.44zM23.617 25.353v0.299h-0.971v-0.299h0.971zM23.719 24.558v0.3h-1.074v-0.3h1.074z"></path>
<path  d="M23.975 24.558h0.797c0.163 0 0.304 0.021 0.421 0.064s0.209 0.106 0.273 0.189c0.064 0.083 0.095 0.186 0.095 0.308 0 0.1-0.020 0.185-0.059 0.257-0.038 0.071-0.092 0.13-0.163 0.178s-0.151 0.084-0.245 0.112l-0.139 0.064h-0.692l-0.003-0.299h0.515c0.077 0 0.141-0.012 0.192-0.036s0.089-0.057 0.114-0.1c0.026-0.043 0.040-0.092 0.040-0.148 0-0.060-0.013-0.111-0.038-0.155s-0.064-0.077-0.116-0.1-0.117-0.034-0.195-0.034h-0.357v1.56h-0.44v-1.86zM25.169 26.419l-0.487-0.829 0.465-0.003 0.493 0.814v0.018h-0.471z"></path>
<path   d="M27.333 26.12v0.299h-1.137v-0.299h1.137zM26.34 24.558v1.86h-0.44v-1.86h0.44zM27.185 25.316v0.291h-0.989v-0.291h0.989zM27.332 24.558v0.3h-1.136v-0.3h1.136z"></path>
<path   d="M29.023 26.12v0.299h-1.137v-0.299h1.137zM28.030 24.558v1.86h-0.44v-1.86h0.44zM28.875 25.316v0.291h-0.989v-0.291h0.989zM29.022 24.558v0.3h-1.136v-0.3h1.136z"></path>
</symbol>
<symbol id="icon-note" viewBox="0 0 32 32">
<path    d="M30.769 16c0 8.27-6.704 14.974-14.974 14.974s-14.974-6.704-14.974-14.974c0-8.27 6.704-14.974 14.974-14.974s14.974 6.704 14.974 14.974z"></path>
<path   d="M17.623 7.148l-0.392 11.996h-2.848l-0.403-11.996h3.643zM13.886 22.857c0-0.506 0.174-0.925 0.522-1.258 0.356-0.34 0.823-0.51 1.4-0.51 0.585 0 1.052 0.17 1.4 0.51 0.348 0.332 0.522 0.751 0.522 1.258 0 0.49-0.174 0.906-0.522 1.246s-0.815 0.51-1.4 0.51c-0.577 0-1.044-0.17-1.4-0.51-0.348-0.34-0.522-0.755-0.522-1.246z"></path>
</symbol>
<symbol id="icon-zero-commission" viewBox="0 0 36 32">
<path   d="M20.988 13.262v5.39c0 2.339-0.249 4.357-0.746 6.053-0.497 1.683-1.215 3.066-2.152 4.15-0.923 1.070-2.024 1.861-3.303 2.374s-2.699 0.77-4.262 0.77c-1.25 0-2.415-0.157-3.494-0.471-1.080-0.328-2.053-0.834-2.919-1.519-0.852-0.684-1.591-1.547-2.216-2.588-0.611-1.055-1.080-2.31-1.406-3.765s-0.49-3.123-0.49-5.005v-5.39c0-2.339 0.249-4.342 0.746-6.011 0.511-1.683 1.229-3.059 2.152-4.128 0.938-1.070 2.046-1.854 3.324-2.353 1.278-0.513 2.699-0.77 4.261-0.77 1.25 0 2.408 0.164 3.473 0.492 1.080 0.314 2.053 0.806 2.919 1.476s1.605 1.533 2.216 2.588c0.611 1.041 1.080 2.289 1.406 3.743 0.327 1.44 0.49 3.094 0.49 4.963zM14.83 19.465v-7.037c0-1.127-0.064-2.11-0.192-2.952-0.114-0.841-0.291-1.554-0.533-2.139-0.242-0.599-0.54-1.084-0.895-1.455s-0.76-0.642-1.215-0.813c-0.455-0.171-0.959-0.257-1.513-0.257-0.696 0-1.314 0.135-1.854 0.406-0.526 0.271-0.973 0.706-1.342 1.305-0.369 0.585-0.653 1.369-0.852 2.353-0.185 0.97-0.277 2.153-0.277 3.551v7.037c0 1.127 0.057 2.118 0.17 2.973 0.128 0.856 0.313 1.59 0.554 2.203 0.256 0.599 0.554 1.091 0.895 1.476 0.355 0.371 0.76 0.642 1.215 0.813 0.469 0.171 0.98 0.257 1.534 0.257 0.682 0 1.286-0.136 1.811-0.406 0.54-0.285 0.994-0.727 1.364-1.326 0.384-0.613 0.668-1.412 0.852-2.396s0.277-2.182 0.277-3.594z"></path>
<path   d="M23.931 21.252v-0.723c0-0.52 0.112-0.992 0.337-1.418s0.555-0.767 0.992-1.024c0.437-0.257 0.973-0.385 1.609-0.385 0.655 0 1.201 0.128 1.637 0.385 0.443 0.257 0.773 0.598 0.992 1.024 0.224 0.426 0.337 0.898 0.337 1.418v0.723c0 0.507-0.112 0.974-0.337 1.399-0.218 0.426-0.546 0.767-0.982 1.024s-0.976 0.385-1.618 0.385c-0.649 0-1.194-0.128-1.637-0.385-0.436-0.257-0.767-0.598-0.992-1.024s-0.337-0.892-0.337-1.399zM25.718 20.529v0.723c0 0.219 0.041 0.429 0.122 0.629 0.087 0.194 0.218 0.354 0.393 0.479 0.181 0.119 0.399 0.178 0.655 0.178 0.268 0 0.486-0.059 0.655-0.178 0.168-0.125 0.293-0.285 0.374-0.479 0.081-0.2 0.122-0.41 0.122-0.629v-0.723c0-0.232-0.044-0.445-0.131-0.639-0.081-0.2-0.209-0.36-0.384-0.479-0.168-0.125-0.387-0.188-0.655-0.188-0.249 0-0.462 0.063-0.636 0.188-0.175 0.119-0.306 0.279-0.393 0.479-0.081 0.194-0.122 0.407-0.122 0.639zM30.442 28.943v-0.723c0-0.513 0.112-0.983 0.337-1.409 0.231-0.426 0.564-0.767 1.001-1.024 0.443-0.257 0.985-0.385 1.628-0.385 0.649 0 1.191 0.128 1.628 0.385s0.767 0.598 0.992 1.024c0.224 0.426 0.337 0.895 0.337 1.409v0.723c0 0.513-0.112 0.983-0.337 1.409-0.218 0.426-0.546 0.767-0.982 1.024s-0.976 0.385-1.618 0.385c-0.649 0-1.194-0.128-1.637-0.385s-0.78-0.598-1.010-1.024c-0.224-0.426-0.337-0.895-0.337-1.409zM32.238 28.22v0.723c0 0.225 0.050 0.438 0.15 0.639s0.237 0.36 0.412 0.479c0.181 0.119 0.39 0.178 0.627 0.178 0.299 0 0.533-0.059 0.702-0.178s0.284-0.279 0.346-0.479c0.069-0.2 0.103-0.413 0.103-0.639v-0.723c0-0.225-0.044-0.435-0.131-0.629-0.087-0.2-0.218-0.36-0.393-0.479-0.168-0.125-0.384-0.188-0.645-0.188s-0.48 0.063-0.655 0.188c-0.168 0.119-0.296 0.279-0.384 0.479-0.087 0.194-0.131 0.404-0.131 0.629zM34.072 19.852l-6.651 10.687-1.31-0.695 6.651-10.687 1.31 0.695z"></path>
</symbol>
</defs>
</svg>
