<?xml version="1.0" encoding="iso-8859-1"?>
<!-- Generator: Adobe Illustrator 19.0.0, SVG Export Plug-In . SVG Version: 6.00 Build 0)  -->
<svg version="1.1" id="Layer_1" xmlns="http://www.w3.org/2000/svg" xmlns:xlink="http://www.w3.org/1999/xlink" x="0px" y="0px"
	 viewBox="0 0 360.845 360.845" style="enable-background:new 0 0 360.845 360.845;" xml:space="preserve">
<g id="XMLID_18_">
	<path id="XMLID_19_" d="M200.067,74.262c-5.087-10.765-12.064-20.774-20.837-29.547C147.816,13.302,99.789,5.056,59.716,24.199
		c-4.395,2.101-7.496,6.2-8.318,10.998c-0.824,4.801,0.734,9.7,4.178,13.144l49.406,49.408L83.77,118.962L34.362,69.554
		c-3.442-3.443-8.343-5.002-13.143-4.179c-4.8,0.825-8.9,3.926-10.999,8.32c-19.14,40.072-10.895,88.101,20.517,119.511
		c8.774,8.775,18.785,15.749,29.551,20.834L200.067,74.262z"/>
	<path id="XMLID_20_" d="M289.276,225.472l-77.782,77.782l27.533,27.532c10.723,10.721,24.805,16.082,38.889,16.082
		c14.085-0.001,28.17-5.361,38.891-16.084c10.389-10.387,16.109-24.199,16.109-38.891c0.001-14.691-5.72-28.502-16.107-38.889
		L289.276,225.472z"/>
	<path id="XMLID_21_" d="M314.024,38.086c-5.857-5.857-15.355-5.857-21.214,0l-42.427,42.426c-2.813,2.813-4.393,6.628-4.392,10.607
		c0,3.979,1.579,7.793,4.393,10.606l10.607,10.607l-42.428,42.428l-11.436-11.438l-16.848-16.848l-96.92,96.919l-29.607,29.607
		c-21.445,21.445-21.445,56.34,0.001,77.784c10.722,10.723,24.803,16.084,38.888,16.083c14.082-0.002,28.17-5.362,38.891-16.083
		l48.746-48.746l0.002,0.001l77.781-77.781l-10.584-10.585c-0.008-0.007-0.014-0.017-0.021-0.023
		c-0.008-0.008-0.017-0.015-0.025-0.022l-17.654-17.655l42.428-42.428l10.607,10.606c2.929,2.93,6.767,4.394,10.605,4.394
		c3.838,0,7.678-1.464,10.607-4.394l42.427-42.427c2.814-2.814,4.395-6.628,4.395-10.606c-0.001-3.979-1.581-7.794-4.395-10.607
		L314.024,38.086z"/>
</g>
<g>
</g>
<g>
</g>
<g>
</g>
<g>
</g>
<g>
</g>
<g>
</g>
<g>
</g>
<g>
</g>
<g>
</g>
<g>
</g>
<g>
</g>
<g>
</g>
<g>
</g>
<g>
</g>
<g>
</g>
</svg>
